<svg xmlns="http://www.w3.org/2000/svg" viewBox="0 0 678.853333 106.6664" width="678.853333" height="106.6664"><path d="M72.800003 54.1064 L73.279999 54.586395 L73.279999 55.7864 Q72.879997 62.986397 68.559998 68.506393 Q64.239998 74.026398 57.439999 75.7864 Q55.119999 76.346397 52.239998 76.346397 Q49.279999 76.346397 47.199997 75.866394 Q38.239998 74.1064 32.119999 67.386398 Q26 60.666397 24.559999 50.746399 Q24.48 50.026398 24.48 47.306396 Q24.48 44.666397 24.559999 43.866398 Q25.92 34.1064 32.080002 27.346397 Q38.239998 20.586399 47.199997 18.746399 Q49.760002 18.266399 51.279999 18.266399 Q51.439999 18.266399 51.919998 18.306396 Q52.399998 18.346397 52.639999 18.346397 Q54.559998 18.346397 55.360001 18.506397 Q61.200001 19.546398 65.520004 23.7864 L66.559998 24.746399 L68.959999 21.6264 Q71.119995 18.666397 71.440002 18.346397 Q71.520004 18.346397 71.759995 18.306396 Q72 18.266399 72.239998 18.266399 Q72.800003 18.266399 73.279999 18.746399 L73.279999 41.146397 L72.800003 41.626396 L70.080002 41.626396 Q69.599998 41.146397 69.520004 40.266399 Q68.800003 33.706398 65.68 28.906399 Q62.559998 24.1064 58.079998 22.586399 Q56.559998 22.026398 54.079998 22.026398 Q45.760002 22.026398 40.16 27.6264 Q33.84 33.9464 33.84 47.306396 Q33.84 56.986397 36.879997 62.586395 Q39.360001 67.306396 43.959999 70.026398 Q48.559998 72.746399 54.239998 72.746399 Q60.079998 72.746399 64.399994 68.546394 Q68.720001 64.346397 69.68 58.666397 Q70.080002 56.666397 70.080002 55.146397 Q70.080002 54.586395 70.559998 54.1064 L72.800003 54.1064 L72.800003 54.1064 Z" fill="rgba(0,0,0,1)" fill-rule="evenodd" stroke="none"/><path d="M135.537598 47.386398 Q135.537598 59.466396 127.697601 67.946396 Q119.857605 76.426399 108.817604 76.426399 Q106.737602 76.426399 104.897598 76.1064 Q96.417603 74.746399 90.2976 68.306396 Q84.177605 61.866398 82.6576 52.826397 Q82.257607 50.826397 82.257607 47.4664 Q82.257607 36.666397 88.817604 28.186398 Q91.2976 25.306396 93.057602 24.026398 Q99.057602 19.066399 106.737602 18.346397 Q107.457603 18.266399 108.817604 18.266399 Q117.537598 18.266399 124.737602 24.026398 Q126.497604 25.386398 128.897598 28.186398 Q134.177597 34.746399 135.377594 44.026398 Q135.537598 45.4664 135.537598 47.386398 L135.537598 47.386398 Z M115.137604 22.906399 Q111.857605 21.4664 108.817604 21.4664 Q105.617599 21.4664 102.6576 22.906399 Q98.417603 24.986397 95.6576 29.266399 Q92.897606 33.546398 92.097603 39.546398 Q91.697601 41.786396 91.697601 46.346397 Q91.697601 63.226398 99.937607 69.7864 Q103.857605 73.066399 108.897598 73.066399 Q110.657608 73.066399 111.137604 72.986397 Q116.577606 71.866394 120.737602 66.746399 Q126.017601 59.706398 126.017601 46.346397 Q126.017601 41.786396 125.617599 39.546398 Q123.937607 27.306396 115.137604 22.906399 L115.137604 22.906399 Z" fill="rgba(0,0,0,1)" fill-rule="evenodd" stroke="none"/><path d="M146.160004 62.642395 Q144.591995 62.642395 143.695999 61.634396 Q142.800003 60.626396 142.800003 59.170395 Q142.800003 55.138397 145.852005 52.254395 Q148.904007 49.370396 153.160004 49.370396 Q157.975998 49.370396 161.139999 51.974396 Q164.304001 54.578396 165.031998 58.778397 Q165.143997 59.786396 165.143997 60.626396 Q165.143997 63.874397 163.184006 66.730392 Q161.615997 69.082397 156.856003 73.170395 Q154.839996 74.906395 151.255997 78.322395 L147.951996 81.458397 L152.208008 81.514397 Q161 81.514397 161.559998 81.234398 Q161.783997 81.178398 162.119995 80.058395 Q162.343994 79.442398 162.904007 76.250397 L162.904007 76.082397 L165.143997 76.082397 L165.143997 76.250397 L163.576004 86.498398 L163.576004 86.666397 L142.800003 86.666397 L142.800003 85.602394 Q142.800003 84.482399 142.912003 84.3144 Q142.968002 84.2024 147.615997 78.9944 Q153.720001 72.218399 155.455994 70.034393 Q159.208008 64.9384 159.208008 60.682396 Q159.208008 56.986397 157.276001 54.494396 Q155.343994 52.002396 151.871994 52.002396 Q148.623993 52.002396 146.608002 54.914398 Q146.496002 55.138397 146.272003 55.530396 Q146.104004 55.810394 146.104004 55.866394 Q146.104004 55.922394 146.384003 55.922394 Q147.783997 55.922394 148.652008 56.930397 Q149.520004 57.938396 149.520004 59.282394 Q149.520004 60.682396 148.596008 61.662395 Q147.671997 62.642395 146.160004 62.642395 L146.160004 62.642395 Z" fill="rgba(0,0,0,1)" fill-rule="evenodd" stroke="none"/><path d="M190.257767 54.666397 Q190.257767 53.626396 191.377777 53.066399 L215.297775 53.066399 L215.297775 41.066399 L215.377777 29.066399 Q216.177765 28.026398 216.897766 28.026398 Q217.937775 28.026398 218.497772 29.226398 L218.497772 53.066399 L242.337769 53.066399 Q243.537766 53.706398 243.537766 54.666397 Q243.537766 55.626396 242.337769 56.266396 L218.497772 56.266396 L218.497772 80.1064 Q217.937775 81.226395 216.897766 81.226395 Q215.857773 81.226395 215.297775 80.1064 L215.297775 56.266396 L191.377777 56.266396 Q190.257767 55.706398 190.257767 54.666397 L190.257767 54.666397 Z" fill="rgba(0,0,0,1)" fill-rule="evenodd" stroke="none"/><path d="M318.577942 54.1064 L319.057953 54.586395 L319.057953 55.7864 Q318.657959 62.986397 314.337952 68.506393 Q310.017944 74.026398 303.217957 75.7864 Q300.897949 76.346397 298.017944 76.346397 Q295.057953 76.346397 292.977966 75.866394 Q284.017944 74.1064 277.897949 67.386398 Q271.777954 60.666397 270.337952 50.746399 Q270.257965 50.026398 270.257965 47.306396 Q270.257965 44.666397 270.337952 43.866398 Q271.697968 34.1064 277.857941 27.346397 Q284.017944 20.586399 292.977966 18.746399 Q295.537964 18.266399 297.057953 18.266399 Q297.217957 18.266399 297.697968 18.306396 Q298.177948 18.346397 298.417969 18.346397 Q300.337952 18.346397 301.137939 18.506397 Q306.977966 19.546398 311.297943 23.7864 L312.337952 24.746399 L314.737946 21.6264 Q316.897949 18.666397 317.217957 18.346397 Q317.297943 18.346397 317.537964 18.306396 Q317.777954 18.266399 318.017944 18.266399 Q318.577942 18.266399 319.057953 18.746399 L319.057953 41.146397 L318.577942 41.626396 L315.857941 41.626396 Q315.37796 41.146397 315.297943 40.266399 Q314.577942 33.706398 311.457947 28.906399 Q308.337952 24.1064 303.857941 22.586399 Q302.337952 22.026398 299.857941 22.026398 Q291.537964 22.026398 285.937958 27.6264 Q279.61795 33.9464 279.61795 47.306396 Q279.61795 56.986397 282.657959 62.586395 Q285.137939 67.306396 289.737946 70.026398 Q294.337952 72.746399 300.017944 72.746399 Q305.857941 72.746399 310.177948 68.546394 Q314.497955 64.346397 315.457947 58.666397 Q315.857941 56.666397 315.857941 55.146397 Q315.857941 54.586395 316.337952 54.1064 L318.577942 54.1064 L318.577942 54.1064 Z" fill="rgba(0,0,0,1)" fill-rule="evenodd" stroke="none"/><path d="M345.777778 56.2664 L454.577778 56.2664 L453.878217 56.802836 L453.198543 57.353134 L452.538768 57.917285 L451.898903 58.495275 L451.278959 59.087093 L450.67895 59.692728 L450.098885 60.312168 L449.538778 60.9454 L448.998639 61.592414 L448.478481 62.253197 L447.978315 62.927738 L447.498153 63.616025 L447.038006 64.318046 L446.597887 65.033791 L446.177807 65.763246 L445.777778 66.5064 L445.532622 66.986117 L445.298153 67.465259 L445.074372 67.943816 L444.861278 68.421775 L444.658872 68.899125 L444.467153 69.375853 L444.286122 69.851949 L444.115778 70.3274 L443.956122 70.802195 L443.807153 71.276322 L443.668872 71.749769 L443.541278 72.222525 L443.424372 72.694578 L443.318153 73.165916 L443.222622 73.636527 L443.137778 74.1064 L443.137592 74.12599 L443.137043 74.145744 L443.136143 74.165638 L443.134903 74.18565 L443.133334 74.205755 L443.13145 74.225931 L443.12926 74.246154 L443.126778 74.2664 L443.124014 74.286646 L443.120981 74.306869 L443.11769 74.327045 L443.114153 74.34715 L443.110381 74.367162 L443.106387 74.387056 L443.102182 74.40681 L443.097778 74.4264 L443.093373 74.445619 L443.089168 74.464275 L443.085174 74.482369 L443.081403 74.4999 L443.077866 74.516869 L443.074575 74.533275 L443.071541 74.549119 L443.068778 74.5644 L443.066295 74.579119 L443.064106 74.593275 L443.062221 74.606869 L443.060653 74.6199 L443.059413 74.632369 L443.058512 74.644275 L443.057963 74.655619 L443.057778 74.6664 L443.064057 74.772523 L443.082887 74.871884 L443.114256 74.964472 L443.158153 75.050275 L443.214565 75.129281 L443.283481 75.201478 L443.364889 75.266855 L443.458778 75.3254 L443.565135 75.377101 L443.68395 75.421947 L443.815209 75.459925 L443.958903 75.491025 L444.115018 75.515234 L444.283543 75.532541 L444.464467 75.542933 L444.657778 75.5464 L444.775151 75.545648 L444.887262 75.543384 L444.9941 75.539597 L445.095653 75.534275 L445.191909 75.527406 L445.282856 75.518978 L445.368483 75.50898 L445.448778 75.4974 L445.523729 75.484226 L445.593325 75.469447 L445.657553 75.45305 L445.716403 75.435025 L445.769862 75.415359 L445.817918 75.394041 L445.860561 75.371058 L445.897778 75.3464 L445.931899 75.318929 L445.965247 75.287509 L445.997797 75.252129 L446.029528 75.212775 L446.060414 75.169437 L446.090434 75.122103 L446.119563 75.070761 L446.147778 75.0154 L446.175055 74.956007 L446.201372 74.892572 L446.226704 74.825082 L446.251028 74.753525 L446.274321 74.67789 L446.296559 74.598166 L446.317719 74.514339 L446.337778 74.4264 L446.36937 74.226527 L446.404137 74.025916 L446.442069 73.824578 L446.483153 73.622525 L446.527377 73.419769 L446.574731 73.216322 L446.625202 73.012195 L446.678778 72.8074 L446.735448 72.601949 L446.7952 72.395853 L446.858022 72.189125 L446.923903 71.981775 L446.992831 71.773816 L447.064793 71.565259 L447.13978 71.356117 L447.217778 71.1464 L447.44728 70.480492 L447.694793 69.823759 L447.960331 69.176191 L448.243903 68.537775 L448.545522 67.9085 L448.8652 67.288353 L449.202948 66.677324 L449.558778 66.0754 L449.932702 65.48257 L450.324731 64.898822 L450.734877 64.324144 L451.163153 63.758525 L451.609569 63.201953 L452.074137 62.654416 L452.55687 62.115902 L453.057778 61.5864 L453.124877 61.532015 L453.3182 61.377072 L453.62578 61.133886 L454.035653 60.814775 L454.535854 60.432054 L455.114418 59.998041 L455.759381 59.52505 L456.458778 59.0254 L457.200643 58.511406 L457.973012 57.995384 L458.76392 57.489652 L459.561403 57.006525 L460.353495 56.55832 L461.128231 56.157353 L461.873647 55.815941 L462.577778 55.5464 L462.664965 55.514808 L462.746528 55.480041 L462.822465 55.442109 L462.892778 55.401025 L462.957465 55.3568 L463.016528 55.309447 L463.069965 55.258976 L463.117778 55.2054 L463.159965 55.14873 L463.196528 55.088978 L463.227465 55.026156 L463.252778 54.960275 L463.272465 54.891347 L463.286528 54.819384 L463.294965 54.744398 L463.297778 54.6664 L463.294965 54.658275 L463.286528 54.63515 L463.272465 54.5989 L463.252778 54.5514 L463.227465 54.494525 L463.196528 54.43015 L463.159965 54.36015 L463.117778 54.2864 L463.069965 54.210775 L463.016528 54.13515 L462.957465 54.0614 L462.892778 53.9914 L462.822465 53.927025 L462.746528 53.87015 L462.664965 53.82265 L462.577778 53.7864 L461.90353 53.547621 L461.239793 53.290291 L460.586581 53.014421 L459.943903 52.720025 L459.311772 52.407113 L458.6902 52.075697 L458.079198 51.725789 L457.478778 51.3574 L456.888952 50.970543 L456.309731 50.565228 L455.741127 50.141468 L455.183153 49.699275 L454.635819 49.23866 L454.099137 48.759634 L453.57312 48.262211 L453.057778 47.7464 L453.005112 47.678324 L452.855075 47.482291 L452.619608 47.170593 L452.310653 46.755525 L451.940151 46.249379 L451.520043 45.664447 L451.062272 45.013023 L450.578778 44.3074 L450.081502 43.559871 L449.582387 42.782728 L449.093373 41.988265 L448.626403 41.188775 L448.193416 40.39655 L447.806356 39.623884 L447.477163 38.88307 L447.217778 38.1864 L447.148305 37.977054 L447.080872 37.769009 L447.015454 37.562254 L446.952028 37.356775 L446.890571 37.152562 L446.831059 36.949603 L446.773469 36.747886 L446.717778 36.5474 L446.663961 36.348132 L446.611997 36.150072 L446.56186 35.953207 L446.513528 35.757525 L446.466977 35.563015 L446.422184 35.369666 L446.379125 35.177464 L446.337778 34.9864 L446.317719 34.888334 L446.296559 34.795119 L446.274321 34.706732 L446.251028 34.62315 L446.226704 34.544349 L446.201372 34.470306 L446.175055 34.400998 L446.147778 34.3364 L446.119563 34.27649 L446.090434 34.221244 L446.060414 34.170638 L446.029528 34.12465 L445.997797 34.083255 L445.965247 34.046431 L445.931899 34.014154 L445.897778 33.9864 L445.860561 33.961742 L445.817918 33.938759 L445.769862 33.917441 L445.716403 33.897775 L445.657553 33.87975 L445.593325 33.863353 L445.523729 33.848574 L445.448778 33.8354 L445.368483 33.82382 L445.282856 33.813822 L445.191909 33.805394 L445.095653 33.798525 L444.9941 33.793203 L444.887262 33.789416 L444.775151 33.787152 L444.657778 33.7864 L444.45434 33.789867 L444.264028 33.800259 L444.08684 33.817566 L443.922778 33.841775 L443.77184 33.872875 L443.634028 33.910853 L443.50934 33.955699 L443.397778 34.0074 L443.29934 34.065945 L443.214028 34.131322 L443.14184 34.203519 L443.082778 34.282525 L443.03684 34.368328 L443.004028 34.460916 L442.98434 34.560277 L442.977778 34.6664 L442.979653 34.702308 L442.985278 34.750041 L442.994653 34.809609 L443.007778 34.881025 L443.024653 34.9643 L443.045278 35.059447 L443.069653 35.166476 L443.097778 35.2854 L443.129653 35.41623 L443.165278 35.558978 L443.204653 35.713656 L443.247778 35.880275 L443.294653 36.058847 L443.345278 36.249384 L443.399653 36.451898 L443.457778 36.6664 L443.79228 37.901927 L444.174793 39.109494 L444.605331 40.289076 L445.083903 41.44065 L445.610522 42.564193 L446.1852 43.659681 L446.807948 44.727091 L447.478778 45.7664 L448.197702 46.777584 L448.964731 47.760619 L449.779877 48.715482 L450.643153 49.64215 L451.554569 50.540599 L452.514137 51.410806 L453.52187 52.252748 L454.577778 53.0664 L345.777778 53.0664" fill="rgba(0,0,0,1)" fill-rule="nonzero" stroke="none"/><path d="M345.777778 56.2664 L455.297778 56.2664 L455.297778 53.0664 L345.777778 53.0664" fill="rgba(0,0,0,1)" fill-rule="nonzero" stroke="none"/><path d="M494.319977 40.346397 Q492.079987 40.346397 490.799988 38.906399 Q489.519989 37.466396 489.519989 35.386398 Q489.519989 29.6264 493.879974 25.506397 Q498.23999 21.386398 504.319977 21.386398 Q511.199982 21.386398 515.719971 25.1064 Q520.23999 28.826397 521.279968 34.826397 Q521.440002 36.266399 521.440002 37.466396 Q521.440002 42.1064 518.640015 46.186398 Q516.399963 49.546398 509.599976 55.386398 Q506.720001 57.866398 501.599976 62.746399 L496.879974 67.226395 L502.959991 67.306396 Q515.52002 67.306396 516.320007 66.906395 Q516.640015 66.826401 517.119995 65.226395 Q517.440002 64.346397 518.23999 59.786396 L518.23999 59.546398 L521.440002 59.546398 L521.440002 59.786396 L519.200012 74.426399 L519.200012 74.666397 L489.519989 74.666397 L489.519989 73.1464 Q489.519989 71.546394 489.679993 71.306396 Q489.759979 71.1464 496.399994 63.706398 Q505.119995 54.026398 507.599976 50.906395 Q512.959961 43.626396 512.959961 37.546398 Q512.959961 32.266399 510.199982 28.706398 Q507.440002 25.146397 502.47998 25.146397 Q497.839996 25.146397 494.959991 29.306396 Q494.799988 29.6264 494.47998 30.186398 Q494.23999 30.586399 494.23999 30.666397 Q494.23999 30.746399 494.639984 30.746399 Q496.639984 30.746399 497.879974 32.186398 Q499.119995 33.626396 499.119995 35.546398 Q499.119995 37.546398 497.799988 38.9464 Q496.47998 40.346397 494.319977 40.346397 L494.319977 40.346397 Z" fill="rgba(0,0,0,1)" fill-rule="evenodd" stroke="none"/><path d="M591.65332 54.1064 L592.133301 54.586395 L592.133301 55.7864 Q591.733337 62.986397 587.41333 68.506393 Q583.093323 74.026398 576.293335 75.7864 Q573.973328 76.346397 571.093323 76.346397 Q568.133301 76.346397 566.053345 75.866394 Q557.093323 74.1064 550.973328 67.386398 Q544.853333 60.666397 543.41333 50.746399 Q543.333313 50.026398 543.333313 47.306396 Q543.333313 44.666397 543.41333 43.866398 Q544.773315 34.1064 550.93335 27.346397 Q557.093323 20.586399 566.053345 18.746399 Q568.613342 18.266399 570.133301 18.266399 Q570.293335 18.266399 570.773315 18.306396 Q571.253357 18.346397 571.493347 18.346397 Q573.41333 18.346397 574.213318 18.506397 Q580.053345 19.546398 584.373352 23.7864 L585.41333 24.746399 L587.813354 21.6264 Q589.973328 18.666397 590.293335 18.346397 Q590.373352 18.346397 590.613342 18.306396 Q590.853333 18.266399 591.093323 18.266399 Q591.65332 18.266399 592.133301 18.746399 L592.133301 41.146397 L591.65332 41.626396 L588.93335 41.626396 Q588.453308 41.146397 588.373352 40.266399 Q587.65332 33.706398 584.533325 28.906399 Q581.41333 24.1064 576.93335 22.586399 Q575.41333 22.026398 572.93335 22.026398 Q564.613342 22.026398 559.013306 27.6264 Q552.693359 33.9464 552.693359 47.306396 Q552.693359 56.986397 555.733337 62.586395 Q558.213318 67.306396 562.813354 70.026398 Q567.41333 72.746399 573.093323 72.746399 Q578.93335 72.746399 583.253357 68.546394 Q587.573303 64.346397 588.533325 58.666397 Q588.93335 56.666397 588.93335 55.146397 Q588.93335 54.586395 589.41333 54.1064 L591.65332 54.1064 L591.65332 54.1064 Z" fill="rgba(0,0,0,1)" fill-rule="evenodd" stroke="none"/><path d="M654.39093 47.386398 Q654.39093 59.466396 646.550903 67.946396 Q638.710938 76.426399 627.670898 76.426399 Q625.590942 76.426399 623.750916 76.1064 Q615.270935 74.746399 609.15094 68.306396 Q603.030945 61.866398 601.510925 52.826397 Q601.110901 50.826397 601.110901 47.4664 Q601.110901 36.666397 607.670898 28.186398 Q610.15094 25.306396 611.91095 24.026398 Q617.910889 19.066399 625.590942 18.346397 Q626.310913 18.266399 627.670898 18.266399 Q636.39093 18.266399 643.590942 24.026398 Q645.350891 25.386398 647.750916 28.186398 Q653.030945 34.746399 654.230896 44.026398 Q654.39093 45.4664 654.39093 47.386398 L654.39093 47.386398 Z M633.990906 22.906399 Q630.710938 21.4664 627.670898 21.4664 Q624.470947 21.4664 621.510925 22.906399 Q617.270935 24.986397 614.510925 29.266399 Q611.750916 33.546398 610.950928 39.546398 Q610.550903 41.786396 610.550903 46.346397 Q610.550903 63.226398 618.790894 69.7864 Q622.710938 73.066399 627.750916 73.066399 Q629.510925 73.066399 629.990906 72.986397 Q635.430908 71.866394 639.590942 66.746399 Q644.870911 59.706398 644.870911 46.346397 Q644.870911 41.786396 644.470947 39.546398 Q642.790894 27.306396 633.990906 22.906399 L633.990906 22.906399 Z" fill="rgba(0,0,0,1)" fill-rule="evenodd" stroke="none"/></svg>