<svg xmlns="http://www.w3.org/2000/svg" viewBox="0 0 336.00048 127.56488" width="336.00048" height="127.56488"><path d="M29.439999 107.56488 L29.439999 27.56488 L40.400002 27.56488 L40.400002 30.764881 L32.639999 30.764881 L32.639999 104.364883 L40.400002 104.364883 L40.400002 107.56488 L29.439999 107.56488 L29.439999 107.56488 Z" fill="rgba(0,0,0,1)" fill-rule="evenodd" stroke="none"/><path d="M62.622398 87.56488 Q61.1824 87.324883 53.422401 87.324883 Q46.302399 87.324883 45.3424 87.56488 L44.782402 87.56488 L44.782402 83.88488 L45.982399 83.88488 Q51.742401 83.644882 53.3424 80.524879 Q53.422401 80.284882 57.582401 67.924881 Q61.742401 55.56488 65.862396 43.284882 Q69.982399 31.004883 70.062401 30.924881 Q70.302399 30.284882 71.582397 30.284882 L72.302399 30.284882 Q73.902397 30.364883 74.222397 30.844883 Q74.302399 30.924881 81.982399 53.72488 Q89.662399 76.524879 91.582397 82.20488 Q91.822403 82.684883 92.142395 83.004883 Q93.0224 83.804878 97.182404 83.88488 L99.582397 83.88488 L99.582397 87.56488 L98.862396 87.56488 Q97.662399 87.324883 88.7024 87.324883 Q78.382401 87.324883 77.182404 87.56488 L76.382401 87.56488 L76.382401 83.88488 L77.422401 83.88488 Q83.0224 83.88488 83.0224 82.444878 Q83.0224 82.284882 81.102402 76.524879 L79.182404 70.844879 L60.5424 70.844879 L58.942398 75.56488 Q57.3424 80.284882 57.3424 80.764877 Q57.3424 81.164879 57.582401 81.484879 Q58.062401 82.524879 59.622398 83.20488 Q61.1824 83.88488 62.942398 83.88488 L63.3424 83.88488 L63.3424 87.56488 L62.622398 87.56488 L62.622398 87.56488 Z M75.502396 59.804878 Q73.182404 52.844883 71.422401 47.72488 L69.822403 43.004883 L65.822403 55.004883 L61.742401 67.084885 Q61.742401 67.164879 69.822403 67.164879 L77.982399 67.164879 L75.502396 59.804878 L75.502396 59.804878 Z" fill="rgba(0,0,0,1)" fill-rule="evenodd" stroke="none"/><path d="M128.542389 54.844883 Q132.062393 51.324883 136.622391 51.324883 Q138.622391 51.324883 139.822388 52.56488 Q141.0224 53.804882 141.0224 55.88488 Q141.0224 57.164879 140.222397 57.964882 Q139.422394 58.764881 138.142395 58.764881 Q135.582397 58.764881 135.182404 56.364883 Q135.0224 55.244881 135.422394 54.684879 Q135.422394 54.604881 135.502396 54.444881 L135.502396 54.36488 Q135.182404 54.444881 134.782394 54.524879 Q132.862396 54.844883 131.26239 56.124882 Q130.622391 56.524879 130.622391 56.684883 Q130.782394 56.844879 130.942398 57.084881 Q133.582397 60.364883 133.582397 64.20488 Q133.582397 67.484879 131.422394 70.604881 Q127.662399 76.124878 119.982399 76.124878 Q116.142395 76.124878 112.062393 73.88488 Q111.182396 75.484879 111.182396 76.924881 Q111.182396 79.724884 113.262398 81.084877 Q113.982399 81.56488 114.662399 81.604881 Q115.3424 81.644882 120.382401 81.724884 Q127.102394 81.804878 129.0224 82.20488 Q138.062393 83.56488 139.662399 91.164879 Q139.822388 91.804878 139.822388 93.324883 Q139.822388 94.764877 139.662399 95.244881 Q138.542389 99.324883 133.502396 101.684883 Q128.462402 104.044876 122.222397 104.044876 Q115.662399 104.044876 110.782394 101.56488 Q105.822395 99.164879 104.7024 95.244881 Q104.542397 94.764877 104.542397 93.56488 Q104.542397 90.284882 107.0224 87.964882 Q108.222397 86.764877 109.582397 86.124878 L110.462395 85.644882 Q107.582397 83.164879 107.582397 78.924881 Q107.582397 75.244881 109.902397 72.124878 Q106.382401 68.604881 106.382401 64.20488 Q106.382401 60.844879 108.542397 57.72488 Q110.222397 55.244881 113.262398 53.72488 Q116.302399 52.20488 120.062393 52.20488 Q124.142395 52.20488 127.662399 54.284882 L128.542389 54.844883 L128.542389 54.844883 Z M113.582397 64.20488 Q113.582397 68.524879 114.942398 70.764877 Q116.302399 73.004883 119.982399 73.004883 Q122.542397 73.004883 124.142395 71.684883 Q125.742393 70.364883 126.142395 68.20488 Q126.382401 66.924881 126.382401 64.20488 Q126.382401 61.484879 126.142395 60.124882 Q125.182396 55.244881 119.902397 55.244881 Q117.582397 55.244881 115.902397 56.56488 Q114.222397 57.88488 113.822395 60.124882 Q113.582397 61.404881 113.582397 64.20488 L113.582397 64.20488 Z M132.222397 89.404877 Q130.462402 88.20488 128.26239 87.88488 Q126.062393 87.56488 121.982399 87.56488 L119.662399 87.56488 Q114.302399 87.56488 113.262398 88.044884 Q111.662399 88.764877 110.742393 90.284882 Q109.822395 91.804878 109.822395 93.484879 Q109.822395 94.364883 110.062393 95.084877 Q110.702393 96.924881 112.942398 98.484879 Q115.182396 100.044876 118.142395 100.604881 Q119.582397 100.924881 122.222397 100.924881 Q124.782394 100.924881 126.222397 100.604881 Q129.182404 99.964882 131.462402 98.404877 Q133.742401 96.844879 134.302399 95.004883 Q134.462402 94.604881 134.462402 93.56488 Q134.462402 90.844879 132.222397 89.404877 L132.222397 89.404877 Z" fill="rgba(0,0,0,1)" fill-rule="evenodd" stroke="none"/><path d="M195.0224 67.004883 L195.502396 67.484879 L195.502396 68.684883 Q195.102386 75.88488 190.782394 81.404877 Q186.462402 86.924881 179.662399 88.684883 Q177.342392 89.244881 174.462402 89.244881 Q171.502396 89.244881 169.422394 88.764877 Q160.462402 87.004883 154.342392 80.284882 Q148.222397 73.56488 146.782394 63.644882 Q146.702393 62.924881 146.702393 60.20488 Q146.702393 57.56488 146.782394 56.764881 Q148.142395 47.004883 154.302399 40.244881 Q160.462402 33.484882 169.422394 31.644882 Q171.982391 31.164883 173.502396 31.164883 Q173.662399 31.164883 174.142395 31.20488 Q174.622391 31.244881 174.862396 31.244881 Q176.782394 31.244881 177.582397 31.404881 Q183.422394 32.444881 187.742401 36.684883 L188.782394 37.644882 L191.182404 34.524883 Q193.342392 31.56488 193.662399 31.244881 Q193.742401 31.244881 193.982391 31.20488 Q194.222397 31.164883 194.462402 31.164883 Q195.0224 31.164883 195.502396 31.644882 L195.502396 54.04488 L195.0224 54.524879 L192.302399 54.524879 Q191.822388 54.04488 191.742401 53.164883 Q191.0224 46.604881 187.902405 41.804882 Q184.782394 37.004883 180.302399 35.484882 Q178.782394 34.924881 176.302399 34.924881 Q167.982391 34.924881 162.382401 40.524883 Q156.062393 46.844883 156.062393 60.20488 Q156.062393 69.88488 159.102402 75.484879 Q161.582397 80.20488 166.182404 82.924881 Q170.782394 85.644882 176.462402 85.644882 Q182.302399 85.644882 186.622391 81.444878 Q190.942398 77.244881 191.902405 71.56488 Q192.302399 69.56488 192.302399 68.044876 Q192.302399 67.484879 192.782394 67.004883 L195.0224 67.004883 L195.0224 67.004883 Z" fill="rgba(0,0,0,1)" fill-rule="evenodd" stroke="none"/><path d="M202.240005 32.924881 Q202.639999 32.924881 208.520004 32.484882 Q214.399994 32.04488 214.559998 32.04488 L214.800003 32.04488 L214.800003 57.244881 Q214.800003 82.604881 214.880005 82.764877 Q215.520004 83.88488 218.880005 83.88488 L219.759995 83.88488 L221.039993 83.88488 L221.039993 87.56488 L220.399994 87.56488 Q218.959991 87.324883 211.600006 87.324883 Q203.759995 87.324883 202.720001 87.56488 L202.080002 87.56488 L202.080002 83.88488 L203.360001 83.88488 L204.240005 83.88488 Q207.600006 83.88488 208.240005 82.764877 L208.240005 82.124878 Q208.240005 81.404877 208.240005 80.284882 Q208.240005 79.164879 208.279999 77.644882 Q208.320007 76.124878 208.320007 74.164879 Q208.320007 72.20488 208.320007 70.164879 Q208.320007 68.124878 208.320007 65.764877 Q208.320007 63.404881 208.320007 61.244881 Q208.320007 58.284882 208.320007 54.964882 Q208.320007 51.644882 208.320007 49.004883 Q208.320007 46.36488 208.279999 44.164883 Q208.240005 41.964882 208.240005 40.684883 Q208.240005 39.404881 208.240005 39.324883 Q208 37.804882 207.080002 37.284882 Q206.160004 36.764881 203.520004 36.604881 L202.080002 36.604881 L202.080002 34.764881 Q202.080002 32.924881 202.240005 32.924881 L202.240005 32.924881 Z" fill="rgba(0,0,0,1)" fill-rule="evenodd" stroke="none"/><path d="M228.382401 75.540878 Q226.814392 75.540878 225.918396 74.532883 Q225.0224 73.524879 225.0224 72.068878 Q225.0224 68.03688 228.074402 65.152878 Q231.126404 62.268879 235.382401 62.268879 Q240.198395 62.268879 243.362396 64.872879 Q246.526398 67.476883 247.254395 71.67688 Q247.366394 72.684875 247.366394 73.524879 Q247.366394 76.772881 245.406403 79.628876 Q243.838394 81.980881 239.0784 86.068878 Q237.062393 87.804878 233.478394 91.220879 L230.174393 94.35688 L234.430389 94.41288 Q243.222397 94.41288 243.782394 94.132881 Q244.006393 94.076881 244.342392 92.956879 Q244.566391 92.340881 245.126404 89.14888 L245.126404 88.980881 L247.366394 88.980881 L247.366394 89.14888 L245.798401 99.396881 L245.798401 99.56488 L225.0224 99.56488 L225.0224 98.500877 Q225.0224 97.380882 225.134399 97.212883 Q225.190399 97.100883 229.838394 91.892883 Q235.942398 85.116882 237.678391 82.932877 Q241.430389 77.836884 241.430389 73.580879 Q241.430389 69.88488 239.498398 67.392883 Q237.566391 64.900879 234.094391 64.900879 Q230.846405 64.900879 228.830399 67.812881 Q228.718399 68.03688 228.4944 68.428879 Q228.326401 68.708878 228.326401 68.764877 Q228.326401 68.820877 228.6064 68.820877 Q230.006393 68.820877 230.87439 69.82888 Q231.742401 70.836884 231.742401 72.180878 Q231.742401 73.580879 230.81839 74.560883 Q229.894394 75.540878 228.382401 75.540878 L228.382401 75.540878 Z" fill="rgba(0,0,0,1)" fill-rule="evenodd" stroke="none"/><path d="M251.982391 30.764881 L251.982391 27.56488 L262.942383 27.56488 L262.942383 107.56488 L251.982391 107.56488 L251.982391 104.364883 L259.742401 104.364883 L259.742401 30.764881 L251.982391 30.764881 L251.982391 30.764881 Z" fill="rgba(0,0,0,1)" fill-rule="evenodd" stroke="none"/><path d="M277.148804 38.666481 Q277.148804 37.93848 277.9328 37.546478 L310.468811 37.546478 Q311.308807 37.99448 311.308807 38.666481 Q311.308807 39.338482 310.468811 39.78648 L277.9328 39.78648 Q277.148804 39.394482 277.148804 38.666481 L277.148804 38.666481 Z" fill="rgba(0,0,0,1)" fill-rule="evenodd" stroke="none"/></svg>