<svg xmlns="http://www.w3.org/2000/svg" viewBox="0 0 250.2224 130.74704" width="250.2224" height="130.74704"><path d="M30.24 41.227039 Q29.439999 40.42704 28.68 40.26704 Q27.92 40.10704 24.639999 40.027039 L22 40.027039 L22 36.347038 L22.879999 36.347038 Q24.24 36.58704 34.400002 36.58704 Q44.559998 36.58704 45.919998 36.347038 L46.799999 36.347038 L46.799999 40.027039 L44.16 40.027039 Q40.879997 40.10704 40.040001 40.26704 Q39.199997 40.42704 38.639999 41.227039 L38.559998 50.987038 L38.559998 60.74704 L61.360001 60.74704 L61.360001 41.227039 Q60.559998 40.42704 59.799999 40.26704 Q59.040001 40.10704 55.759998 40.027039 L53.119999 40.027039 L53.119999 36.347038 L54 36.347038 Q55.360001 36.58704 65.520004 36.58704 Q75.68 36.58704 77.039993 36.347038 L77.919998 36.347038 L77.919998 40.027039 L75.279999 40.027039 Q72 40.10704 71.160004 40.26704 Q70.32 40.42704 69.759995 41.227039 L69.759995 86.10704 Q70.32 86.907036 71.160004 87.067039 Q72 87.227036 75.279999 87.307037 L77.919998 87.307037 L77.919998 90.987038 L77.039993 90.987038 Q75.68 90.74704 65.520004 90.74704 Q55.360001 90.74704 54 90.987038 L53.119999 90.987038 L53.119999 87.307037 L55.759998 87.307037 Q59.040001 87.227036 59.799999 87.067039 Q60.559998 86.907036 61.360001 86.10704 L61.360001 64.42704 L38.559998 64.42704 L38.559998 75.227036 L38.639999 86.10704 Q39.199997 86.907036 40.040001 87.067039 Q40.879997 87.227036 44.16 87.307037 L46.799999 87.307037 L46.799999 90.987038 L45.919998 90.987038 Q44.559998 90.74704 34.400002 90.74704 Q24.24 90.74704 22.879999 90.987038 L22 90.987038 L22 87.307037 L24.639999 87.307037 Q27.92 87.227036 28.68 87.067039 Q29.439999 86.907036 30.24 86.10704 L30.24 41.227039 L30.24 41.227039 Z" fill="rgba(0,0,0,1)" fill-rule="evenodd" stroke="none"/><path d="M87.112 30.160637 Q85.599998 30.160637 84.732002 29.208637 Q83.863998 28.256638 83.863998 26.744637 Q83.863998 23.552639 86.384003 21.396637 Q88.903999 19.240639 92.208 18.848637 L93.048004 18.848637 Q96.576004 18.848637 99.264 20.080639 Q102.959999 21.928638 103.912003 25.344637 Q104.080002 25.904638 104.080002 26.856638 Q104.080002 30.160637 102.036003 32.764637 Q99.992004 35.368637 96.912003 36.48864 Q96.632004 36.600639 96.912003 36.656639 Q97.024002 36.712639 97.472 36.824638 Q100.888 37.776638 103.239998 40.380638 Q105.592003 42.984638 105.592003 46.288639 Q105.592003 49.200638 104.108002 51.608639 Q102.624001 54.01664 100.328003 55.360638 Q97.192001 57.320637 93.328003 57.320637 Q89.632004 57.320637 86.776001 55.75264 Q83.919998 54.184639 82.912003 51.552639 Q82.351997 50.376637 82.351997 48.80864 Q82.351997 47.240639 83.388 46.260639 Q84.424004 45.28064 85.879997 45.28064 Q87.447998 45.28064 88.456001 46.288639 Q89.464005 47.296638 89.464005 48.80864 Q89.464005 50.096638 88.736 51.048637 Q88.008003 52.000637 86.776001 52.28064 L86.384003 52.392639 Q89.407997 54.91264 93.328003 54.91264 Q96.408005 54.91264 97.975998 51.944637 Q98.928001 50.096638 98.928001 46.288639 L98.928001 45.16864 Q98.928001 39.84864 95.344002 38.056637 Q94.503998 37.720638 91.928001 37.664639 L89.576004 37.608635 L89.407997 37.496635 Q89.295998 37.328636 89.295998 36.600639 Q89.295998 35.928638 89.464005 35.760635 Q89.632004 35.592636 89.744003 35.592636 Q91.311996 35.592636 92.992004 35.312637 Q95.456001 34.976639 96.744003 32.540638 Q98.031998 30.104637 98.031998 26.688637 Q98.031998 23.048637 96.071999 21.816639 Q94.896004 21.032639 93.440002 21.032639 Q90.639999 21.032639 88.512001 22.544636 Q88.288002 22.656639 88.008003 22.908638 Q87.727997 23.160637 87.559998 23.384636 L87.391998 23.608639 Q87.559998 23.664639 87.783997 23.720638 Q88.903999 23.832638 89.660004 24.784637 Q90.416 25.736637 90.416 26.968637 Q90.416 28.312637 89.492004 29.236637 Q88.568001 30.160637 87.112 30.160637 L87.112 30.160637 Z" fill="rgba(0,0,0,1)" fill-rule="evenodd" stroke="none"/><path d="M118.239998 41.227039 Q117.440002 40.42704 116.68 40.26704 Q115.919998 40.10704 112.639999 40.027039 L110 40.027039 L110 36.347038 L110.879997 36.347038 Q112.239998 36.58704 122.400002 36.58704 Q132.559998 36.58704 133.919998 36.347038 L134.800003 36.347038 L134.800003 40.027039 L132.160004 40.027039 Q128.880005 40.10704 128.039993 40.26704 Q127.199997 40.42704 126.639999 41.227039 L126.559998 50.987038 L126.559998 60.74704 L149.360001 60.74704 L149.360001 41.227039 Q148.559998 40.42704 147.800003 40.26704 Q147.040009 40.10704 143.759995 40.027039 L141.119995 40.027039 L141.119995 36.347038 L142 36.347038 Q143.360001 36.58704 153.520004 36.58704 Q163.679993 36.58704 165.039993 36.347038 L165.919998 36.347038 L165.919998 40.027039 L163.279999 40.027039 Q160 40.10704 159.160004 40.26704 Q158.320007 40.42704 157.759995 41.227039 L157.759995 86.10704 Q158.320007 86.907036 159.160004 87.067039 Q160 87.227036 163.279999 87.307037 L165.919998 87.307037 L165.919998 90.987038 L165.039993 90.987038 Q163.679993 90.74704 153.520004 90.74704 Q143.360001 90.74704 142 90.987038 L141.119995 90.987038 L141.119995 87.307037 L143.759995 87.307037 Q147.040009 87.227036 147.800003 87.067039 Q148.559998 86.907036 149.360001 86.10704 L149.360001 64.42704 L126.559998 64.42704 L126.559998 75.227036 L126.639999 86.10704 Q127.199997 86.907036 128.039993 87.067039 Q128.880005 87.227036 132.160004 87.307037 L134.800003 87.307037 L134.800003 90.987038 L133.919998 90.987038 Q132.559998 90.74704 122.400002 90.74704 Q112.239998 90.74704 110.879997 90.987038 L110 90.987038 L110 87.307037 L112.639999 87.307037 Q115.919998 87.227036 116.68 87.067039 Q117.440002 86.907036 118.239998 86.10704 L118.239998 41.227039 L118.239998 41.227039 Z" fill="rgba(0,0,0,1)" fill-rule="evenodd" stroke="none"/><path d="M225.759995 63.707039 Q225.759995 75.787041 217.919998 84.267036 Q210.080002 92.74704 199.039993 92.74704 Q196.959991 92.74704 195.119995 92.42704 Q186.639999 91.067039 180.520004 84.627037 Q174.399994 78.187042 172.880005 69.147034 Q172.479996 67.147034 172.479996 63.787041 Q172.479996 52.987038 179.039993 44.507038 Q181.520004 41.627037 183.279999 40.347038 Q189.279999 35.387039 196.959991 34.667038 Q197.679993 34.58704 199.039993 34.58704 Q207.759995 34.58704 214.959991 40.347038 Q216.720001 41.707039 219.119995 44.507038 Q224.399994 51.067039 225.600006 60.347038 Q225.759995 61.787041 225.759995 63.707039 L225.759995 63.707039 Z M205.360001 39.227039 Q202.080002 37.787041 199.039993 37.787041 Q195.839996 37.787041 192.880005 39.227039 Q188.639999 41.307037 185.880005 45.58704 Q183.119995 49.867039 182.320007 55.867039 Q181.919998 58.107037 181.919998 62.667038 Q181.919998 79.547035 190.160004 86.10704 Q194.080002 89.387039 199.119995 89.387039 Q200.880005 89.387039 201.360001 89.307037 Q206.800003 88.187035 210.959991 83.067039 Q216.23999 76.027039 216.23999 62.667038 Q216.23999 58.107037 215.839996 55.867039 Q214.160004 43.627037 205.360001 39.227039 L205.360001 39.227039 Z" fill="rgba(0,0,0,1)" fill-rule="evenodd" stroke="none"/></svg>