<svg xmlns="http://www.w3.org/2000/svg" viewBox="0 0 456 106.6664" width="456" height="106.6664"><path d="M72.800003 54.1064 L73.279999 54.586395 L73.279999 55.7864 Q72.879997 62.986397 68.559998 68.506393 Q64.239998 74.026398 57.439999 75.7864 Q55.119999 76.346397 52.239998 76.346397 Q49.279999 76.346397 47.199997 75.866394 Q38.239998 74.1064 32.119999 67.386398 Q26 60.666397 24.559999 50.746399 Q24.48 50.026398 24.48 47.306396 Q24.48 44.666397 24.559999 43.866398 Q25.92 34.1064 32.080002 27.346397 Q38.239998 20.586399 47.199997 18.746399 Q49.760002 18.266399 51.279999 18.266399 Q51.439999 18.266399 51.919998 18.306396 Q52.399998 18.346397 52.639999 18.346397 Q54.559998 18.346397 55.360001 18.506397 Q61.200001 19.546398 65.520004 23.7864 L66.559998 24.746399 L68.959999 21.6264 Q71.119995 18.666397 71.440002 18.346397 Q71.520004 18.346397 71.759995 18.306396 Q72 18.266399 72.239998 18.266399 Q72.800003 18.266399 73.279999 18.746399 L73.279999 41.146397 L72.800003 41.626396 L70.080002 41.626396 Q69.599998 41.146397 69.520004 40.266399 Q68.800003 33.706398 65.68 28.906399 Q62.559998 24.1064 58.079998 22.586399 Q56.559998 22.026398 54.079998 22.026398 Q45.760002 22.026398 40.16 27.6264 Q33.84 33.9464 33.84 47.306396 Q33.84 56.986397 36.879997 62.586395 Q39.360001 67.306396 43.959999 70.026398 Q48.559998 72.746399 54.239998 72.746399 Q60.079998 72.746399 64.399994 68.546394 Q68.720001 64.346397 69.68 58.666397 Q70.080002 56.666397 70.080002 55.146397 Q70.080002 54.586395 70.559998 54.1064 L72.800003 54.1064 L72.800003 54.1064 Z" fill="rgba(0,0,0,1)" fill-rule="evenodd" stroke="none"/><path d="M98.665604 53.010395 Q97.433601 51.778397 95.193604 51.610397 Q91.273605 51.610397 88.641602 54.970398 Q86.009605 58.610397 86.009605 66.282394 L86.065605 66.506393 L86.513603 65.778397 Q88.809601 62.418396 92.729607 62.418396 Q95.305603 62.418396 97.265602 63.482399 Q99.3936 64.714394 101.073608 67.178398 Q102.753601 69.642395 103.201607 72.498398 Q103.313606 73.170395 103.313606 74.906395 L103.313606 75.914398 Q103.313606 77.202393 103.0336 78.322395 Q102.361603 81.626396 99.5616 84.538399 Q97.153603 87.058395 94.185608 87.6744 Q93.289604 87.898399 91.945602 87.898399 Q90.881607 87.898399 90.041603 87.7304 Q84.889603 86.722397 82.509605 81.654396 Q80.129601 76.586395 80.129601 69.138397 Q80.129601 63.090397 82.257607 58.554398 Q84.385605 54.018394 88.193604 51.498398 Q91.217606 49.370396 94.745605 49.370396 Q97.993607 49.370396 99.981606 51.106396 Q101.969604 52.842396 101.969604 55.866394 Q101.969604 57.266396 101.157608 58.106396 Q100.345604 58.946396 99.001602 58.946396 Q97.657608 58.946396 96.845604 58.162395 Q96.0336 57.378395 96.0336 55.978394 Q96.0336 53.458397 98.665604 53.010395 L98.665604 53.010395 Z M96.201599 66.450394 Q94.633606 64.434395 92.169601 64.434395 Q90.097603 64.434395 88.809601 65.722397 Q86.065605 68.4664 86.065605 74.570396 Q86.065605 79.554398 86.737602 81.458397 Q87.297607 83.138397 88.641602 84.3144 Q89.985603 85.490395 91.833603 85.490395 Q94.689606 85.490395 96.201599 83.362396 Q97.041603 82.186394 97.265602 80.562393 Q97.489601 78.9384 97.489601 75.858398 L97.489601 74.962395 L97.489601 74.066399 Q97.489601 70.874397 97.265602 69.250397 Q97.041603 67.626396 96.201599 66.450394 L96.201599 66.450394 Z" fill="rgba(0,0,0,1)" fill-rule="evenodd" stroke="none"/><path d="M116.017601 24.906399 Q115.217606 24.1064 114.457603 23.9464 Q113.697601 23.7864 110.417603 23.706398 L107.777603 23.706398 L107.777603 20.026398 L108.6576 20.026398 Q110.017601 20.266399 120.177605 20.266399 Q130.337601 20.266399 131.697601 20.026398 L132.577606 20.026398 L132.577606 23.706398 L129.937607 23.706398 Q126.6576 23.7864 125.817604 23.9464 Q124.9776 24.1064 124.417603 24.906399 L124.337601 34.666397 L124.337601 44.426399 L147.137604 44.426399 L147.137604 24.906399 Q146.337601 24.1064 145.577606 23.9464 Q144.817596 23.7864 141.537598 23.706398 L138.897598 23.706398 L138.897598 20.026398 L139.777603 20.026398 Q141.137604 20.266399 151.297607 20.266399 Q161.457611 20.266399 162.817596 20.026398 L163.697601 20.026398 L163.697601 23.706398 L161.057602 23.706398 Q157.777603 23.7864 156.937607 23.9464 Q156.097595 24.1064 155.537598 24.906399 L155.537598 69.7864 Q156.097595 70.586395 156.937607 70.746399 Q157.777603 70.906395 161.057602 70.986397 L163.697601 70.986397 L163.697601 74.666397 L162.817596 74.666397 Q161.457611 74.426399 151.297607 74.426399 Q141.137604 74.426399 139.777603 74.666397 L138.897598 74.666397 L138.897598 70.986397 L141.537598 70.986397 Q144.817596 70.906395 145.577606 70.746399 Q146.337601 70.586395 147.137604 69.7864 L147.137604 48.1064 L124.337601 48.1064 L124.337601 58.906399 L124.417603 69.7864 Q124.9776 70.586395 125.817604 70.746399 Q126.6576 70.906395 129.937607 70.986397 L132.577606 70.986397 L132.577606 74.666397 L131.697601 74.666397 Q130.337601 74.426399 120.177605 74.426399 Q110.017601 74.426399 108.6576 74.666397 L107.777603 74.666397 L107.777603 70.986397 L110.417603 70.986397 Q113.697601 70.906395 114.457603 70.746399 Q115.217606 70.586395 116.017601 69.7864 L116.017601 24.906399 L116.017601 24.906399 Z" fill="rgba(0,0,0,1)" fill-rule="evenodd" stroke="none"/><path d="M171.769608 74.682396 Q173.113602 74.682396 174.037598 75.6064 Q174.961609 76.530396 174.961609 77.930397 Q174.961609 79.218399 174.009598 80.114395 Q173.057602 81.010399 171.881607 81.010399 L171.489609 81.010399 L171.657608 81.290398 Q172.497604 83.082397 174.233597 84.2584 Q175.969604 85.434395 178.321609 85.434395 Q182.297607 85.434395 184.0336 82.074394 Q185.097595 80.002396 185.097595 74.906395 Q185.097595 69.138397 183.585602 67.122398 Q182.129608 65.274399 180.001602 65.274399 Q175.633606 65.274399 173.3936 69.082397 Q173.169601 69.474396 172.973602 69.558395 Q172.777603 69.642395 172.161606 69.642395 Q171.20961 69.642395 171.09761 69.306396 Q170.985596 69.082397 170.985596 59.506393 Q170.985596 57.826397 170.957611 55.530396 Q170.929596 53.234398 170.929596 52.618397 Q170.929596 49.482395 171.26561 49.482395 Q171.377609 49.370396 171.489609 49.370396 L172.497604 49.706394 Q176.137604 51.162395 179.945602 51.162395 Q183.9216 51.162395 187.5616 49.594395 Q188.009598 49.370396 188.289612 49.370396 Q188.73761 49.370396 188.73761 50.378395 L188.73761 51.106396 Q184.201599 56.538399 177.257599 56.538399 Q175.521606 56.538399 174.121597 56.202396 L173.5616 56.090397 L173.5616 65.722397 Q176.753601 63.146397 180.113602 63.146397 Q181.177597 63.146397 182.409607 63.426399 Q186.161606 64.378395 188.541595 67.682396 Q190.9216 70.986397 190.9216 75.4104 Q190.9216 80.506393 187.365601 84.2024 Q183.809601 87.898399 178.601608 87.898399 Q175.073608 87.898399 172.609604 85.9384 Q171.545609 85.266396 170.761597 84.090401 Q168.577606 81.458397 168.577606 78.042397 Q168.577606 76.474396 169.473602 75.5784 Q170.369598 74.682396 171.769608 74.682396 L171.769608 74.682396 Z" fill="rgba(0,0,0,1)" fill-rule="evenodd" stroke="none"/><path d="M200.497604 54.666397 Q200.497604 53.626396 201.617599 53.066399 L248.097595 53.066399 Q249.297607 53.706398 249.297607 54.666397 Q249.297607 55.626396 248.097595 56.266396 L201.617599 56.266396 Q200.497604 55.706398 200.497604 54.666397 L200.497604 54.666397 Z" fill="rgba(0,0,0,1)" fill-rule="evenodd" stroke="none"/><path d="M308.799988 54.1064 L309.279999 54.586395 L309.279999 55.7864 Q308.880005 62.986397 304.559998 68.506393 Q300.23999 74.026398 293.440002 75.7864 Q291.119995 76.346397 288.23999 76.346397 Q285.279999 76.346397 283.200012 75.866394 Q274.23999 74.1064 268.119995 67.386398 Q262 60.666397 260.559998 50.746399 Q260.480011 50.026398 260.480011 47.306396 Q260.480011 44.666397 260.559998 43.866398 Q261.920013 34.1064 268.079987 27.346397 Q274.23999 20.586399 283.200012 18.746399 Q285.76001 18.266399 287.279999 18.266399 Q287.440002 18.266399 287.920013 18.306396 Q288.399994 18.346397 288.640015 18.346397 Q290.559998 18.346397 291.359985 18.506397 Q297.200012 19.546398 301.519989 23.7864 L302.559998 24.746399 L304.959991 21.6264 Q307.119995 18.666397 307.440002 18.346397 Q307.519989 18.346397 307.76001 18.306396 Q308 18.266399 308.23999 18.266399 Q308.799988 18.266399 309.279999 18.746399 L309.279999 41.146397 L308.799988 41.626396 L306.079987 41.626396 Q305.600006 41.146397 305.519989 40.266399 Q304.799988 33.706398 301.679993 28.906399 Q298.559998 24.1064 294.079987 22.586399 Q292.559998 22.026398 290.079987 22.026398 Q281.76001 22.026398 276.160004 27.6264 Q269.839996 33.9464 269.839996 47.306396 Q269.839996 56.986397 272.880005 62.586395 Q275.359985 67.306396 279.959991 70.026398 Q284.559998 72.746399 290.23999 72.746399 Q296.079987 72.746399 300.399994 68.546394 Q304.720001 64.346397 305.679993 58.666397 Q306.079987 56.666397 306.079987 55.146397 Q306.079987 54.586395 306.559998 54.1064 L308.799988 54.1064 L308.799988 54.1064 Z" fill="rgba(0,0,0,1)" fill-rule="evenodd" stroke="none"/><path d="M324.017578 24.906399 Q323.21759 24.1064 322.457581 23.9464 Q321.697601 23.7864 318.417603 23.706398 L315.777588 23.706398 L315.777588 20.026398 L316.657593 20.026398 Q318.017578 20.266399 328.177582 20.266399 Q338.337585 20.266399 339.697601 20.026398 L340.577576 20.026398 L340.577576 23.706398 L337.937592 23.706398 Q334.657593 23.7864 333.817596 23.9464 Q332.9776 24.1064 332.417603 24.906399 L332.337585 34.666397 L332.337585 44.426399 L355.137573 44.426399 L355.137573 24.906399 Q354.337585 24.1064 353.577576 23.9464 Q352.817596 23.7864 349.537598 23.706398 L346.897583 23.706398 L346.897583 20.026398 L347.777588 20.026398 Q349.137573 20.266399 359.297577 20.266399 Q369.457581 20.266399 370.817596 20.026398 L371.697571 20.026398 L371.697571 23.706398 L369.057587 23.706398 Q365.777588 23.7864 364.937592 23.9464 Q364.097595 24.1064 363.537598 24.906399 L363.537598 69.7864 Q364.097595 70.586395 364.937592 70.746399 Q365.777588 70.906395 369.057587 70.986397 L371.697571 70.986397 L371.697571 74.666397 L370.817596 74.666397 Q369.457581 74.426399 359.297577 74.426399 Q349.137573 74.426399 347.777588 74.666397 L346.897583 74.666397 L346.897583 70.986397 L349.537598 70.986397 Q352.817596 70.906395 353.577576 70.746399 Q354.337585 70.586395 355.137573 69.7864 L355.137573 48.1064 L332.337585 48.1064 L332.337585 58.906399 L332.417603 69.7864 Q332.9776 70.586395 333.817596 70.746399 Q334.657593 70.906395 337.937592 70.986397 L340.577576 70.986397 L340.577576 74.666397 L339.697601 74.666397 Q338.337585 74.426399 328.177582 74.426399 Q318.017578 74.426399 316.657593 74.666397 L315.777588 74.666397 L315.777588 70.986397 L318.417603 70.986397 Q321.697601 70.906395 322.457581 70.746399 Q323.21759 70.586395 324.017578 69.7864 L324.017578 24.906399 L324.017578 24.906399 Z" fill="rgba(0,0,0,1)" fill-rule="evenodd" stroke="none"/><path d="M431.537598 47.386398 Q431.537598 59.466396 423.697571 67.946396 Q415.857574 76.426399 404.817596 76.426399 Q402.737579 76.426399 400.897583 76.1064 Q392.417603 74.746399 386.297577 68.306396 Q380.177582 61.866398 378.657593 52.826397 Q378.257599 50.826397 378.257599 47.4664 Q378.257599 36.666397 384.817596 28.186398 Q387.297577 25.306396 389.057587 24.026398 Q395.057587 19.066399 402.737579 18.346397 Q403.457581 18.266399 404.817596 18.266399 Q413.537598 18.266399 420.737579 24.026398 Q422.497589 25.386398 424.897583 28.186398 Q430.177582 34.746399 431.377594 44.026398 Q431.537598 45.4664 431.537598 47.386398 L431.537598 47.386398 Z M411.137573 22.906399 Q407.857574 21.4664 404.817596 21.4664 Q401.617584 21.4664 398.657593 22.906399 Q394.417603 24.986397 391.657593 29.266399 Q388.897583 33.546398 388.097595 39.546398 Q387.697601 41.786396 387.697601 46.346397 Q387.697601 63.226398 395.937592 69.7864 Q399.857574 73.066399 404.897583 73.066399 Q406.657593 73.066399 407.137573 72.986397 Q412.577576 71.866394 416.737579 66.746399 Q422.017578 59.706398 422.017578 46.346397 Q422.017578 41.786396 421.617584 39.546398 Q419.937592 27.306396 411.137573 22.906399 L411.137573 22.906399 Z" fill="rgba(0,0,0,1)" fill-rule="evenodd" stroke="none"/></svg>