<svg xmlns="http://www.w3.org/2000/svg" viewBox="0 0 989.967004 126.54224" width="989.967004" height="126.54224"><path d="M27.119999 72.827042 Q27.6 73.307037 27.6 73.867035 Q27.6 80.987038 32.200001 85.027039 Q36.799999 89.067039 44.400002 89.067039 Q47.519997 89.067039 49.84 86.987038 Q53.599998 83.867035 53.599998 78.587036 Q53.599998 75.147041 51.799999 72.307037 Q50 69.467041 47.199997 68.507034 Q35.200001 65.547043 35.119999 65.467041 Q30.48 63.867039 27.440001 59.827038 Q24.4 55.787037 24.4 50.42704 Q24.4 45.627037 26.879999 41.867039 Q29.360001 38.10704 33.040001 36.26704 Q36.239998 34.667038 39.439999 34.667038 Q45.760002 34.667038 49.68 37.387039 Q50.879997 38.187038 52.399998 39.707039 L54.079998 37.227039 Q54.48 36.667038 54.919998 36.027039 Q55.360001 35.387039 55.68 34.987038 L55.919998 34.667038 Q56 34.667038 56.239998 34.627037 Q56.48 34.58704 56.719997 34.58704 Q57.279999 34.58704 57.759998 35.067039 L57.759998 54.027039 L57.279999 54.507038 L55.84 54.507038 Q54.959999 54.507038 54.799999 54.26704 Q54.639999 54.027039 54.399998 52.667038 Q53.040001 42.58704 46.32 39.307037 Q43.360001 38.027039 40.32 38.027039 Q36.16 38.027039 33.48 40.707039 Q30.799999 43.387039 30.799999 47.627037 Q30.799999 50.347038 32.16 52.627037 Q33.52 54.90704 36 56.187038 Q36.799999 56.58704 43.519997 58.187038 Q49.199997 59.707039 49.599998 59.867039 Q54.16 61.627037 57.079998 65.827042 Q60 70.027039 60 75.707039 Q60 82.267036 56.399998 86.787041 Q52.799999 91.307037 46.959999 92.507034 Q46.16 92.667038 44.080002 92.667038 Q35.599998 92.667038 30.32 88.027039 Q29.92 87.627037 29.76 87.707039 Q29.439999 88.10704 28.559999 89.347038 Q27.68 90.587036 26.959999 91.587036 Q26.24 92.587036 26.24 92.667038 Q26.08 92.74704 25.440001 92.74704 Q24.880001 92.74704 24.4 92.267036 L24.4 82.907036 Q24.4 73.387039 24.48 73.227036 Q24.639999 72.827042 26.08 72.827042 L27.119999 72.827042 L27.119999 72.827042 Z" fill="rgba(0,0,0,1)" fill-rule="evenodd" stroke="none"/><path d="M122.204803 63.707039 Q122.204803 75.787041 114.364799 84.267036 Q106.524796 92.74704 95.484802 92.74704 Q93.4048 92.74704 91.564804 92.42704 Q83.084801 91.067039 76.964798 84.627037 Q70.844803 78.187042 69.324799 69.147034 Q68.924805 67.147034 68.924805 63.787041 Q68.924805 52.987038 75.484802 44.507038 Q77.964798 41.627037 79.7248 40.347038 Q85.7248 35.387039 93.4048 34.667038 Q94.124802 34.58704 95.484802 34.58704 Q104.204803 34.58704 111.4048 40.347038 Q113.164795 41.707039 115.564804 44.507038 Q120.844803 51.067039 122.0448 60.347038 Q122.204803 61.787041 122.204803 63.707039 L122.204803 63.707039 Z M101.804802 39.227039 Q98.524796 37.787041 95.484802 37.787041 Q92.284805 37.787041 89.324799 39.227039 Q85.084801 41.307037 82.324799 45.58704 Q79.564804 49.867039 78.764801 55.867039 Q78.364799 58.107037 78.364799 62.667038 Q78.364799 79.547035 86.604797 86.10704 Q90.524803 89.387039 95.564804 89.387039 Q97.324799 89.387039 97.804802 89.307037 Q103.244797 88.187035 107.4048 83.067039 Q112.684799 76.027039 112.684799 62.667038 Q112.684799 58.107037 112.284805 55.867039 Q110.604797 43.627037 101.804802 39.227039 L101.804802 39.227039 Z" fill="rgba(0,0,0,1)" fill-rule="evenodd" stroke="none"/><path d="M152.5392 102.987038 Q151.755203 102.819038 145.315201 102.819038 Q138.5952 102.819038 137.811203 102.987038 L137.307205 102.987038 L137.307205 100.411041 L139.043198 100.411041 Q141.451202 100.355042 142.0112 100.131035 Q142.459198 100.019035 142.683197 99.571037 Q142.739197 99.459038 142.739197 96.547035 L142.739197 93.74704 L128.235199 93.74704 L128.235199 91.171036 L136.691193 78.235039 Q145.259201 65.243042 145.371201 65.187035 Q145.4832 65.075035 146.547195 65.075035 L147.555206 65.075035 L147.891205 65.411041 L147.891205 91.171036 L153.043198 91.171036 L153.043198 93.74704 L147.891205 93.74704 L147.891205 96.603035 Q147.891205 98.89904 147.919205 99.291039 Q147.947205 99.683037 148.227203 99.963036 Q148.675201 100.355042 151.419205 100.411041 L153.043198 100.411041 L153.043198 102.987038 L152.5392 102.987038 L152.5392 102.987038 Z M143.075195 91.171036 L143.075195 72.467041 L130.811203 91.115036 L136.915192 91.171036 L143.075195 91.171036 L143.075195 91.171036 Z" fill="rgba(0,0,0,1)" fill-rule="evenodd" stroke="none"/><path d="M160.827209 32.064636 Q159.259201 32.064636 158.363205 31.056637 Q157.467209 30.048637 157.467209 28.592638 Q157.467209 24.560637 160.519211 21.676636 Q163.571213 18.792637 167.827209 18.792637 Q172.643204 18.792637 175.807205 21.396637 Q178.971207 24.000637 179.699203 28.200638 Q179.811203 29.208637 179.811203 30.048637 Q179.811203 33.296638 177.851212 36.152637 Q176.283203 38.504639 171.523209 42.592636 Q169.507202 44.328636 165.923203 47.744637 L162.619202 50.880638 L166.875214 50.936638 Q175.667206 50.936638 176.227203 50.656639 Q176.451202 50.600639 176.787201 49.480637 Q177.0112 48.864639 177.571213 45.672638 L177.571213 45.504639 L179.811203 45.504639 L179.811203 45.672638 L178.24321 55.920639 L178.24321 56.088638 L157.467209 56.088638 L157.467209 55.024639 Q157.467209 53.90464 157.579208 53.736637 Q157.635208 53.624638 162.283203 48.416637 Q168.387207 41.640636 170.123199 39.456638 Q173.875214 34.360638 173.875214 30.104637 Q173.875214 26.408638 171.943207 23.916637 Q170.0112 21.424637 166.5392 21.424637 Q163.291199 21.424637 161.275208 24.336637 Q161.163208 24.560637 160.939209 24.952637 Q160.77121 25.232637 160.77121 25.288637 Q160.77121 25.344637 161.051208 25.344637 Q162.451202 25.344637 163.319214 26.352638 Q164.18721 27.360638 164.18721 28.704638 Q164.18721 30.104637 163.263214 31.084637 Q162.339203 32.064636 160.827209 32.064636 L160.827209 32.064636 Z" fill="rgba(0,0,0,1)" fill-rule="evenodd" stroke="none"/><path d="M187.371201 42.088638 Q187.371201 41.360638 188.155212 40.968636 L220.691208 40.968636 Q221.531204 41.416637 221.531204 42.088638 Q221.531204 42.760639 220.691208 43.208637 L188.155212 43.208637 Q187.371201 42.816639 187.371201 42.088638 L187.371201 42.088638 Z" fill="rgba(0,0,0,1)" fill-rule="evenodd" stroke="none"/><path d="M248.480652 70.987038 Q248.480652 69.947037 249.600662 69.387039 L273.52066 69.387039 L273.52066 57.387039 L273.600647 45.387039 Q274.400665 44.347038 275.120667 44.347038 Q276.160645 44.347038 276.720642 45.547039 L276.720642 69.387039 L300.560669 69.387039 Q301.760651 70.027039 301.760651 70.987038 Q301.760651 71.947037 300.560669 72.587036 L276.720642 72.587036 L276.720642 96.42704 Q276.160645 97.547035 275.120667 97.547035 Q274.080658 97.547035 273.52066 96.42704 L273.52066 72.587036 L249.600662 72.587036 Q248.480652 72.027039 248.480652 70.987038 L248.480652 70.987038 Z" fill="rgba(0,0,0,1)" fill-rule="evenodd" stroke="none"/><path d="M334.480835 41.227039 Q333.680817 40.42704 332.920837 40.26704 Q332.160828 40.10704 328.880829 40.027039 L326.240814 40.027039 L326.240814 36.347038 L342.320831 36.347038 Q358.400818 36.42704 359.440826 36.58704 Q363.760834 37.307037 366.480835 38.90704 Q371.120819 41.547039 372.960815 45.627037 Q373.920837 47.787037 373.920837 50.027039 Q373.920837 54.107037 370.640808 57.507038 Q367.36084 60.907036 362.080811 62.187038 L361.280823 62.42704 Q366.880829 63.067039 370.920837 66.187042 Q374.960815 69.307037 376.000824 74.10704 Q376.080811 74.587036 376.080811 76.027039 Q376.080811 77.867035 375.920837 78.507034 Q374.880829 83.227036 370.960815 86.587036 Q367.040833 89.947037 361.520813 90.74704 Q360.480835 90.907036 343.360809 90.987038 L326.240814 90.987038 L326.240814 87.307037 L328.880829 87.307037 Q332.160828 87.227036 332.920837 87.067039 Q333.680817 86.907036 334.480835 86.10704 L334.480835 41.227039 L334.480835 41.227039 Z M364.880829 49.947037 Q364.880829 46.187038 362.760834 43.467037 Q360.640808 40.74704 357.280823 40.10704 Q357.200836 40.10704 356.200836 40.10704 Q355.200836 40.10704 353.640808 40.067039 Q352.080811 40.027039 350.640808 40.027039 Q349.200836 40.027039 347.640808 40.067039 Q346.080811 40.10704 345.040833 40.10704 Q344.000824 40.10704 343.84082 40.10704 Q342.800812 40.187038 342.560822 40.74704 Q342.320831 41.067039 342.320831 51.067039 L342.320831 61.067039 L348.960815 61.067039 L355.680817 60.987038 L356.480835 60.827038 Q356.720825 60.74704 357.280823 60.587036 L357.760834 60.42704 Q360.880829 59.307037 362.880829 56.547039 Q364.880829 53.787037 364.880829 49.947037 L364.880829 49.947037 Z M366.960815 75.947037 Q366.960815 71.387039 364.560822 68.187042 Q362.160828 64.987038 358.400818 64.10704 L350.320831 64.027039 L342.320831 64.027039 L342.320831 74.987038 Q342.320831 86.10704 342.400818 86.267036 Q342.560822 86.587036 342.720825 86.827042 Q343.200836 87.227036 350.720825 87.227036 L354.640808 87.227036 Q358.000824 87.227036 359.440826 86.74704 Q362.880829 85.627037 364.920837 82.667038 Q366.960815 79.707039 366.960815 75.947037 L366.960815 75.947037 Z" fill="rgba(0,0,0,1)" fill-rule="evenodd" stroke="none"/><path d="M389.948029 66.587036 Q388.108032 66.587036 386.90802 65.307037 Q385.708038 64.027039 385.708038 62.267036 Q385.708038 61.147038 386.348022 59.707039 Q387.388031 57.547039 390.508026 56.347038 Q393.628021 55.147038 398.108032 55.147038 Q403.388031 55.147038 407.268036 57.547039 Q411.148041 59.947037 412.348022 63.787041 Q412.748016 64.907036 412.788025 66.307037 Q412.828033 67.707039 412.828033 75.467041 Q412.828033 83.307037 412.868042 84.627037 Q412.90802 85.947037 413.308044 86.667038 Q413.788025 87.787041 414.90802 87.787041 Q415.948029 87.787041 416.42804 86.667038 Q416.90802 85.707039 416.90802 82.267036 L416.90802 79.387039 L420.108032 79.387039 L420.108032 82.507034 Q420.028015 85.707039 419.868042 86.267036 Q419.148041 88.507034 417.228027 89.987038 Q415.308044 91.467041 412.66803 91.467041 Q410.66803 91.467041 409.108032 90.067039 Q407.548035 88.667038 406.988037 86.667038 L406.988037 86.347038 Q406.748016 86.587036 406.028015 87.42704 Q405.308044 88.267036 404.988037 88.587036 Q401.068024 91.867035 395.868042 91.867035 Q391.708038 91.867035 388.42804 90.10704 Q385.148041 88.347038 384.028015 85.467041 Q383.388031 83.947037 383.388031 82.42704 Q383.388031 78.667038 386.508026 75.547035 Q388.348022 73.707039 391.068024 72.507034 Q396.508026 70.027039 404.988037 69.547043 L406.108032 69.547043 L406.108032 67.787041 Q406.108032 65.067039 405.628021 63.787041 Q404.828033 61.147038 402.828033 59.627037 Q400.828033 58.107037 397.868042 58.107037 Q392.508026 58.107037 392.508026 58.74704 Q394.268036 59.947037 394.268036 62.267036 Q394.268036 64.027039 393.028015 65.307037 Q391.788025 66.587036 389.948029 66.587036 L389.948029 66.587036 Z M406.108032 76.987038 Q406.108032 72.347038 406.028015 72.347038 Q405.788025 72.347038 405.628021 72.42704 Q394.66803 73.147034 391.628021 78.907036 Q390.748016 80.507034 390.748016 82.507034 Q390.748016 85.227036 392.66803 87.067039 Q394.588043 88.907036 397.388031 88.907036 Q400.588043 88.907036 402.868042 86.987038 Q405.148041 85.067039 405.868042 82.267036 Q406.028015 81.707039 406.108032 76.987038 L406.108032 76.987038 Z" fill="rgba(0,0,0,1)" fill-rule="evenodd" stroke="none"/><path d="M426.828033 32.064636 Q425.26004 32.064636 424.364044 31.056637 Q423.468018 30.048637 423.468018 28.592638 Q423.468018 24.560637 426.52002 21.676636 Q429.572021 18.792637 433.828033 18.792637 Q438.644043 18.792637 441.808044 21.396637 Q444.972046 24.000637 445.700043 28.200638 Q445.812042 29.208637 445.812042 30.048637 Q445.812042 33.296638 443.85202 36.152637 Q442.284027 38.504639 437.524017 42.592636 Q435.508026 44.328636 431.924042 47.744637 L428.620026 50.880638 L432.876038 50.936638 Q441.66803 50.936638 442.228027 50.656639 Q442.452026 50.600639 442.788025 49.480637 Q443.012024 48.864639 443.572021 45.672638 L443.572021 45.504639 L445.812042 45.504639 L445.812042 45.672638 L444.244019 55.920639 L444.244019 56.088638 L423.468018 56.088638 L423.468018 55.024639 Q423.468018 53.90464 423.580017 53.736637 Q423.636017 53.624638 428.284027 48.416637 Q434.388031 41.640636 436.124023 39.456638 Q439.876038 34.360638 439.876038 30.104637 Q439.876038 26.408638 437.944031 23.916637 Q436.012024 21.424637 432.540039 21.424637 Q429.292023 21.424637 427.276031 24.336637 Q427.164032 24.560637 426.940033 24.952637 Q426.772034 25.232637 426.772034 25.288637 Q426.772034 25.344637 427.052032 25.344637 Q428.452026 25.344637 429.320038 26.352638 Q430.188019 27.360638 430.188019 28.704638 Q430.188019 30.104637 429.264038 31.084637 Q428.340027 32.064636 426.828033 32.064636 L426.828033 32.064636 Z" fill="rgba(0,0,0,1)" fill-rule="evenodd" stroke="none"/><path d="M451.804016 42.088638 Q451.804016 41.360638 452.588043 40.968636 L469.332031 40.968636 L469.332031 32.568638 L469.388031 24.168638 Q469.948029 23.440636 470.452026 23.440636 Q471.180023 23.440636 471.572021 24.280638 L471.572021 40.968636 L488.26004 40.968636 Q489.100037 41.416637 489.100037 42.088638 Q489.100037 42.760639 488.26004 43.208637 L471.572021 43.208637 L471.572021 59.896637 Q471.180023 60.680637 470.452026 60.680637 Q469.72403 60.680637 469.332031 59.896637 L469.332031 43.208637 L452.588043 43.208637 Q451.804016 42.816639 451.804016 42.088638 L451.804016 42.088638 Z" fill="rgba(0,0,0,1)" fill-rule="evenodd" stroke="none"/><path d="M514.445938 72.58704 L623.245938 72.58704 L622.546377 73.123476 L621.866703 73.673774 L621.206928 74.237925 L620.567063 74.815915 L619.947119 75.407733 L619.34711 76.013368 L618.767045 76.632808 L618.206938 77.26604 L617.666799 77.913054 L617.146641 78.573837 L616.646475 79.248378 L616.166313 79.936665 L615.706166 80.638686 L615.266047 81.354431 L614.845967 82.083886 L614.445938 82.82704 L614.200782 83.306757 L613.966313 83.785899 L613.742532 84.264456 L613.529438 84.742415 L613.327032 85.219765 L613.135313 85.696493 L612.954282 86.172589 L612.783938 86.64804 L612.624282 87.122835 L612.475313 87.596962 L612.337032 88.070409 L612.209438 88.543165 L612.092532 89.015218 L611.986313 89.486556 L611.890782 89.957167 L611.805938 90.42704 L611.805752 90.44663 L611.805203 90.466384 L611.804303 90.486278 L611.803063 90.50629 L611.801494 90.526395 L611.79961 90.546571 L611.79742 90.566794 L611.794938 90.58704 L611.792174 90.607286 L611.789141 90.627509 L611.78585 90.647685 L611.782313 90.66779 L611.778541 90.687802 L611.774547 90.707696 L611.770342 90.72745 L611.765938 90.74704 L611.761533 90.766259 L611.757328 90.784915 L611.753334 90.803009 L611.749563 90.82054 L611.746026 90.837509 L611.742735 90.853915 L611.739701 90.869759 L611.736938 90.88504 L611.734455 90.899759 L611.732266 90.913915 L611.730381 90.927509 L611.728813 90.94054 L611.727573 90.953009 L611.726672 90.964915 L611.726123 90.976259 L611.725938 90.98704 L611.732217 91.093163 L611.751047 91.192524 L611.782416 91.285112 L611.826313 91.370915 L611.882725 91.449921 L611.951641 91.522118 L612.033049 91.587495 L612.126938 91.64604 L612.233295 91.697741 L612.35211 91.742587 L612.483369 91.780565 L612.627063 91.811665 L612.783178 91.835874 L612.951703 91.853181 L613.132627 91.863573 L613.325938 91.86704 L613.443311 91.866288 L613.555422 91.864024 L613.66226 91.860237 L613.763813 91.854915 L613.860069 91.848046 L613.951016 91.839618 L614.036643 91.82962 L614.116938 91.81804 L614.191889 91.804866 L614.261485 91.790087 L614.325713 91.77369 L614.384563 91.755665 L614.438022 91.735999 L614.486078 91.714681 L614.528721 91.691698 L614.565938 91.66704 L614.600059 91.639569 L614.633407 91.608149 L614.665957 91.572769 L614.697688 91.533415 L614.728574 91.490077 L614.758594 91.442743 L614.787723 91.391401 L614.815938 91.33604 L614.843215 91.276647 L614.869532 91.213212 L614.894864 91.145722 L614.919188 91.074165 L614.942481 90.99853 L614.964719 90.918806 L614.985879 90.834979 L615.005938 90.74704 L615.03753 90.547167 L615.072297 90.346556 L615.110229 90.145218 L615.151313 89.943165 L615.195537 89.740409 L615.242891 89.536962 L615.293362 89.332835 L615.346938 89.12804 L615.403608 88.922589 L615.46336 88.716493 L615.526182 88.509765 L615.592063 88.302415 L615.660991 88.094456 L615.732953 87.885899 L615.80794 87.676757 L615.885938 87.46704 L616.11544 86.801132 L616.362953 86.144399 L616.628491 85.496831 L616.912063 84.858415 L617.213682 84.22914 L617.53336 83.608993 L617.871108 82.997964 L618.226938 82.39604 L618.600862 81.80321 L618.992891 81.219462 L619.403037 80.644784 L619.831313 80.079165 L620.277729 79.522593 L620.742297 78.975056 L621.22503 78.436542 L621.725938 77.90704 L621.793037 77.852655 L621.98636 77.697712 L622.29394 77.454526 L622.703813 77.135415 L623.204014 76.752694 L623.782578 76.318681 L624.427541 75.84569 L625.126938 75.34604 L625.868803 74.832046 L626.641172 74.316024 L627.43208 73.810292 L628.229563 73.327165 L629.021655 72.87896 L629.796391 72.477993 L630.541807 72.136581 L631.245938 71.86704 L631.333125 71.835448 L631.414688 71.800681 L631.490625 71.762749 L631.560938 71.721665 L631.625625 71.67744 L631.684688 71.630087 L631.738125 71.579616 L631.785938 71.52604 L631.828125 71.46937 L631.864688 71.409618 L631.895625 71.346796 L631.920938 71.280915 L631.940625 71.211987 L631.954688 71.140024 L631.963125 71.065038 L631.965938 70.98704 L631.963125 70.978915 L631.954688 70.95579 L631.940625 70.91954 L631.920938 70.87204 L631.895625 70.815165 L631.864688 70.75079 L631.828125 70.68079 L631.785938 70.60704 L631.738125 70.531415 L631.684688 70.45579 L631.625625 70.38204 L631.560938 70.31204 L631.490625 70.247665 L631.414688 70.19079 L631.333125 70.14329 L631.245938 70.10704 L630.57169 69.868261 L629.907953 69.610931 L629.254741 69.335061 L628.612063 69.040665 L627.979932 68.727753 L627.35836 68.396337 L626.747358 68.046429 L626.146938 67.67804 L625.557112 67.291183 L624.977891 66.885868 L624.409287 66.462108 L623.851313 66.019915 L623.303979 65.5593 L622.767297 65.080274 L622.24128 64.582851 L621.725938 64.06704 L621.673272 63.998964 L621.523235 63.802931 L621.287768 63.491233 L620.978813 63.076165 L620.608311 62.570019 L620.188203 61.985087 L619.730432 61.333663 L619.246938 60.62804 L618.749662 59.880511 L618.250547 59.103368 L617.761533 58.308905 L617.294563 57.509415 L616.861576 56.71719 L616.474516 55.944524 L616.145323 55.20371 L615.885938 54.50704 L615.816465 54.297694 L615.749032 54.089649 L615.683614 53.882894 L615.620188 53.677415 L615.558731 53.473202 L615.499219 53.270243 L615.441629 53.068526 L615.385938 52.86804 L615.332121 52.668772 L615.280157 52.470712 L615.23002 52.273847 L615.181688 52.078165 L615.135137 51.883655 L615.090344 51.690306 L615.047285 51.498104 L615.005938 51.30704 L614.985879 51.208974 L614.964719 51.115759 L614.942481 51.027372 L614.919188 50.94379 L614.894864 50.864989 L614.869532 50.790946 L614.843215 50.721638 L614.815938 50.65704 L614.787723 50.59713 L614.758594 50.541884 L614.728574 50.491278 L614.697688 50.44529 L614.665957 50.403895 L614.633407 50.367071 L614.600059 50.334794 L614.565938 50.30704 L614.528721 50.282382 L614.486078 50.259399 L614.438022 50.238081 L614.384563 50.218415 L614.325713 50.20039 L614.261485 50.183993 L614.191889 50.169214 L614.116938 50.15604 L614.036643 50.14446 L613.951016 50.134462 L613.860069 50.126034 L613.763813 50.119165 L613.66226 50.113843 L613.555422 50.110056 L613.443311 50.107792 L613.325938 50.10704 L613.1225 50.110507 L612.932188 50.120899 L612.755 50.138206 L612.590938 50.162415 L612.44 50.193515 L612.302188 50.231493 L612.1775 50.276339 L612.065938 50.32804 L611.9675 50.386585 L611.882188 50.451962 L611.81 50.524159 L611.750938 50.603165 L611.705 50.688968 L611.672188 50.781556 L611.6525 50.880917 L611.645938 50.98704 L611.647813 51.022948 L611.653438 51.070681 L611.662813 51.130249 L611.675938 51.201665 L611.692813 51.28494 L611.713438 51.380087 L611.737813 51.487116 L611.765938 51.60604 L611.797813 51.73687 L611.833438 51.879618 L611.872813 52.034296 L611.915938 52.200915 L611.962813 52.379487 L612.013438 52.570024 L612.067813 52.772538 L612.125938 52.98704 L612.46044 54.222567 L612.842953 55.430134 L613.273491 56.609716 L613.752063 57.76129 L614.278682 58.884833 L614.85336 59.980321 L615.476108 61.047731 L616.146938 62.08704 L616.865862 63.098224 L617.632891 64.081259 L618.448037 65.036122 L619.311313 65.96279 L620.222729 66.861239 L621.182297 67.731446 L622.19003 68.573388 L623.245938 69.38704 L514.445938 69.38704" fill="rgba(0,0,0,1)" fill-rule="nonzero" stroke="none"/><path d="M514.445938 72.58704 L623.965938 72.58704 L623.965938 69.38704 L514.445938 69.38704" fill="rgba(0,0,0,1)" fill-rule="nonzero" stroke="none"/><path d="M664.668152 41.227039 Q663.868164 40.42704 663.108154 40.26704 Q662.348145 40.10704 659.068176 40.027039 L656.428162 40.027039 L656.428162 36.347038 L672.508179 36.347038 Q688.588196 36.42704 689.628174 36.58704 Q693.948181 37.307037 696.668152 38.90704 Q701.308167 41.547039 703.148193 45.627037 Q704.108154 47.787037 704.108154 50.027039 Q704.108154 54.107037 700.828186 57.507038 Q697.548157 60.907036 692.268188 62.187038 L691.46814 62.42704 Q697.068176 63.067039 701.108154 66.187042 Q705.148193 69.307037 706.188171 74.10704 Q706.268188 74.587036 706.268188 76.027039 Q706.268188 77.867035 706.108154 78.507034 Q705.068176 83.227036 701.148193 86.587036 Q697.228149 89.947037 691.708191 90.74704 Q690.668152 90.907036 673.548157 90.987038 L656.428162 90.987038 L656.428162 87.307037 L659.068176 87.307037 Q662.348145 87.227036 663.108154 87.067039 Q663.868164 86.907036 664.668152 86.10704 L664.668152 41.227039 L664.668152 41.227039 Z M695.068176 49.947037 Q695.068176 46.187038 692.948181 43.467037 Q690.828186 40.74704 687.46814 40.10704 Q687.388184 40.10704 686.388184 40.10704 Q685.388184 40.10704 683.828186 40.067039 Q682.268188 40.027039 680.828186 40.027039 Q679.388184 40.027039 677.828186 40.067039 Q676.268188 40.10704 675.228149 40.10704 Q674.188171 40.10704 674.028198 40.10704 Q672.988159 40.187038 672.748169 40.74704 Q672.508179 41.067039 672.508179 51.067039 L672.508179 61.067039 L679.148193 61.067039 L685.868164 60.987038 L686.668152 60.827038 Q686.908142 60.74704 687.46814 60.587036 L687.948181 60.42704 Q691.068176 59.307037 693.068176 56.547039 Q695.068176 53.787037 695.068176 49.947037 L695.068176 49.947037 Z M697.148193 75.947037 Q697.148193 71.387039 694.748169 68.187042 Q692.348145 64.987038 688.588196 64.10704 L680.508179 64.027039 L672.508179 64.027039 L672.508179 74.987038 Q672.508179 86.10704 672.588196 86.267036 Q672.748169 86.587036 672.908142 86.827042 Q673.388184 87.227036 680.908142 87.227036 L684.828186 87.227036 Q688.188171 87.227036 689.628174 86.74704 Q693.068176 85.627037 695.108154 82.667038 Q697.148193 79.707039 697.148193 75.947037 L697.148193 75.947037 Z" fill="rgba(0,0,0,1)" fill-rule="evenodd" stroke="none"/><path d="M720.135376 66.587036 Q718.295349 66.587036 717.095337 65.307037 Q715.895325 64.027039 715.895325 62.267036 Q715.895325 61.147038 716.535339 59.707039 Q717.575317 57.547039 720.695374 56.347038 Q723.815369 55.147038 728.295349 55.147038 Q733.575317 55.147038 737.455322 57.547039 Q741.335327 59.947037 742.535339 63.787041 Q742.935364 64.907036 742.975342 66.307037 Q743.01532 67.707039 743.01532 75.467041 Q743.01532 83.307037 743.055359 84.627037 Q743.095337 85.947037 743.495361 86.667038 Q743.975342 87.787041 745.095337 87.787041 Q746.135376 87.787041 746.615356 86.667038 Q747.095337 85.707039 747.095337 82.267036 L747.095337 79.387039 L750.295349 79.387039 L750.295349 82.507034 Q750.215332 85.707039 750.055359 86.267036 Q749.335327 88.507034 747.415344 89.987038 Q745.495361 91.467041 742.855347 91.467041 Q740.855347 91.467041 739.295349 90.067039 Q737.735352 88.667038 737.175354 86.667038 L737.175354 86.347038 Q736.935364 86.587036 736.215332 87.42704 Q735.495361 88.267036 735.175354 88.587036 Q731.255371 91.867035 726.055359 91.867035 Q721.895325 91.867035 718.615356 90.10704 Q715.335327 88.347038 714.215332 85.467041 Q713.575317 83.947037 713.575317 82.42704 Q713.575317 78.667038 716.695374 75.547035 Q718.535339 73.707039 721.255371 72.507034 Q726.695374 70.027039 735.175354 69.547043 L736.295349 69.547043 L736.295349 67.787041 Q736.295349 65.067039 735.815369 63.787041 Q735.01532 61.147038 733.01532 59.627037 Q731.01532 58.107037 728.055359 58.107037 Q722.695374 58.107037 722.695374 58.74704 Q724.455322 59.947037 724.455322 62.267036 Q724.455322 64.027039 723.215332 65.307037 Q721.975342 66.587036 720.135376 66.587036 L720.135376 66.587036 Z M736.295349 76.987038 Q736.295349 72.347038 736.215332 72.347038 Q735.975342 72.347038 735.815369 72.42704 Q724.855347 73.147034 721.815369 78.907036 Q720.935364 80.507034 720.935364 82.507034 Q720.935364 85.227036 722.855347 87.067039 Q724.77533 88.907036 727.575317 88.907036 Q730.77533 88.907036 733.055359 86.987038 Q735.335327 85.067039 736.055359 82.267036 Q736.215332 81.707039 736.295349 76.987038 L736.295349 76.987038 Z" fill="rgba(0,0,0,1)" fill-rule="evenodd" stroke="none"/><path d="M757.975342 72.827042 Q758.455322 73.307037 758.455322 73.867035 Q758.455322 80.987038 763.055359 85.027039 Q767.655334 89.067039 775.255371 89.067039 Q778.375366 89.067039 780.695374 86.987038 Q784.455322 83.867035 784.455322 78.587036 Q784.455322 75.147041 782.655334 72.307037 Q780.855347 69.467041 778.055359 68.507034 Q766.055359 65.547043 765.975342 65.467041 Q761.335327 63.867039 758.295349 59.827038 Q755.255371 55.787037 755.255371 50.42704 Q755.255371 45.627037 757.735352 41.867039 Q760.215332 38.10704 763.895325 36.26704 Q767.095337 34.667038 770.295349 34.667038 Q776.615356 34.667038 780.535339 37.387039 Q781.735352 38.187038 783.255371 39.707039 L784.935364 37.227039 Q785.335327 36.667038 785.77533 36.027039 Q786.215332 35.387039 786.535339 34.987038 L786.77533 34.667038 Q786.855347 34.667038 787.095337 34.627037 Q787.335327 34.58704 787.575317 34.58704 Q788.135376 34.58704 788.615356 35.067039 L788.615356 54.027039 L788.135376 54.507038 L786.695374 54.507038 Q785.815369 54.507038 785.655334 54.26704 Q785.495361 54.027039 785.255371 52.667038 Q783.895325 42.58704 777.175354 39.307037 Q774.215332 38.027039 771.175354 38.027039 Q767.01532 38.027039 764.335327 40.707039 Q761.655334 43.387039 761.655334 47.627037 Q761.655334 50.347038 763.01532 52.627037 Q764.375366 54.90704 766.855347 56.187038 Q767.655334 56.58704 774.375366 58.187038 Q780.055359 59.707039 780.455322 59.867039 Q785.01532 61.627037 787.935364 65.827042 Q790.855347 70.027039 790.855347 75.707039 Q790.855347 82.267036 787.255371 86.787041 Q783.655334 91.307037 777.815369 92.507034 Q777.01532 92.667038 774.935364 92.667038 Q766.455322 92.667038 761.175354 88.027039 Q760.77533 87.627037 760.615356 87.707039 Q760.295349 88.10704 759.415344 89.347038 Q758.535339 90.587036 757.815369 91.587036 Q757.095337 92.587036 757.095337 92.667038 Q756.935364 92.74704 756.295349 92.74704 Q755.735352 92.74704 755.255371 92.267036 L755.255371 82.907036 Q755.255371 73.387039 755.335327 73.227036 Q755.495361 72.827042 756.935364 72.827042 L757.975342 72.827042 L757.975342 72.827042 Z" fill="rgba(0,0,0,1)" fill-rule="evenodd" stroke="none"/><path d="M853.060181 63.707039 Q853.060181 75.787041 845.220154 84.267036 Q837.380188 92.74704 826.340149 92.74704 Q824.260193 92.74704 822.420166 92.42704 Q813.940186 91.067039 807.82019 84.627037 Q801.700195 78.187042 800.180176 69.147034 Q799.780151 67.147034 799.780151 63.787041 Q799.780151 52.987038 806.340149 44.507038 Q808.82019 41.627037 810.5802 40.347038 Q816.5802 35.387039 824.260193 34.667038 Q824.980164 34.58704 826.340149 34.58704 Q835.060181 34.58704 842.260193 40.347038 Q844.020142 41.707039 846.420166 44.507038 Q851.700195 51.067039 852.900146 60.347038 Q853.060181 61.787041 853.060181 63.707039 L853.060181 63.707039 Z M832.660156 39.227039 Q829.380188 37.787041 826.340149 37.787041 Q823.140198 37.787041 820.180176 39.227039 Q815.940186 41.307037 813.180176 45.58704 Q810.420166 49.867039 809.620178 55.867039 Q809.220154 58.107037 809.220154 62.667038 Q809.220154 79.547035 817.460144 86.10704 Q821.380188 89.387039 826.420166 89.387039 Q828.180176 89.387039 828.660156 89.307037 Q834.100159 88.187035 838.260193 83.067039 Q843.540161 76.027039 843.540161 62.667038 Q843.540161 58.107037 843.140198 55.867039 Q841.460144 43.627037 832.660156 39.227039 L832.660156 39.227039 Z" fill="rgba(0,0,0,1)" fill-rule="evenodd" stroke="none"/><path d="M883.394592 102.987038 Q882.610596 102.819038 876.170593 102.819038 Q869.450562 102.819038 868.666565 102.987038 L868.162598 102.987038 L868.162598 100.411041 L869.89856 100.411041 Q872.30658 100.355042 872.866577 100.131035 Q873.314575 100.019035 873.538574 99.571037 Q873.594604 99.459038 873.594604 96.547035 L873.594604 93.74704 L859.090576 93.74704 L859.090576 91.171036 L867.54657 78.235039 Q876.114563 65.243042 876.226562 65.187035 Q876.338562 65.075035 877.402588 65.075035 L878.410583 65.075035 L878.746582 65.411041 L878.746582 91.171036 L883.89856 91.171036 L883.89856 93.74704 L878.746582 93.74704 L878.746582 96.603035 Q878.746582 98.89904 878.774597 99.291039 Q878.802612 99.683037 879.082581 99.963036 Q879.530579 100.355042 882.274597 100.411041 L883.89856 100.411041 L883.89856 102.987038 L883.394592 102.987038 L883.394592 102.987038 Z M873.930603 91.171036 L873.930603 72.467041 L861.666565 91.115036 L867.770569 91.171036 L873.930603 91.171036 L873.930603 91.171036 Z" fill="rgba(0,0,0,1)" fill-rule="evenodd" stroke="none"/><path d="M945.584839 84.10704 Q946.384827 84.10704 946.384827 85.627037 Q946.384827 85.947037 946.384827 86.147041 Q946.384827 86.347038 946.344788 86.507034 Q946.30481 86.667038 946.224792 86.787041 Q946.144836 86.907036 946.144836 86.987038 Q946.144836 87.067039 945.944824 87.147041 Q945.744812 87.227036 945.664795 87.227036 Q945.584839 87.227036 945.30481 87.307037 Q945.02478 87.387039 944.864807 87.467041 Q938.864807 88.987038 934.5448 93.587036 Q930.224792 98.187035 928.864807 104.42704 Q928.864807 104.587036 928.78479 104.867035 Q928.704834 105.147034 928.664795 105.387039 Q928.624817 105.627037 928.624817 105.707039 Q928.384827 106.907036 927.344788 106.347038 Q926.864807 106.267036 926.78479 105.227036 Q925.744812 98.74704 921.264832 93.907036 Q916.78479 89.067039 910.624817 87.467041 Q910.464783 87.387039 910.184814 87.307037 Q909.904785 87.227036 909.824829 87.227036 Q909.744812 87.227036 909.5448 87.147041 Q909.344788 87.067039 909.344788 86.987038 Q909.344788 86.907036 909.264832 86.787041 Q909.184814 86.667038 909.144836 86.507034 Q909.104797 86.347038 909.104797 86.147041 Q909.104797 85.947037 909.104797 85.627037 Q909.104797 84.027039 909.904785 84.027039 Q910.384827 84.027039 911.104797 84.267036 Q920.384827 86.827042 925.584839 94.587036 L926.144836 95.387039 L926.144836 66.027039 Q926.144836 36.667038 926.30481 36.347038 Q926.78479 35.467037 927.824829 35.467037 Q928.78479 35.547039 929.344788 36.667038 L929.344788 95.387039 L929.904785 94.587036 Q933.584839 88.987038 939.904785 85.947037 Q943.744812 84.10704 945.584839 84.10704 L945.584839 84.10704 Z" fill="rgba(0,0,0,1)" fill-rule="evenodd" stroke="none"/></svg>