<svg xmlns="http://www.w3.org/2000/svg" viewBox="0 0 1005.706969 223.79784" width="1005.706969" height="223.79784"><path d="M30.24 67.469208 Q29.439999 66.669205 28.68 66.509201 Q27.92 66.349205 24.639999 66.269203 L22 66.269203 L22 62.589203 L22.879999 62.589203 Q24.24 62.829205 34.400002 62.829205 Q44.559998 62.829205 45.919998 62.589203 L46.799999 62.589203 L46.799999 66.269203 L44.16 66.269203 Q40.879997 66.349205 40.040001 66.509201 Q39.199997 66.669205 38.639999 67.469208 L38.559998 77.229202 L38.559998 86.989204 L61.360001 86.989204 L61.360001 67.469208 Q60.559998 66.669205 59.799999 66.509201 Q59.040001 66.349205 55.759998 66.269203 L53.119999 66.269203 L53.119999 62.589203 L54 62.589203 Q55.360001 62.829205 65.520004 62.829205 Q75.68 62.829205 77.039993 62.589203 L77.919998 62.589203 L77.919998 66.269203 L75.279999 66.269203 Q72 66.349205 71.160004 66.509201 Q70.32 66.669205 69.759995 67.469208 L69.759995 112.349205 Q70.32 113.1492 71.160004 113.309204 Q72 113.4692 75.279999 113.549202 L77.919998 113.549202 L77.919998 117.229202 L77.039993 117.229202 Q75.68 116.989204 65.520004 116.989204 Q55.360001 116.989204 54 117.229202 L53.119999 117.229202 L53.119999 113.549202 L55.759998 113.549202 Q59.040001 113.4692 59.799999 113.309204 Q60.559998 113.1492 61.360001 112.349205 L61.360001 90.669205 L38.559998 90.669205 L38.559998 101.4692 L38.639999 112.349205 Q39.199997 113.1492 40.040001 113.309204 Q40.879997 113.4692 44.16 113.549202 L46.799999 113.549202 L46.799999 117.229202 L45.919998 117.229202 Q44.559998 116.989204 34.400002 116.989204 Q24.24 116.989204 22.879999 117.229202 L22 117.229202 L22 113.549202 L24.639999 113.549202 Q27.92 113.4692 28.68 113.309204 Q29.439999 113.1492 30.24 112.349205 L30.24 67.469208 L30.24 67.469208 Z" fill="rgba(0,0,0,1)" fill-rule="evenodd" stroke="none"/><path d="M106.32 84.509201 Q109.839996 80.989204 114.399994 80.989204 Q116.399994 80.989204 117.599998 82.229202 Q118.800003 83.469208 118.800003 85.549202 Q118.800003 86.829201 118 87.629204 Q117.199997 88.429199 115.919998 88.429199 Q113.360001 88.429199 112.959999 86.029205 Q112.800003 84.909203 113.199997 84.349197 Q113.199997 84.269203 113.279999 84.109207 L113.279999 84.029205 Q112.959999 84.109207 112.559998 84.189201 Q110.639999 84.509201 109.040001 85.7892 Q108.400002 86.189201 108.400002 86.349205 Q108.559998 86.509201 108.720001 86.749207 Q111.360001 90.029205 111.360001 93.869202 Q111.360001 97.1492 109.199997 100.269203 Q105.440002 105.7892 97.760002 105.7892 Q93.919998 105.7892 89.839996 103.549202 Q88.959999 105.1492 88.959999 106.589203 Q88.959999 109.389206 91.040001 110.749199 Q91.760002 111.229202 92.440002 111.269203 Q93.120003 111.309204 98.160004 111.389206 Q104.879997 111.4692 106.800003 111.869202 Q115.839996 113.229202 117.440002 120.829201 Q117.599998 121.4692 117.599998 122.989204 Q117.599998 124.429199 117.440002 124.909203 Q116.32 128.989197 111.279999 131.349197 Q106.239998 133.709198 100 133.709198 Q93.440002 133.709198 88.559998 131.229202 Q83.599998 128.829208 82.480003 124.909203 Q82.32 124.429199 82.32 123.229202 Q82.32 119.949203 84.800003 117.629204 Q86 116.429199 87.360001 115.7892 L88.239998 115.309204 Q85.360001 112.829201 85.360001 108.589203 Q85.360001 104.909203 87.68 101.7892 Q84.160004 98.269203 84.160004 93.869202 Q84.160004 90.509201 86.32 87.389206 Q88 84.909203 91.040001 83.389206 Q94.080002 81.869202 97.839996 81.869202 Q101.919998 81.869202 105.440002 83.949203 L106.32 84.509201 L106.32 84.509201 Z M91.360001 93.869202 Q91.360001 98.189201 92.720001 100.429199 Q94.080002 102.669205 97.760002 102.669205 Q100.32 102.669205 101.919998 101.349205 Q103.519997 100.029205 103.919998 97.869202 Q104.160004 96.589203 104.160004 93.869202 Q104.160004 91.1492 103.919998 89.7892 Q102.959999 84.909203 97.68 84.909203 Q95.360001 84.909203 93.68 86.229202 Q92 87.549202 91.599998 89.7892 Q91.360001 91.069199 91.360001 93.869202 L91.360001 93.869202 Z M110 119.069199 Q108.239998 117.869202 106.040001 117.549202 Q103.839996 117.229202 99.760002 117.229202 L97.440002 117.229202 Q92.080002 117.229202 91.040001 117.709206 Q89.440002 118.429199 88.519997 119.949203 Q87.599998 121.4692 87.599998 123.1492 Q87.599998 124.029205 87.839996 124.749199 Q88.479996 126.589203 90.720001 128.1492 Q92.959999 129.709198 95.919998 130.269196 Q97.360001 130.589203 100 130.589203 Q102.559998 130.589203 104 130.269196 Q106.959999 129.629196 109.239998 128.069199 Q111.519997 126.509201 112.080002 124.669205 Q112.239998 124.269203 112.239998 123.229202 Q112.239998 120.509201 110 119.069199 L110 119.069199 Z" fill="rgba(0,0,0,1)" fill-rule="evenodd" stroke="none"/><path d="M126.160004 58.306801 Q124.592003 58.306801 123.695999 57.298801 Q122.800003 56.290802 122.800003 54.834801 Q122.800003 50.802803 125.851997 47.9188 Q128.904007 45.034801 133.160004 45.034801 Q137.975998 45.034801 141.139999 47.638802 Q144.304001 50.242802 145.031998 54.442802 Q145.143997 55.450802 145.143997 56.290802 Q145.143997 59.538803 143.184006 62.394802 Q141.615997 64.746803 136.856003 68.834801 Q134.839996 70.570801 131.255997 73.986801 L127.952003 77.122803 L132.208008 77.178802 Q141 77.178802 141.559998 76.898804 Q141.783997 76.842804 142.119995 75.722801 Q142.343994 75.106804 142.904007 71.914803 L142.904007 71.746803 L145.143997 71.746803 L145.143997 71.914803 L143.576004 82.162804 L143.576004 82.330803 L122.800003 82.330803 L122.800003 81.2668 Q122.800003 80.146805 122.912003 79.978806 Q122.968002 79.866806 127.615997 74.658806 Q133.720001 67.882805 135.455994 65.698807 Q139.208008 60.602802 139.208008 56.346802 Q139.208008 52.650803 137.276001 50.158802 Q135.343994 47.666801 131.871994 47.666801 Q128.623993 47.666801 126.608002 50.578804 Q126.496002 50.802803 126.272003 51.194801 Q126.104004 51.4748 126.104004 51.5308 Q126.104004 51.5868 126.384003 51.5868 Q127.783997 51.5868 128.652008 52.594803 Q129.520004 53.602802 129.520004 54.9468 Q129.520004 56.346802 128.596008 57.326801 Q127.671997 58.306801 126.160004 58.306801 L126.160004 58.306801 Z" fill="rgba(0,0,0,1)" fill-rule="evenodd" stroke="none"/><path d="M151.136002 68.330803 Q151.136002 67.602798 151.919998 67.2108 L168.664001 67.2108 L168.664001 58.810802 L168.720001 50.410805 Q169.279999 49.6828 169.783997 49.6828 Q170.511993 49.6828 170.904007 50.522804 L170.904007 67.2108 L187.59201 67.2108 Q188.432007 67.658798 188.432007 68.330803 Q188.432007 69.0028 187.59201 69.450806 L170.904007 69.450806 L170.904007 86.138802 Q170.511993 86.922806 169.783997 86.922806 Q169.056 86.922806 168.664001 86.138802 L168.664001 69.450806 L151.919998 69.450806 Q151.136002 69.0588 151.136002 68.330803 L151.136002 68.330803 Z" fill="rgba(0,0,0,1)" fill-rule="evenodd" stroke="none"/><path d="M213.777902 98.8292 L322.577902 98.8292 L321.878342 99.365636 L321.198668 99.915934 L320.538892 100.480085 L319.899027 101.058075 L319.279084 101.649893 L318.679074 102.255528 L318.09901 102.874968 L317.538902 103.5082 L316.998764 104.155214 L316.478605 104.815997 L315.978439 105.490538 L315.498277 106.178825 L315.038131 106.880846 L314.598012 107.596591 L314.177932 108.326046 L313.777902 109.0692 L313.532746 109.548917 L313.298277 110.028059 L313.074496 110.506616 L312.861402 110.984575 L312.658996 111.461925 L312.467277 111.938653 L312.286246 112.414749 L312.115902 112.8902 L311.956246 113.364995 L311.807277 113.839122 L311.668996 114.312569 L311.541402 114.785325 L311.424496 115.257378 L311.318277 115.728716 L311.222746 116.199327 L311.137902 116.6692 L311.137717 116.68879 L311.137168 116.708544 L311.136267 116.728438 L311.135027 116.74845 L311.133459 116.768555 L311.131574 116.788731 L311.129385 116.808954 L311.126902 116.8292 L311.124139 116.849446 L311.121105 116.869669 L311.117814 116.889845 L311.114277 116.90995 L311.110506 116.929962 L311.106512 116.949856 L311.102307 116.96961 L311.097902 116.9892 L311.093498 117.008419 L311.089293 117.027075 L311.085299 117.045169 L311.081527 117.0627 L311.07799 117.079669 L311.074699 117.096075 L311.071666 117.111919 L311.068902 117.1272 L311.06642 117.141919 L311.06423 117.156075 L311.062346 117.169669 L311.060777 117.1827 L311.059537 117.195169 L311.058637 117.207075 L311.058088 117.218419 L311.057902 117.2292 L311.064182 117.335323 L311.083012 117.434684 L311.114381 117.527272 L311.158277 117.613075 L311.214689 117.692081 L311.283605 117.764278 L311.365014 117.829655 L311.458902 117.8882 L311.56526 117.939901 L311.684074 117.984747 L311.815334 118.022725 L311.959027 118.053825 L312.115142 118.078034 L312.283668 118.095341 L312.464592 118.105733 L312.657902 118.1092 L312.775275 118.108448 L312.887387 118.106184 L312.994224 118.102397 L313.095777 118.097075 L313.192033 118.090206 L313.28298 118.081778 L313.368607 118.07178 L313.448902 118.0602 L313.523853 118.047026 L313.593449 118.032247 L313.657678 118.01585 L313.716527 117.997825 L313.769986 117.978159 L313.818043 117.956841 L313.860685 117.933858 L313.897902 117.9092 L313.932023 117.881729 L313.965371 117.850309 L313.997922 117.814929 L314.029652 117.775575 L314.060539 117.732237 L314.090558 117.684903 L314.119687 117.633561 L314.147902 117.5782 L314.17518 117.518807 L314.201496 117.455372 L314.226828 117.387882 L314.251152 117.316325 L314.274445 117.24069 L314.296683 117.160966 L314.317844 117.077139 L314.337902 116.9892 L314.369494 116.789327 L314.404262 116.588716 L314.442193 116.387378 L314.483277 116.185325 L314.527502 115.982569 L314.574855 115.779122 L314.625326 115.574995 L314.678902 115.3702 L314.735572 115.164749 L314.795324 114.958653 L314.858146 114.751925 L314.924027 114.544575 L314.992955 114.336616 L315.064918 114.128059 L315.139904 113.918917 L315.217902 113.7092 L315.447404 113.043292 L315.694918 112.386559 L315.960455 111.738991 L316.244027 111.100575 L316.545646 110.4713 L316.865324 109.851153 L317.203072 109.240124 L317.558902 108.6382 L317.932826 108.04537 L318.324855 107.461622 L318.735002 106.886944 L319.163277 106.321325 L319.609693 105.764753 L320.074262 105.217216 L320.556994 104.678702 L321.057902 104.1492 L321.125002 104.094815 L321.318324 103.939872 L321.625904 103.696686 L322.035777 103.377575 L322.535978 102.994854 L323.114543 102.560841 L323.759506 102.08785 L324.458902 101.5882 L325.200767 101.074206 L325.973137 100.558184 L326.764045 100.052452 L327.561527 99.569325 L328.353619 99.12112 L329.128355 98.720153 L329.873771 98.378741 L330.577902 98.1092 L330.66509 98.077608 L330.746652 98.042841 L330.82259 98.004909 L330.892902 97.963825 L330.95759 97.9196 L331.016652 97.872247 L331.07009 97.821776 L331.117902 97.7682 L331.16009 97.71153 L331.196652 97.651778 L331.22759 97.588956 L331.252902 97.523075 L331.27259 97.454147 L331.286652 97.382184 L331.29509 97.307198 L331.297902 97.2292 L331.29509 97.221075 L331.286652 97.19795 L331.27259 97.1617 L331.252902 97.1142 L331.22759 97.057325 L331.196652 96.99295 L331.16009 96.92295 L331.117902 96.8492 L331.07009 96.773575 L331.016652 96.69795 L330.95759 96.6242 L330.892902 96.5542 L330.82259 96.489825 L330.746652 96.43295 L330.66509 96.38545 L330.577902 96.3492 L329.903654 96.110421 L329.239918 95.853091 L328.586705 95.577221 L327.944027 95.282825 L327.311896 94.969913 L326.690324 94.638497 L326.079322 94.288589 L325.478902 93.9202 L324.889076 93.533343 L324.309855 93.128028 L323.741252 92.704268 L323.183277 92.262075 L322.635943 91.80146 L322.099262 91.322434 L321.573244 90.825011 L321.057902 90.3092 L321.005236 90.241124 L320.855199 90.045091 L320.619732 89.733393 L320.310777 89.318325 L319.940275 88.812179 L319.520168 88.227247 L319.062396 87.575823 L318.578902 86.8702 L318.081627 86.122671 L317.582512 85.345528 L317.093498 84.551065 L316.626527 83.751575 L316.193541 82.95935 L315.80648 82.186684 L315.477287 81.44587 L315.217902 80.7492 L315.14843 80.539854 L315.080996 80.331809 L315.015578 80.125054 L314.952152 79.919575 L314.890695 79.715362 L314.831183 79.512403 L314.773594 79.310686 L314.717902 79.1102 L314.664086 78.910932 L314.612121 78.712872 L314.561984 78.516007 L314.513652 78.320325 L314.467101 78.125815 L314.422308 77.932466 L314.37925 77.740264 L314.337902 77.5492 L314.317844 77.451134 L314.296683 77.357919 L314.274445 77.269532 L314.251152 77.18595 L314.226828 77.107149 L314.201496 77.033106 L314.17518 76.963798 L314.147902 76.8992 L314.119687 76.83929 L314.090558 76.784044 L314.060539 76.733438 L314.029652 76.68745 L313.997922 76.646055 L313.965371 76.609231 L313.932023 76.576954 L313.897902 76.5492 L313.860685 76.524542 L313.818043 76.501559 L313.769986 76.480241 L313.716527 76.460575 L313.657678 76.44255 L313.593449 76.426153 L313.523853 76.411374 L313.448902 76.3982 L313.368607 76.38662 L313.28298 76.376622 L313.192033 76.368194 L313.095777 76.361325 L312.994224 76.356003 L312.887387 76.352216 L312.775275 76.349952 L312.657902 76.3492 L312.454465 76.352667 L312.264152 76.363059 L312.086965 76.380366 L311.922902 76.404575 L311.771965 76.435675 L311.634152 76.473653 L311.509465 76.518499 L311.397902 76.5702 L311.299465 76.628745 L311.214152 76.694122 L311.141965 76.766319 L311.082902 76.845325 L311.036965 76.931128 L311.004152 77.023716 L310.984465 77.123077 L310.977902 77.2292 L310.979777 77.265108 L310.985402 77.312841 L310.994777 77.372409 L311.007902 77.443825 L311.024777 77.5271 L311.045402 77.622247 L311.069777 77.729276 L311.097902 77.8482 L311.129777 77.97903 L311.165402 78.121778 L311.204777 78.276456 L311.247902 78.443075 L311.294777 78.621647 L311.345402 78.812184 L311.399777 79.014698 L311.457902 79.2292 L311.792404 80.464727 L312.174918 81.672294 L312.605455 82.851876 L313.084027 84.00345 L313.610646 85.126993 L314.185324 86.222481 L314.808072 87.289891 L315.478902 88.3292 L316.197826 89.340384 L316.964855 90.323419 L317.780002 91.278282 L318.643277 92.20495 L319.554693 93.103399 L320.514262 93.973606 L321.521994 94.815548 L322.577902 95.6292 L213.777902 95.6292" fill="rgba(0,0,0,1)" fill-rule="nonzero" stroke="none"/><path d="M213.777902 98.8292 L323.297902 98.8292 L323.297902 95.6292 L213.777902 95.6292" fill="rgba(0,0,0,1)" fill-rule="nonzero" stroke="none"/><path d="M265.239227 67.4692 Q264.343201 67.301201 256.951202 67.301201 Q249.559219 67.301201 248.663223 67.4692 L248.047211 67.4692 L248.047211 64.893204 L249.279221 64.893204 Q251.463211 64.893204 252.97522 64.725197 Q253.647217 64.557198 253.927216 64.1092 Q254.039215 63.9412 254.039215 48.3172 Q254.039215 32.749199 253.927216 32.5812 Q253.647217 32.133198 252.97522 31.965199 Q251.463211 31.797199 249.279221 31.797199 L248.047211 31.797199 L248.047211 29.221199 L248.663223 29.221199 Q249.559219 29.389198 256.951202 29.389198 Q264.343201 29.389198 265.239227 29.221199 L265.855225 29.221199 L265.855225 31.797199 L264.62323 31.797199 Q262.439209 31.797199 260.927216 31.965199 Q260.255219 32.133198 259.97522 32.5812 Q259.86322 32.749199 259.86322 48.3172 Q259.86322 63.9412 259.97522 64.1092 Q260.255219 64.557198 260.927216 64.725197 Q262.439209 64.893204 264.62323 64.893204 L265.855225 64.893204 L265.855225 67.4692 L265.239227 67.4692 L265.239227 67.4692 Z" fill="rgba(0,0,0,1)" fill-rule="evenodd" stroke="none"/><path d="M270.453369 33.333199 Q270.453369 32.813198 271.013397 32.533199 L294.253387 32.533199 Q294.853394 32.853199 294.853394 33.333199 Q294.853394 33.813198 294.253387 34.133198 L271.013397 34.133198 Q270.453369 33.853199 270.453369 33.333199 L270.453369 33.333199 Z" fill="rgba(0,0,0,1)" fill-rule="evenodd" stroke="none"/><path d="M363.760101 67.469208 Q362.960114 66.669205 362.200104 66.509201 Q361.440125 66.349205 358.160126 66.269203 L355.520111 66.269203 L355.520111 62.589203 L356.400116 62.589203 Q357.760101 62.829205 367.920105 62.829205 Q378.080109 62.829205 379.440125 62.589203 L380.320099 62.589203 L380.320099 66.269203 L377.680115 66.269203 Q374.400116 66.349205 373.56012 66.509201 Q372.720123 66.669205 372.160095 67.469208 L372.080109 77.229202 L372.080109 86.989204 L394.880127 86.989204 L394.880127 67.469208 Q394.080109 66.669205 393.320099 66.509201 Q392.56012 66.349205 389.280121 66.269203 L386.640106 66.269203 L386.640106 62.589203 L387.520111 62.589203 Q388.880127 62.829205 399.0401 62.829205 Q409.200104 62.829205 410.56012 62.589203 L411.440125 62.589203 L411.440125 66.269203 L408.80011 66.269203 Q405.520111 66.349205 404.680115 66.509201 Q403.840118 66.669205 403.280121 67.469208 L403.280121 112.349205 Q403.840118 113.1492 404.680115 113.309204 Q405.520111 113.4692 408.80011 113.549202 L411.440125 113.549202 L411.440125 117.229202 L410.56012 117.229202 Q409.200104 116.989204 399.0401 116.989204 Q388.880127 116.989204 387.520111 117.229202 L386.640106 117.229202 L386.640106 113.549202 L389.280121 113.549202 Q392.56012 113.4692 393.320099 113.309204 Q394.080109 113.1492 394.880127 112.349205 L394.880127 90.669205 L372.080109 90.669205 L372.080109 101.4692 L372.160095 112.349205 Q372.720123 113.1492 373.56012 113.309204 Q374.400116 113.4692 377.680115 113.549202 L380.320099 113.549202 L380.320099 117.229202 L379.440125 117.229202 Q378.080109 116.989204 367.920105 116.989204 Q357.760101 116.989204 356.400116 117.229202 L355.520111 117.229202 L355.520111 113.549202 L358.160126 113.549202 Q361.440125 113.4692 362.200104 113.309204 Q362.960114 113.1492 363.760101 112.349205 L363.760101 67.469208 L363.760101 67.469208 Z" fill="rgba(0,0,0,1)" fill-rule="evenodd" stroke="none"/><path d="M439.840118 84.509201 Q443.360107 80.989204 447.920105 80.989204 Q449.920105 80.989204 451.120117 82.229202 Q452.320099 83.469208 452.320099 85.549202 Q452.320099 86.829201 451.520111 87.629204 Q450.720123 88.429199 449.440125 88.429199 Q446.880127 88.429199 446.480103 86.029205 Q446.320099 84.909203 446.720123 84.349197 Q446.720123 84.269203 446.80011 84.109207 L446.80011 84.029205 Q446.480103 84.109207 446.080109 84.189201 Q444.160095 84.509201 442.56012 85.7892 Q441.920105 86.189201 441.920105 86.349205 Q442.080109 86.509201 442.240112 86.749207 Q444.880096 90.029205 444.880096 93.869202 Q444.880096 97.1492 442.720123 100.269203 Q438.960114 105.7892 431.280121 105.7892 Q427.440125 105.7892 423.360107 103.549202 Q422.480103 105.1492 422.480103 106.589203 Q422.480103 109.389206 424.56012 110.749199 Q425.280121 111.229202 425.960114 111.269203 Q426.640106 111.309204 431.680115 111.389206 Q438.400116 111.4692 440.320099 111.869202 Q449.360107 113.229202 450.960114 120.829201 Q451.120117 121.4692 451.120117 122.989204 Q451.120117 124.429199 450.960114 124.909203 Q449.840118 128.989197 444.80011 131.349197 Q439.760101 133.709198 433.520111 133.709198 Q426.960114 133.709198 422.080109 131.229202 Q417.120117 128.829208 416.000122 124.909203 Q415.840118 124.429199 415.840118 123.229202 Q415.840118 119.949203 418.320099 117.629204 Q419.520111 116.429199 420.880096 115.7892 L421.760101 115.309204 Q418.880096 112.829201 418.880096 108.589203 Q418.880096 104.909203 421.200104 101.7892 Q417.680115 98.269203 417.680115 93.869202 Q417.680115 90.509201 419.840118 87.389206 Q421.520111 84.909203 424.56012 83.389206 Q427.600098 81.869202 431.360107 81.869202 Q435.440125 81.869202 438.960114 83.949203 L439.840118 84.509201 L439.840118 84.509201 Z M424.880096 93.869202 Q424.880096 98.189201 426.240112 100.429199 Q427.600098 102.669205 431.280121 102.669205 Q433.840118 102.669205 435.440125 101.349205 Q437.0401 100.029205 437.440125 97.869202 Q437.680115 96.589203 437.680115 93.869202 Q437.680115 91.1492 437.440125 89.7892 Q436.480103 84.909203 431.200104 84.909203 Q428.880096 84.909203 427.200104 86.229202 Q425.520111 87.549202 425.120117 89.7892 Q424.880096 91.069199 424.880096 93.869202 L424.880096 93.869202 Z M443.520111 119.069199 Q441.760101 117.869202 439.56012 117.549202 Q437.360107 117.229202 433.280121 117.229202 L430.960114 117.229202 Q425.600098 117.229202 424.56012 117.709206 Q422.960114 118.429199 422.0401 119.949203 Q421.120117 121.4692 421.120117 123.1492 Q421.120117 124.029205 421.360107 124.749199 Q422.000122 126.589203 424.240112 128.1492 Q426.480103 129.709198 429.440125 130.269196 Q430.880096 130.589203 433.520111 130.589203 Q436.080109 130.589203 437.520111 130.269196 Q440.480103 129.629196 442.760101 128.069199 Q445.0401 126.509201 445.600098 124.669205 Q445.760101 124.269203 445.760101 123.229202 Q445.760101 120.509201 443.520111 119.069199 L443.520111 119.069199 Z" fill="rgba(0,0,0,1)" fill-rule="evenodd" stroke="none"/><path d="M479.760101 117.229202 Q478.480103 116.989204 467.920105 116.989204 Q457.360107 116.989204 456.080109 117.229202 L455.200104 117.229202 L455.200104 113.549202 L456.960114 113.549202 Q460.080109 113.549202 462.240112 113.309204 Q463.200104 113.069199 463.600098 112.429199 Q463.760101 112.189201 463.760101 89.869202 Q463.760101 67.629204 463.600098 67.389206 Q463.200104 66.749207 462.240112 66.509201 Q460.080109 66.269203 456.960114 66.269203 L455.200104 66.269203 L455.200104 62.589203 L456.080109 62.589203 Q457.360107 62.829205 467.920105 62.829205 Q478.480103 62.829205 479.760101 62.589203 L480.640106 62.589203 L480.640106 66.269203 L478.880096 66.269203 Q475.760101 66.269203 473.600098 66.509201 Q472.640106 66.749207 472.240112 67.389206 Q472.080109 67.629204 472.080109 89.869202 Q472.080109 112.189201 472.240112 112.429199 Q472.640106 113.069199 473.600098 113.309204 Q475.760101 113.549202 478.880096 113.549202 L480.640106 113.549202 L480.640106 117.229202 L479.760101 117.229202 L479.760101 117.229202 Z" fill="rgba(0,0,0,1)" fill-rule="evenodd" stroke="none"/><path d="M488.568939 105.2052 Q487.000946 105.2052 486.10495 104.197205 Q485.208923 103.189201 485.208923 101.7332 Q485.208923 97.701202 488.260925 94.8172 Q491.312927 91.933197 495.568939 91.933197 Q500.384949 91.933197 503.54895 94.537201 Q506.712952 97.141205 507.440948 101.341202 Q507.552948 102.349197 507.552948 103.189201 Q507.552948 106.437202 505.592926 109.293198 Q504.024933 111.645203 499.264923 115.7332 Q497.248932 117.4692 493.664948 120.885201 L490.360931 124.021202 L494.616943 124.077202 Q503.408936 124.077202 503.968933 123.797203 Q504.192932 123.741203 504.528931 122.621201 Q504.75293 122.005203 505.312927 118.813202 L505.312927 118.645203 L507.552948 118.645203 L507.552948 118.813202 L505.984924 129.061203 L505.984924 129.229202 L485.208923 129.229202 L485.208923 128.165207 Q485.208923 127.045204 485.320923 126.877205 Q485.376923 126.765205 490.024933 121.557205 Q496.128937 114.781204 497.864929 112.597198 Q501.616943 107.501205 501.616943 103.245201 Q501.616943 99.549202 499.684937 97.057205 Q497.75293 94.565201 494.280945 94.565201 Q491.032928 94.565201 489.016937 97.477203 Q488.904938 97.701202 488.680939 98.093201 Q488.512939 98.373199 488.512939 98.429199 Q488.512939 98.485199 488.792938 98.485199 Q490.192932 98.485199 491.060944 99.493202 Q491.928925 100.501205 491.928925 101.8452 Q491.928925 103.245201 491.004944 104.225204 Q490.080933 105.2052 488.568939 105.2052 L488.568939 105.2052 Z" fill="rgba(0,0,0,1)" fill-rule="evenodd" stroke="none"/><path d="M394.229492 167.217041 Q394.453491 167.217041 398.457489 166.909042 Q402.461487 166.601044 402.573486 166.601044 L402.741486 166.601044 L402.741486 170.465042 Q403.805511 168.673035 405.093506 167.665039 Q406.3815 166.657043 408.509491 166.657043 Q410.077484 166.657043 411.19751 167.273041 Q413.3815 168.393036 413.3815 170.465042 Q413.3815 171.697037 412.541504 172.509048 Q411.701508 173.321045 410.525513 173.321045 Q409.349487 173.321045 408.537506 172.537048 Q407.725494 171.753036 407.725494 170.521042 Q407.725494 169.569046 408.173492 168.953033 Q408.285492 168.729034 408.285492 168.673035 Q408.173492 168.561035 406.997498 168.897034 Q406.101501 169.345047 405.653503 169.737045 Q403.413513 171.865036 403.077484 176.793045 L403.077484 178.977036 Q403.021484 181.161041 403.021484 182.729034 Q403.021484 183.457047 403.021484 184.269043 Q403.021484 185.081039 403.0495 185.697037 Q403.077484 186.313049 403.077484 186.817047 Q403.077484 187.321045 403.077484 187.657043 L403.077484 187.937042 Q403.301483 188.38504 403.749512 188.49704 Q404.309509 188.721039 406.717499 188.777039 L408.453491 188.777039 L408.453491 191.353043 L407.949493 191.353043 Q406.941498 191.185043 400.837494 191.185043 Q395.349487 191.185043 394.565491 191.353043 L394.117493 191.353043 L394.117493 188.777039 L395.013489 188.777039 L395.629486 188.777039 Q397.981506 188.777039 398.429504 187.993042 L398.429504 187.545044 Q398.429504 187.041046 398.457489 186.25705 Q398.485504 185.473038 398.485504 184.493042 Q398.485504 183.513046 398.485504 182.309036 Q398.485504 181.105042 398.485504 179.985046 Q398.485504 178.249039 398.485504 176.261047 Q398.485504 174.273041 398.485504 172.985046 L398.429504 171.697037 Q398.261505 170.633041 397.617493 170.269043 Q396.973511 169.905045 395.125488 169.793045 L394.117493 169.793045 L394.117493 168.505035 Q394.117493 167.217041 394.229492 167.217041 L394.229492 167.217041 Z" fill="rgba(0,0,0,1)" fill-rule="evenodd" stroke="none"/><path d="M438.17099 177.633041 Q438.17099 178.02504 437.778992 178.417038 L421.987 178.417038 L421.987 179.25705 Q421.987 183.401047 423.106995 185.529037 Q425.122986 189.67305 430.050995 189.67305 Q432.458984 189.67305 434.083008 187.881042 Q435.203003 186.761047 435.819 184.96904 Q435.987 184.353043 436.154999 184.185043 Q436.322998 184.017044 437.050995 184.017044 Q438.17099 184.017044 438.17099 184.577042 Q438.17099 184.801041 438.002991 185.305038 Q436.938995 188.217041 434.61499 190.093048 Q432.291016 191.96904 428.931 191.96904 Q427.867004 191.96904 426.46701 191.689041 Q423.274994 191.073044 420.755005 188.777039 Q418.234985 186.481049 417.17099 183.233047 Q416.498993 181.217041 416.498993 179.14505 Q416.498993 173.993042 419.52301 170.437042 Q422.546997 166.881042 426.971008 166.321045 Q427.195007 166.265045 427.755005 166.265045 Q432.851013 166.265045 435.510986 169.261047 Q438.17099 172.25705 438.17099 177.633041 L438.17099 177.633041 Z M433.57901 175.953049 Q433.075012 169.849045 429.434998 168.561035 Q429.042999 168.393036 428.259003 168.337036 Q425.346985 168.337036 423.498993 171.02504 Q422.378998 172.817047 422.042999 176.009048 L422.042999 176.401047 L433.57901 176.401047 L433.57901 175.953049 L433.57901 175.953049 Z" fill="rgba(0,0,0,1)" fill-rule="evenodd" stroke="none"/><path d="M456.620178 153.105042 Q456.844177 153.105042 460.98819 152.797043 Q465.132202 152.489044 465.244202 152.489044 L465.412201 152.489044 L465.412201 169.513046 Q465.412201 186.649048 465.468201 186.817047 Q465.6362 187.937042 466.280182 188.301041 Q466.924194 188.665039 468.772186 188.777039 L469.780182 188.777039 L469.780182 191.353043 Q469.668182 191.353043 465.496185 191.633041 Q461.324188 191.91304 461.100189 191.96904 L460.708191 191.96904 L460.708191 188.889038 L460.260193 189.281036 Q457.068176 191.96904 452.980194 191.96904 Q449.060181 191.96904 446.036194 189.337036 Q442.564178 186.25705 441.780182 181.273041 Q441.724182 180.825043 441.724182 179.313049 Q441.724182 173.881042 445.196198 170.241043 Q448.668182 166.601044 453.484192 166.601044 Q457.628204 166.601044 460.87619 169.345047 L460.87619 163.633041 Q460.87619 157.809036 460.82019 157.585037 Q460.652191 156.521042 460.008179 156.157043 Q459.364197 155.793045 457.516205 155.681046 L456.508179 155.681046 L456.508179 154.393036 Q456.508179 153.105042 456.620178 153.105042 L456.620178 153.105042 Z M460.708191 172.20105 Q458.188202 168.673035 454.380188 168.673035 Q451.6362 168.673035 449.508179 170.689041 Q448.108185 172.14505 447.632202 174.105042 Q447.156189 176.065048 447.156189 179.537048 Q447.156189 185.753036 449.508179 188.049042 Q451.244202 189.897049 453.87619 189.897049 Q455.836182 189.897049 457.628204 188.833038 Q459.420197 187.769043 460.484192 185.921036 L460.708191 185.585037 L460.708191 172.20105 L460.708191 172.20105 Z" fill="rgba(0,0,0,1)" fill-rule="evenodd" stroke="none"/><path d="M532.631147 98.8292 L641.431147 98.8292 L640.731586 99.365636 L640.051912 99.915934 L639.392137 100.480085 L638.752272 101.058075 L638.132328 101.649893 L637.532319 102.255528 L636.952254 102.874968 L636.392147 103.5082 L635.852008 104.155214 L635.33185 104.815997 L634.831684 105.490538 L634.351522 106.178825 L633.891375 106.880846 L633.451256 107.596591 L633.031176 108.326046 L632.631147 109.0692 L632.38599 109.548917 L632.151522 110.028059 L631.92774 110.506616 L631.714647 110.984575 L631.51224 111.461925 L631.320522 111.938653 L631.13949 112.414749 L630.969147 112.8902 L630.80949 113.364995 L630.660522 113.839122 L630.52224 114.312569 L630.394647 114.785325 L630.27774 115.257378 L630.171522 115.728716 L630.07599 116.199327 L629.991147 116.6692 L629.990961 116.68879 L629.990412 116.708544 L629.989512 116.728438 L629.988272 116.74845 L629.986703 116.768555 L629.984819 116.788731 L629.982629 116.808954 L629.980147 116.8292 L629.977383 116.849446 L629.97435 116.869669 L629.971059 116.889845 L629.967522 116.90995 L629.96375 116.929962 L629.959756 116.949856 L629.955551 116.96961 L629.951147 116.9892 L629.946742 117.008419 L629.942537 117.027075 L629.938543 117.045169 L629.934772 117.0627 L629.931235 117.079669 L629.927944 117.096075 L629.92491 117.111919 L629.922147 117.1272 L629.919664 117.141919 L629.917475 117.156075 L629.91559 117.169669 L629.914022 117.1827 L629.912781 117.195169 L629.911881 117.207075 L629.911332 117.218419 L629.911147 117.2292 L629.917426 117.335323 L629.936256 117.434684 L629.967625 117.527272 L630.011522 117.613075 L630.067934 117.692081 L630.13685 117.764278 L630.218258 117.829655 L630.312147 117.8882 L630.418504 117.939901 L630.537319 117.984747 L630.668578 118.022725 L630.812272 118.053825 L630.968387 118.078034 L631.136912 118.095341 L631.317836 118.105733 L631.511147 118.1092 L631.62852 118.108448 L631.740631 118.106184 L631.847469 118.102397 L631.949022 118.097075 L632.045278 118.090206 L632.136225 118.081778 L632.221852 118.07178 L632.302147 118.0602 L632.377098 118.047026 L632.446694 118.032247 L632.510922 118.01585 L632.569772 117.997825 L632.623231 117.978159 L632.671287 117.956841 L632.71393 117.933858 L632.751147 117.9092 L632.785268 117.881729 L632.818615 117.850309 L632.851166 117.814929 L632.882897 117.775575 L632.913783 117.732237 L632.943803 117.684903 L632.972932 117.633561 L633.001147 117.5782 L633.028424 117.518807 L633.05474 117.455372 L633.080072 117.387882 L633.104397 117.316325 L633.12769 117.24069 L633.149928 117.160966 L633.171088 117.077139 L633.191147 116.9892 L633.222738 116.789327 L633.257506 116.588716 L633.295438 116.387378 L633.336522 116.185325 L633.380746 115.982569 L633.4281 115.779122 L633.47857 115.574995 L633.532147 115.3702 L633.588817 115.164749 L633.648569 114.958653 L633.711391 114.751925 L633.777272 114.544575 L633.846199 114.336616 L633.918162 114.128059 L633.993149 113.918917 L634.071147 113.7092 L634.300649 113.043292 L634.548162 112.386559 L634.813699 111.738991 L635.097272 111.100575 L635.398891 110.4713 L635.718569 109.851153 L636.056317 109.240124 L636.412147 108.6382 L636.78607 108.04537 L637.1781 107.461622 L637.588246 106.886944 L638.016522 106.321325 L638.462938 105.764753 L638.927506 105.217216 L639.410238 104.678702 L639.911147 104.1492 L639.978246 104.094815 L640.171569 103.939872 L640.479149 103.696686 L640.889022 103.377575 L641.389223 102.994854 L641.967787 102.560841 L642.61275 102.08785 L643.312147 101.5882 L644.054012 101.074206 L644.826381 100.558184 L645.617289 100.052452 L646.414772 99.569325 L647.206863 99.12112 L647.9816 98.720153 L648.727016 98.378741 L649.431147 98.1092 L649.518334 98.077608 L649.599897 98.042841 L649.675834 98.004909 L649.746147 97.963825 L649.810834 97.9196 L649.869897 97.872247 L649.923334 97.821776 L649.971147 97.7682 L650.013334 97.71153 L650.049897 97.651778 L650.080834 97.588956 L650.106147 97.523075 L650.125834 97.454147 L650.139897 97.382184 L650.148334 97.307198 L650.151147 97.2292 L650.148334 97.221075 L650.139897 97.19795 L650.125834 97.1617 L650.106147 97.1142 L650.080834 97.057325 L650.049897 96.99295 L650.013334 96.92295 L649.971147 96.8492 L649.923334 96.773575 L649.869897 96.69795 L649.810834 96.6242 L649.746147 96.5542 L649.675834 96.489825 L649.599897 96.43295 L649.518334 96.38545 L649.431147 96.3492 L648.756899 96.110421 L648.093162 95.853091 L647.439949 95.577221 L646.797272 95.282825 L646.165141 94.969913 L645.543569 94.638497 L644.932567 94.288589 L644.332147 93.9202 L643.74232 93.533343 L643.1631 93.128028 L642.594496 92.704268 L642.036522 92.262075 L641.489188 91.80146 L640.952506 91.322434 L640.426488 90.825011 L639.911147 90.3092 L639.858481 90.241124 L639.708444 90.045091 L639.472977 89.733393 L639.164022 89.318325 L638.79352 88.812179 L638.373412 88.227247 L637.915641 87.575823 L637.432147 86.8702 L636.934871 86.122671 L636.435756 85.345528 L635.946742 84.551065 L635.479772 83.751575 L635.046785 82.95935 L634.659725 82.186684 L634.330531 81.44587 L634.071147 80.7492 L634.001674 80.539854 L633.93424 80.331809 L633.868822 80.125054 L633.805397 79.919575 L633.74394 79.715362 L633.684428 79.512403 L633.626838 79.310686 L633.571147 79.1102 L633.51733 78.910932 L633.465365 78.712872 L633.415229 78.516007 L633.366897 78.320325 L633.320346 78.125815 L633.275553 77.932466 L633.232494 77.740264 L633.191147 77.5492 L633.171088 77.451134 L633.149928 77.357919 L633.12769 77.269532 L633.104397 77.18595 L633.080072 77.107149 L633.05474 77.033106 L633.028424 76.963798 L633.001147 76.8992 L632.972932 76.83929 L632.943803 76.784044 L632.913783 76.733438 L632.882897 76.68745 L632.851166 76.646055 L632.818615 76.609231 L632.785268 76.576954 L632.751147 76.5492 L632.71393 76.524542 L632.671287 76.501559 L632.623231 76.480241 L632.569772 76.460575 L632.510922 76.44255 L632.446694 76.426153 L632.377098 76.411374 L632.302147 76.3982 L632.221852 76.38662 L632.136225 76.376622 L632.045278 76.368194 L631.949022 76.361325 L631.847469 76.356003 L631.740631 76.352216 L631.62852 76.349952 L631.511147 76.3492 L631.307709 76.352667 L631.117397 76.363059 L630.940209 76.380366 L630.776147 76.404575 L630.625209 76.435675 L630.487397 76.473653 L630.362709 76.518499 L630.251147 76.5702 L630.152709 76.628745 L630.067397 76.694122 L629.995209 76.766319 L629.936147 76.845325 L629.890209 76.931128 L629.857397 77.023716 L629.837709 77.123077 L629.831147 77.2292 L629.833022 77.265108 L629.838647 77.312841 L629.848022 77.372409 L629.861147 77.443825 L629.878022 77.5271 L629.898647 77.622247 L629.923022 77.729276 L629.951147 77.8482 L629.983022 77.97903 L630.018647 78.121778 L630.058022 78.276456 L630.101147 78.443075 L630.148022 78.621647 L630.198647 78.812184 L630.253022 79.014698 L630.311147 79.2292 L630.645649 80.464727 L631.028162 81.672294 L631.458699 82.851876 L631.937272 84.00345 L632.463891 85.126993 L633.038569 86.222481 L633.661317 87.289891 L634.332147 88.3292 L635.05107 89.340384 L635.8181 90.323419 L636.633246 91.278282 L637.496522 92.20495 L638.407938 93.103399 L639.367506 93.973606 L640.375238 94.815548 L641.431147 95.6292 L532.631147 95.6292" fill="rgba(0,0,0,1)" fill-rule="nonzero" stroke="none"/><path d="M532.631147 98.8292 L642.151147 98.8292 L642.151147 95.6292 L532.631147 95.6292" fill="rgba(0,0,0,1)" fill-rule="nonzero" stroke="none"/><path d="M584.092468 67.4692 Q583.196472 67.301201 575.804504 67.301201 Q568.412476 67.301201 567.516479 67.4692 L566.900513 67.4692 L566.900513 64.893204 L568.132507 64.893204 Q570.316467 64.893204 571.828491 64.725197 Q572.500488 64.557198 572.780518 64.1092 Q572.892517 63.9412 572.892517 48.3172 Q572.892517 32.749199 572.780518 32.5812 Q572.500488 32.133198 571.828491 31.965199 Q570.316467 31.797199 568.132507 31.797199 L566.900513 31.797199 L566.900513 29.221199 L567.516479 29.221199 Q568.412476 29.389198 575.804504 29.389198 Q583.196472 29.389198 584.092468 29.221199 L584.708496 29.221199 L584.708496 31.797199 L583.476501 31.797199 Q581.29248 31.797199 579.780518 31.965199 Q579.108459 32.133198 578.828491 32.5812 Q578.716492 32.749199 578.716492 48.3172 Q578.716492 63.9412 578.828491 64.1092 Q579.108459 64.557198 579.780518 64.725197 Q581.29248 64.893204 583.476501 64.893204 L584.708496 64.893204 L584.708496 67.4692 L584.092468 67.4692 L584.092468 67.4692 Z" fill="rgba(0,0,0,1)" fill-rule="evenodd" stroke="none"/><path d="M589.306641 33.333199 Q589.306641 32.813198 589.866638 32.533199 L613.106628 32.533199 Q613.706665 32.853199 613.706665 33.333199 Q613.706665 33.813198 613.106628 34.133198 L589.866638 34.133198 Q589.306641 33.853199 589.306641 33.333199 L589.306641 33.333199 Z" fill="rgba(0,0,0,1)" fill-rule="evenodd" stroke="none"/><path d="M681.813354 137.229202 L681.813354 57.229202 L692.773376 57.229202 L692.773376 60.429203 L685.013367 60.429203 L685.013367 134.029205 L692.773376 134.029205 L692.773376 137.229202 L681.813354 137.229202 L681.813354 137.229202 Z" fill="rgba(0,0,0,1)" fill-rule="evenodd" stroke="none"/><path d="M704.835754 67.469208 Q704.035767 66.669205 703.275757 66.509201 Q702.515747 66.349205 699.235779 66.269203 L696.595764 66.269203 L696.595764 62.589203 L697.475769 62.589203 Q698.835754 62.829205 708.995789 62.829205 Q719.155762 62.829205 720.515747 62.589203 L721.395752 62.589203 L721.395752 66.269203 L718.755737 66.269203 Q715.475769 66.349205 714.635742 66.509201 Q713.795776 66.669205 713.235779 67.469208 L713.155762 77.229202 L713.155762 86.989204 L735.95575 86.989204 L735.95575 67.469208 Q735.155762 66.669205 734.395752 66.509201 Q733.635742 66.349205 730.355774 66.269203 L727.715759 66.269203 L727.715759 62.589203 L728.595764 62.589203 Q729.95575 62.829205 740.115784 62.829205 Q750.275757 62.829205 751.635742 62.589203 L752.515747 62.589203 L752.515747 66.269203 L749.875732 66.269203 Q746.595764 66.349205 745.755737 66.509201 Q744.915771 66.669205 744.355774 67.469208 L744.355774 112.349205 Q744.915771 113.1492 745.755737 113.309204 Q746.595764 113.4692 749.875732 113.549202 L752.515747 113.549202 L752.515747 117.229202 L751.635742 117.229202 Q750.275757 116.989204 740.115784 116.989204 Q729.95575 116.989204 728.595764 117.229202 L727.715759 117.229202 L727.715759 113.549202 L730.355774 113.549202 Q733.635742 113.4692 734.395752 113.309204 Q735.155762 113.1492 735.95575 112.349205 L735.95575 90.669205 L713.155762 90.669205 L713.155762 101.4692 L713.235779 112.349205 Q713.795776 113.1492 714.635742 113.309204 Q715.475769 113.4692 718.755737 113.549202 L721.395752 113.549202 L721.395752 117.229202 L720.515747 117.229202 Q719.155762 116.989204 708.995789 116.989204 Q698.835754 116.989204 697.475769 117.229202 L696.595764 117.229202 L696.595764 113.549202 L699.235779 113.549202 Q702.515747 113.4692 703.275757 113.309204 Q704.035767 113.1492 704.835754 112.349205 L704.835754 67.469208 L704.835754 67.469208 Z" fill="rgba(0,0,0,1)" fill-rule="evenodd" stroke="none"/><path d="M780.915771 84.509201 Q784.435791 80.989204 788.995789 80.989204 Q790.995789 80.989204 792.19574 82.229202 Q793.395752 83.469208 793.395752 85.549202 Q793.395752 86.829201 792.595764 87.629204 Q791.795776 88.429199 790.515747 88.429199 Q787.95575 88.429199 787.555786 86.029205 Q787.395752 84.909203 787.795776 84.349197 Q787.795776 84.269203 787.875732 84.109207 L787.875732 84.029205 Q787.555786 84.109207 787.155762 84.189201 Q785.235779 84.509201 783.635742 85.7892 Q782.995789 86.189201 782.995789 86.349205 Q783.155762 86.509201 783.315735 86.749207 Q785.95575 90.029205 785.95575 93.869202 Q785.95575 97.1492 783.795776 100.269203 Q780.035767 105.7892 772.355774 105.7892 Q768.515747 105.7892 764.435791 103.549202 Q763.555786 105.1492 763.555786 106.589203 Q763.555786 109.389206 765.635742 110.749199 Q766.355774 111.229202 767.035767 111.269203 Q767.715759 111.309204 772.755737 111.389206 Q779.475769 111.4692 781.395752 111.869202 Q790.435791 113.229202 792.035767 120.829201 Q792.19574 121.4692 792.19574 122.989204 Q792.19574 124.429199 792.035767 124.909203 Q790.915771 128.989197 785.875732 131.349197 Q780.835754 133.709198 774.595764 133.709198 Q768.035767 133.709198 763.155762 131.229202 Q758.19574 128.829208 757.075745 124.909203 Q756.915771 124.429199 756.915771 123.229202 Q756.915771 119.949203 759.395752 117.629204 Q760.595764 116.429199 761.95575 115.7892 L762.835754 115.309204 Q759.95575 112.829201 759.95575 108.589203 Q759.95575 104.909203 762.275757 101.7892 Q758.755737 98.269203 758.755737 93.869202 Q758.755737 90.509201 760.915771 87.389206 Q762.595764 84.909203 765.635742 83.389206 Q768.675781 81.869202 772.435791 81.869202 Q776.515747 81.869202 780.035767 83.949203 L780.915771 84.509201 L780.915771 84.509201 Z M765.95575 93.869202 Q765.95575 98.189201 767.315735 100.429199 Q768.675781 102.669205 772.355774 102.669205 Q774.915771 102.669205 776.515747 101.349205 Q778.115784 100.029205 778.515747 97.869202 Q778.755737 96.589203 778.755737 93.869202 Q778.755737 91.1492 778.515747 89.7892 Q777.555786 84.909203 772.275757 84.909203 Q769.95575 84.909203 768.275757 86.229202 Q766.595764 87.549202 766.19574 89.7892 Q765.95575 91.069199 765.95575 93.869202 L765.95575 93.869202 Z M784.595764 119.069199 Q782.835754 117.869202 780.635742 117.549202 Q778.435791 117.229202 774.355774 117.229202 L772.035767 117.229202 Q766.675781 117.229202 765.635742 117.709206 Q764.035767 118.429199 763.115784 119.949203 Q762.19574 121.4692 762.19574 123.1492 Q762.19574 124.029205 762.435791 124.749199 Q763.075745 126.589203 765.315735 128.1492 Q767.555786 129.709198 770.515747 130.269196 Q771.95575 130.589203 774.595764 130.589203 Q777.155762 130.589203 778.595764 130.269196 Q781.555786 129.629196 783.835754 128.069199 Q786.115784 126.509201 786.675781 124.669205 Q786.835754 124.269203 786.835754 123.229202 Q786.835754 120.509201 784.595764 119.069199 L784.595764 119.069199 Z" fill="rgba(0,0,0,1)" fill-rule="evenodd" stroke="none"/><path d="M812.963745 82.330803 Q812.067749 82.162804 804.675781 82.162804 Q797.283752 82.162804 796.387756 82.330803 L795.77179 82.330803 L795.77179 79.754807 L797.003784 79.754807 Q799.187744 79.754807 800.699768 79.5868 Q801.371765 79.4188 801.651794 78.970802 Q801.763794 78.802803 801.763794 63.178802 Q801.763794 47.610802 801.651794 47.442802 Q801.371765 46.994801 800.699768 46.826801 Q799.187744 46.658802 797.003784 46.658802 L795.77179 46.658802 L795.77179 44.082802 L796.387756 44.082802 Q797.283752 44.250801 804.675781 44.250801 Q812.067749 44.250801 812.963745 44.082802 L813.579773 44.082802 L813.579773 46.658802 L812.347778 46.658802 Q810.163757 46.658802 808.651794 46.826801 Q807.979736 46.994801 807.699768 47.442802 Q807.587769 47.610802 807.587769 63.178802 Q807.587769 78.802803 807.699768 78.970802 Q807.979736 79.4188 808.651794 79.5868 Q810.163757 79.754807 812.347778 79.754807 L813.579773 79.754807 L813.579773 82.330803 L812.963745 82.330803 L812.963745 82.330803 Z" fill="rgba(0,0,0,1)" fill-rule="evenodd" stroke="none"/><path d="M833.185913 82.330803 Q832.289917 82.162804 824.897949 82.162804 Q817.50592 82.162804 816.609924 82.330803 L815.993958 82.330803 L815.993958 79.754807 L817.225952 79.754807 Q819.409912 79.754807 820.921936 79.5868 Q821.593933 79.4188 821.873962 78.970802 Q821.985962 78.802803 821.985962 63.178802 Q821.985962 47.610802 821.873962 47.442802 Q821.593933 46.994801 820.921936 46.826801 Q819.409912 46.658802 817.225952 46.658802 L815.993958 46.658802 L815.993958 44.082802 L816.609924 44.082802 Q817.50592 44.250801 824.897949 44.250801 Q832.289917 44.250801 833.185913 44.082802 L833.801941 44.082802 L833.801941 46.658802 L832.569946 46.658802 Q830.385925 46.658802 828.873962 46.826801 Q828.201904 46.994801 827.921936 47.442802 Q827.809937 47.610802 827.809937 63.178802 Q827.809937 78.802803 827.921936 78.970802 Q828.201904 79.4188 828.873962 79.5868 Q830.385925 79.754807 832.569946 79.754807 L833.801941 79.754807 L833.801941 82.330803 L833.185913 82.330803 L833.185913 82.330803 Z" fill="rgba(0,0,0,1)" fill-rule="evenodd" stroke="none"/><path d="M861.28009 117.229202 Q860.000122 116.989204 849.440125 116.989204 Q838.880127 116.989204 837.600098 117.229202 L836.720093 117.229202 L836.720093 113.549202 L838.480103 113.549202 Q841.600098 113.549202 843.760071 113.309204 Q844.720093 113.069199 845.120117 112.429199 Q845.28009 112.189201 845.28009 89.869202 Q845.28009 67.629204 845.120117 67.389206 Q844.720093 66.749207 843.760071 66.509201 Q841.600098 66.269203 838.480103 66.269203 L836.720093 66.269203 L836.720093 62.589203 L837.600098 62.589203 Q838.880127 62.829205 849.440125 62.829205 Q860.000122 62.829205 861.28009 62.589203 L862.160095 62.589203 L862.160095 66.269203 L860.400085 66.269203 Q857.28009 66.269203 855.120117 66.509201 Q854.160095 66.749207 853.760071 67.389206 Q853.600098 67.629204 853.600098 89.869202 Q853.600098 112.189201 853.760071 112.429199 Q854.160095 113.069199 855.120117 113.309204 Q857.28009 113.549202 860.400085 113.549202 L862.160095 113.549202 L862.160095 117.229202 L861.28009 117.229202 L861.28009 117.229202 Z" fill="rgba(0,0,0,1)" fill-rule="evenodd" stroke="none"/><path d="M889.800903 129.229202 Q889.016907 129.061203 882.576904 129.061203 Q875.856873 129.061203 875.072876 129.229202 L874.568909 129.229202 L874.568909 126.653206 L876.304871 126.653206 Q878.712891 126.597198 879.272888 126.373199 Q879.720886 126.2612 879.944885 125.813202 Q880.000916 125.701202 880.000916 122.7892 L880.000916 119.989204 L865.496887 119.989204 L865.496887 117.4132 L873.952881 104.477203 Q882.520874 91.485199 882.632874 91.429199 Q882.744873 91.3172 883.808899 91.3172 L884.816895 91.3172 L885.152893 91.653198 L885.152893 117.4132 L890.304871 117.4132 L890.304871 119.989204 L885.152893 119.989204 L885.152893 122.8452 Q885.152893 125.141205 885.180908 125.533203 Q885.208923 125.925201 885.488892 126.2052 Q885.93689 126.597198 888.680908 126.653206 L890.304871 126.653206 L890.304871 129.229202 L889.800903 129.229202 L889.800903 129.229202 Z M880.336914 117.4132 L880.336914 98.709198 L868.072876 117.357201 L874.17688 117.4132 L880.336914 117.4132 L880.336914 117.4132 Z" fill="rgba(0,0,0,1)" fill-rule="evenodd" stroke="none"/><path d="M893.688904 60.429203 L893.688904 57.229202 L904.648865 57.229202 L904.648865 137.229202 L893.688904 137.229202 L893.688904 134.029205 L901.448914 134.029205 L901.448914 60.429203 L893.688904 60.429203 L893.688904 60.429203 Z" fill="rgba(0,0,0,1)" fill-rule="evenodd" stroke="none"/><path d="M920.311279 58.306801 Q918.743286 58.306801 917.84729 57.298801 Q916.951294 56.290802 916.951294 54.834801 Q916.951294 50.802803 920.003296 47.9188 Q923.055298 45.034801 927.311279 45.034801 Q932.127319 45.034801 935.291321 47.638802 Q938.455322 50.242802 939.183289 54.442802 Q939.295288 55.450802 939.295288 56.290802 Q939.295288 59.538803 937.335327 62.394802 Q935.767334 64.746803 931.007324 68.834801 Q928.991333 70.570801 925.407288 73.986801 L922.103333 77.122803 L926.359314 77.178802 Q935.151306 77.178802 935.711304 76.898804 Q935.935303 76.842804 936.271301 75.722801 Q936.4953 75.106804 937.055298 71.914803 L937.055298 71.746803 L939.295288 71.746803 L939.295288 71.914803 L937.727295 82.162804 L937.727295 82.330803 L916.951294 82.330803 L916.951294 81.2668 Q916.951294 80.146805 917.063293 79.978806 Q917.119324 79.866806 921.767334 74.658806 Q927.871277 67.882805 929.6073 65.698807 Q933.359314 60.602802 933.359314 56.346802 Q933.359314 52.650803 931.427307 50.158802 Q929.4953 47.666801 926.023315 47.666801 Q922.77533 47.666801 920.759277 50.578804 Q920.647278 50.802803 920.423279 51.194801 Q920.25531 51.4748 920.25531 51.5308 Q920.25531 51.5868 920.535278 51.5868 Q921.935303 51.5868 922.803284 52.594803 Q923.671326 53.602802 923.671326 54.9468 Q923.671326 56.346802 922.747314 57.326801 Q921.823303 58.306801 920.311279 58.306801 L920.311279 58.306801 Z" fill="rgba(0,0,0,1)" fill-rule="evenodd" stroke="none"/><path d="M946.855286 68.330803 Q946.855286 67.602798 947.639282 67.2108 L980.175293 67.2108 Q981.01532 67.658798 981.01532 68.330803 Q981.01532 69.0028 980.175293 69.450806 L947.639282 69.450806 Q946.855286 69.0588 946.855286 68.330803 L946.855286 68.330803 Z" fill="rgba(0,0,0,1)" fill-rule="evenodd" stroke="none"/><path d="M791.305115 171.661835 Q791.529114 171.661835 795.533142 171.353836 Q799.537109 171.045837 799.649109 171.045837 L799.817139 171.045837 L799.817139 174.909836 Q800.881104 173.117828 802.169128 172.109833 Q803.457092 171.101837 805.585144 171.101837 Q807.153137 171.101837 808.273132 171.717834 Q810.457092 172.83783 810.457092 174.909836 Q810.457092 176.14183 809.617126 176.953842 Q808.7771 177.765839 807.601135 177.765839 Q806.42511 177.765839 805.613098 176.981842 Q804.801147 176.19783 804.801147 174.965836 Q804.801147 174.01384 805.249146 173.397827 Q805.361145 173.173828 805.361145 173.117828 Q805.249146 173.005829 804.07312 173.341827 Q803.177124 173.789841 802.729126 174.181839 Q800.489136 176.30983 800.153137 181.237839 L800.153137 183.421829 Q800.097107 185.605835 800.097107 187.173828 Q800.097107 187.90184 800.097107 188.713837 Q800.097107 189.525833 800.125122 190.14183 Q800.153137 190.757843 800.153137 191.261841 Q800.153137 191.765839 800.153137 192.101837 L800.153137 192.381836 Q800.377136 192.829834 800.825134 192.941833 Q801.385132 193.165833 803.793091 193.221832 L805.529114 193.221832 L805.529114 195.797836 L805.025146 195.797836 Q804.01709 195.629837 797.913147 195.629837 Q792.42511 195.629837 791.641113 195.797836 L791.193115 195.797836 L791.193115 193.221832 L792.089111 193.221832 L792.705139 193.221832 Q795.057129 193.221832 795.505127 192.437836 L795.505127 191.989838 Q795.505127 191.48584 795.533142 190.701843 Q795.561096 189.917831 795.561096 188.937836 Q795.561096 187.95784 795.561096 186.75383 Q795.561096 185.549835 795.561096 184.42984 Q795.561096 182.693832 795.561096 180.705841 Q795.561096 178.717834 795.561096 177.42984 L795.505127 176.14183 Q795.337097 175.077835 794.693115 174.713837 Q794.049133 174.349838 792.201111 174.237839 L791.193115 174.237839 L791.193115 172.949829 Q791.193115 171.661835 791.305115 171.661835 L791.305115 171.661835 Z" fill="rgba(0,0,0,1)" fill-rule="evenodd" stroke="none"/><path d="M835.246643 182.077835 Q835.246643 182.469833 834.854675 182.861832 L819.062683 182.861832 L819.062683 183.701843 Q819.062683 187.84584 820.182678 189.973831 Q822.198669 194.117844 827.126648 194.117844 Q829.534668 194.117844 831.15863 192.325836 Q832.278625 191.205841 832.894653 189.413834 Q833.062622 188.797836 833.230652 188.629837 Q833.398682 188.461838 834.126648 188.461838 Q835.246643 188.461838 835.246643 189.021835 Q835.246643 189.245834 835.078674 189.749832 Q834.014648 192.661835 831.690674 194.537842 Q829.366638 196.413834 826.006653 196.413834 Q824.942627 196.413834 823.542664 196.133835 Q820.350647 195.517838 817.830627 193.221832 Q815.310669 190.925842 814.246643 187.677841 Q813.574646 185.661835 813.574646 183.589844 Q813.574646 178.437836 816.598633 174.881836 Q819.622681 171.325836 824.046631 170.765839 Q824.27063 170.709839 824.830627 170.709839 Q829.926636 170.709839 832.58667 173.705841 Q835.246643 176.701843 835.246643 182.077835 L835.246643 182.077835 Z M830.654663 180.397842 Q830.150635 174.293839 826.510681 173.005829 Q826.118652 172.83783 825.334656 172.78183 Q822.422668 172.78183 820.574646 175.469833 Q819.454651 177.261841 819.118652 180.453842 L819.118652 180.84584 L830.654663 180.84584 L830.654663 180.397842 L830.654663 180.397842 Z" fill="rgba(0,0,0,1)" fill-rule="evenodd" stroke="none"/><path d="M853.695862 157.549835 Q853.919861 157.549835 858.063904 157.241837 Q862.207886 156.933838 862.319885 156.933838 L862.487854 156.933838 L862.487854 173.95784 Q862.487854 191.093842 862.543884 191.261841 Q862.711853 192.381836 863.355896 192.745834 Q863.999878 193.109833 865.8479 193.221832 L866.855896 193.221832 L866.855896 195.797836 Q866.743896 195.797836 862.571899 196.077835 Q858.399902 196.357834 858.175903 196.413834 L857.783875 196.413834 L857.783875 193.333832 L857.335876 193.72583 Q854.14386 196.413834 850.055847 196.413834 Q846.135864 196.413834 843.111877 193.78183 Q839.639893 190.701843 838.855896 185.717834 Q838.799866 185.269836 838.799866 183.757843 Q838.799866 178.325836 842.271851 174.685837 Q845.743896 171.045837 850.559875 171.045837 Q854.703857 171.045837 857.951904 173.789841 L857.951904 168.077835 Q857.951904 162.25383 857.895874 162.029831 Q857.727905 160.965836 857.083862 160.601837 Q856.43988 160.237839 854.591858 160.125839 L853.583862 160.125839 L853.583862 158.83783 Q853.583862 157.549835 853.695862 157.549835 L853.695862 157.549835 Z M857.783875 176.645844 Q855.263855 173.117828 851.455872 173.117828 Q848.711853 173.117828 846.583862 175.133835 Q845.183899 176.589844 844.707886 178.549835 Q844.231873 180.509842 844.231873 183.981842 Q844.231873 190.19783 846.583862 192.493835 Q848.319885 194.341843 850.951904 194.341843 Q852.911865 194.341843 854.703857 193.277832 Q856.49585 192.213837 857.559875 190.365829 L857.783875 190.029831 L857.783875 176.645844 L857.783875 176.645844 Z" fill="rgba(0,0,0,1)" fill-rule="evenodd" stroke="none"/></svg>