<svg xmlns="http://www.w3.org/2000/svg" viewBox="0 0 419.482529 144.5404" width="419.482529" height="144.5404"><path d="M20.119999 65.17588 L40.080002 65.17588 L40.080002 76.415886 L20.119999 76.415886 L20.119999 65.17588 Z M20.119999 62.215881 L20.119999 51.375885 L40.080002 51.375885 L40.080002 62.215881 L20.119999 62.215881 Z M17.040001 48.375885 L17.040001 82.015884 L20.119999 82.015884 L20.119999 79.415886 L40.080002 79.415886 L40.080002 81.81588 L43.279999 81.81588 L43.279999 48.375885 L17.040001 48.375885 Z" fill="rgba(0,0,0,1)" fill-rule="nonzero" stroke="none"/><path d="M68.400002 45.695885 L68.400002 54.095882 L52.599998 54.095882 L52.599998 57.135883 L64.68 57.135883 C61.759998 63.935883 56.799999 70.415878 51.48 73.655884 C52.200001 74.255882 53.200001 75.335884 53.68 76.095886 C59.48 72.13588 64.639999 64.975883 67.760002 57.135883 L68.400002 57.135883 L68.400002 71.935883 L59.040001 71.935883 L59.040001 74.975883 L68.400002 74.975883 L68.400002 82.455879 L71.559998 82.455879 L71.559998 74.975883 L80.879997 74.975883 L80.879997 71.935883 L71.559998 71.935883 L71.559998 57.135883 L72.119995 57.135883 C75.160004 64.975883 80.32 72.17588 86.239998 76.015884 C86.800003 75.17588 87.839996 74.015884 88.599998 73.415886 C83.040001 70.215881 78 63.895882 75.119995 57.135883 L87.479996 57.135883 L87.479996 54.095882 L71.559998 54.095882 L71.559998 45.695885 L68.400002 45.695885 Z" fill="rgba(0,0,0,1)" fill-rule="nonzero" stroke="none"/><path d="M93.400002 57.735882 L93.400002 60.135883 L105.120003 60.135883 L105.120003 57.735882 L93.400002 57.735882 Z M93.400002 63.015884 L93.400002 65.375885 L105.120003 65.375885 L105.120003 63.015884 L93.400002 63.015884 Z M91.760002 52.455883 L91.760002 54.935883 L106.479996 54.935883 L106.479996 52.455883 L91.760002 52.455883 Z M96.279999 46.695885 C97.360001 48.295883 98.639999 50.615883 99.239998 52.055885 L101.68 50.655884 C101.080002 49.215881 99.760002 47.095882 98.599998 45.495884 L96.279999 46.695885 Z M93.400002 68.335884 L93.400002 81.935883 L96.040001 81.935883 L96.040001 80.015884 L105.360001 80.015884 L105.360001 68.335884 L93.400002 68.335884 Z M96.040001 70.855881 L102.720001 70.855881 L102.720001 77.49588 L96.040001 77.49588 L96.040001 70.855881 Z M108.32 67.975883 L108.32 82.455879 L111.119995 82.455879 L111.119995 80.695885 L123.080002 80.695885 L123.080002 82.335884 L126 82.335884 L126 67.975883 L108.32 67.975883 Z M111.119995 78.055885 L111.119995 70.615883 L123.080002 70.615883 L123.080002 78.055885 L111.119995 78.055885 Z M108.080002 54.015884 L108.080002 56.575882 L112.68 56.575882 C112.239998 58.735882 111.839996 60.855881 111.400002 62.575882 L106.080002 62.575882 L106.080002 65.13588 L128.479996 65.13588 L128.479996 62.575882 L124.68 62.575882 L124.68 54.015884 L116.040001 54.015884 L116.800003 49.895882 L127.599998 49.895882 L127.599998 47.335884 L107.119995 47.335884 L107.119995 49.895882 L113.800003 49.895882 L113.119995 54.015884 L108.080002 54.015884 Z M121.839996 62.575882 L114.360001 62.575882 C114.720001 60.855881 115.160004 58.775883 115.599998 56.575882 L121.839996 56.575882 L121.839996 62.575882 Z" fill="rgba(0,0,0,1)" fill-rule="nonzero" stroke="none"/><path d="M140 59.815884 C141.600006 59.815884 143.039993 58.655884 143.039993 56.855881 C143.039993 55.015884 141.600006 53.815884 140 53.815884 C138.399994 53.815884 136.960007 55.015884 136.960007 56.855881 C136.960007 58.655884 138.399994 59.815884 140 59.815884 L140 59.815884 Z M140 79.415886 C141.600006 79.415886 143.039993 78.215881 143.039993 76.415886 C143.039993 74.575882 141.600006 73.415886 140 73.415886 C138.399994 73.415886 136.960007 74.575882 136.960007 76.415886 C136.960007 78.215881 138.399994 79.415886 140 79.415886 L140 79.415886 Z" fill="rgba(0,0,0,1)" fill-rule="nonzero" stroke="none"/><path d="M172.399994 41.335678 Q172.520004 41.255676 196.600006 41.255676 L220.679993 41.255676 L223 46.655678 Q223.520004 47.895676 224.160004 49.415676 Q224.800003 50.935677 225.100006 51.615677 Q225.399994 52.295677 225.520004 52.495674 L223.919998 52.495674 L223.639999 51.935677 Q222 48.655678 218.440002 46.575676 Q213.959991 43.855679 205.800003 43.335678 Q203.839996 43.215675 191.720001 43.175678 L180.039993 43.175678 L180.360001 43.615677 Q198.880005 68.935677 198.959991 69.175674 Q199 69.255676 198.959991 69.41568 L177.839996 93.495674 Q177.839996 93.535675 186.279999 93.535675 Q203.279999 93.535675 204.639999 93.455673 Q210.119995 93.175674 213.080002 92.455673 Q218.959991 91.015678 222.279999 87.095673 Q223.119995 86.015678 223.919998 84.215675 L225.520004 84.215675 Q225.399994 84.455673 223 91.015678 L220.679993 97.215675 L196.639999 97.255676 Q172.559998 97.255676 172.440002 97.175674 Q172.199997 97.095673 172.199997 96.815674 Q172.199997 96.735672 172.279999 96.575676 L173.679993 95.015678 Q175.039993 93.41568 177.720001 90.355675 Q180.399994 87.295677 183 84.375679 Q193.639999 72.255676 193.600006 72.175674 Q193.600006 72.135674 192.279999 70.355675 Q190.959991 68.575676 188.059998 64.595673 Q185.160004 60.615677 182.880005 57.495674 L172.240005 42.895676 L172.199997 42.295677 Q172.199997 41.455677 172.399994 41.335678 L172.399994 41.335678 Z" fill="rgba(0,0,0,1)" fill-rule="nonzero" stroke="none"/><path d="M193.509781 26.36368 Q193.117783 26.36368 192.837784 26.153679 Q192.557785 25.94368 192.557785 25.579679 Q192.557785 25.215679 193.62178 21.015678 Q194.685776 16.815678 194.741776 16.451679 Q194.769775 16.31168 194.769775 15.807679 Q194.769775 14.715679 194.097778 14.715679 Q193.453781 14.715679 192.921783 15.751679 Q192.613785 16.33968 192.333786 17.515678 Q192.165771 18.07568 192.165771 18.10368 Q192.109772 18.271679 191.633774 18.271679 L191.241776 18.271679 Q191.073776 18.10368 191.073776 18.01968 Q191.073776 17.907679 191.213776 17.431679 Q192.053772 14.127679 193.78978 13.735679 Q194.013779 13.679679 194.265778 13.679679 Q195.917786 13.679679 196.645782 14.939679 Q196.953781 15.471679 196.953781 15.723679 Q196.953781 15.779679 196.981781 15.779679 L197.28978 15.471679 Q199.025772 13.679679 201.181778 13.679679 Q202.721771 13.679679 203.645782 14.435679 Q204.569778 15.191679 204.569778 16.647678 Q204.569778 17.291679 204.485779 17.711679 Q204.20578 19.307678 202.945786 22.611679 Q202.441772 23.955679 202.441772 24.59968 Q202.441772 25.327679 202.917786 25.327679 Q203.869781 25.327679 204.555786 24.319679 Q205.241776 23.31168 205.605774 21.99568 Q205.661774 21.771679 206.165771 21.771679 Q206.725784 21.771679 206.725784 21.967678 Q206.725784 22.163679 206.613785 22.41568 Q205.885773 25.01968 203.981781 26.083679 Q203.477783 26.33568 202.777786 26.33568 Q201.713776 26.33568 200.957779 25.663679 Q200.285782 24.879679 200.285782 24.011679 Q200.285782 23.479679 200.67778 22.44368 Q201.909775 19.167679 202.245773 17.459679 Q202.329773 17.039679 202.329773 16.395679 Q202.329773 14.743679 200.957779 14.743679 Q200.453781 14.743679 200.229782 14.799679 Q198.269775 15.219679 196.897781 17.571678 L196.701782 17.907679 L195.777786 21.659679 Q194.853775 25.327679 194.713776 25.607679 Q194.349777 26.36368 193.509781 26.36368 L193.509781 26.36368 Z" fill="rgba(0,0,0,1)" fill-rule="nonzero" stroke="none"/><path d="M177.106964 111.416405 Q177.134964 111.416405 179.136963 111.262405 Q181.138962 111.108406 181.166962 111.108406 Q181.50296 111.108406 181.50296 111.332405 Q181.50296 111.584404 180.102966 117.198402 Q178.702972 122.812408 178.702972 122.924408 Q179.458969 122.476402 179.766968 122.224403 Q180.074966 121.972404 181.054962 121.020401 Q182.73497 119.340408 183.406967 118.920403 Q184.526962 118.164406 185.534973 118.164406 Q186.374969 118.164406 186.86496 118.724403 Q187.354965 119.284409 187.354965 120.208405 Q187.354965 121.216408 186.878967 121.846405 Q186.402969 122.476402 185.534973 122.476402 Q185.00296 122.476402 184.652969 122.168404 Q184.302963 121.860405 184.302963 121.356407 Q184.302963 120.656403 184.778961 120.166405 Q185.254959 119.676407 185.898972 119.592407 L186.094971 119.536407 Q185.758972 119.200409 185.422974 119.200409 Q184.470963 119.200409 183.182968 120.152405 Q182.65097 120.572403 181.55896 121.664406 Q180.270966 122.924408 179.654968 123.400406 Q180.998962 123.708405 181.44696 123.876404 Q182.79097 124.408401 183.238968 125.332405 Q183.490967 125.836403 183.490967 126.424408 Q183.490967 126.788406 183.33696 127.628403 Q183.182968 128.468399 183.182968 128.692398 Q183.182968 129.812408 183.938965 129.812408 Q184.442963 129.812408 184.862961 129.39241 Q185.562973 128.692398 186.122971 126.480408 Q186.17897 126.256409 186.682968 126.256409 Q187.074966 126.256409 187.130966 126.312408 Q187.298965 126.424408 187.158966 126.900406 Q186.402969 129.44841 185.226959 130.344406 Q184.526962 130.848404 183.854965 130.848404 Q182.566971 130.848404 181.796967 130.0784 Q181.026962 129.308411 181.026962 128.020401 Q181.026962 127.768402 181.110962 127.236404 Q181.194962 126.704407 181.194962 126.480408 Q181.194962 126.116402 181.026962 125.780403 Q180.662964 125.080406 179.654968 124.688408 Q178.730972 124.380402 178.366959 124.380402 L178.310959 124.380402 L177.97496 125.668404 Q177.666962 126.928406 177.316971 128.3284 Q176.966965 129.728409 176.882965 129.952408 Q176.742966 130.316406 176.378967 130.582413 Q176.014969 130.848404 175.594971 130.848404 Q175.258972 130.848404 174.936966 130.638412 Q174.61496 130.428406 174.61496 130.092407 Q174.61496 129.812408 175.636963 125.612404 Q176.658966 121.412407 177.694962 117.352402 L178.730972 113.292404 Q178.786972 112.900406 178.548965 112.802406 Q178.310959 112.704407 177.750961 112.704407 Q177.666962 112.704407 177.638962 112.704407 Q177.610962 112.704407 177.554962 112.704407 Q177.498962 112.704407 177.442963 112.704407 Q176.854965 112.704407 176.770966 112.620407 Q176.602966 112.480408 176.742966 111.948402 Q176.854965 111.556404 176.938965 111.500404 Q177.022964 111.416405 177.106964 111.416405 L177.106964 111.416405 Z" fill="rgba(0,0,0,1)" fill-rule="nonzero" stroke="none"/><path d="M190.297195 120.824402 Q190.297195 120.460403 190.689209 120.264404 L208.525208 120.264404 Q208.945206 120.460403 208.945206 120.824402 Q208.945206 121.132408 208.553207 121.356407 L199.6492 121.384407 L190.745209 121.384407 Q190.297195 121.244408 190.297195 120.824402 L190.297195 120.824402 Z M190.297195 126.256409 Q190.297195 125.836403 190.745209 125.696404 L208.553207 125.696404 Q208.581207 125.724403 208.679199 125.794403 Q208.777206 125.864403 208.819199 125.906403 Q208.861206 125.948402 208.903198 126.046402 Q208.945206 126.144409 208.945206 126.256409 Q208.945206 126.620407 208.525208 126.816406 L190.689209 126.816406 Q190.297195 126.620407 190.297195 126.256409 L190.297195 126.256409 Z" fill="rgba(0,0,0,1)" fill-rule="nonzero" stroke="none"/><path d="M213.195038 114.1604 Q214.763031 111.892403 217.479034 111.892403 Q219.523041 111.892403 221.063034 113.292404 Q221.819031 114.020401 222.351028 115.196404 Q223.387039 117.520401 223.387039 121.580406 Q223.387039 125.920403 222.183029 128.2164 Q221.399033 129.840408 219.887039 130.568405 Q218.711029 131.156403 217.507034 131.156403 Q214.287033 131.156403 212.80304 128.2164 Q211.59903 125.920403 211.59903 121.580406 Q211.59903 118.976402 211.949036 117.282402 Q212.299042 115.588402 213.195038 114.1604 L213.195038 114.1604 Z M219.495041 113.824402 Q218.683029 112.928406 217.507034 112.928406 Q216.331039 112.928406 215.491028 113.824402 Q214.875031 114.468407 214.651031 115.392403 Q214.427032 116.316406 214.371033 118.584404 Q214.371033 118.752403 214.35704 119.676407 Q214.343033 120.600403 214.343033 121.216408 Q214.343033 123.904404 214.399033 124.968407 Q214.511032 126.928406 214.735031 127.782402 Q214.95903 128.636398 215.575027 129.252411 Q216.331039 130.092407 217.507034 130.092407 Q218.655029 130.092407 219.411041 129.252411 Q220.027039 128.636398 220.251038 127.782402 Q220.475037 126.928406 220.587036 124.968407 Q220.643036 123.904404 220.643036 121.216408 Q220.643036 120.600403 220.629028 119.676407 Q220.615036 118.752403 220.615036 118.584404 Q220.559036 116.316406 220.335037 115.392403 Q220.111038 114.468407 219.495041 113.824402 L219.495041 113.824402 Z" fill="rgba(0,0,0,1)" fill-rule="nonzero" stroke="none"/><path d="M262.48468 116.855881 Q262.48468 116.975876 262.244659 117.215881 L261.004669 117.215881 L260.844666 117.055878 Q259.644684 116.095886 257.364685 113.655884 Q244.964676 100.015884 243.084671 77.13588 Q242.804672 73.935883 242.804672 69.215881 Q242.804672 64.575882 243.084671 61.295883 Q244.964676 38.455883 257.364685 24.815884 Q259.644684 22.375885 260.844666 21.415882 L261.004669 21.255882 L262.244659 21.255882 Q262.48468 21.495884 262.48468 21.615883 Q262.48468 21.775883 262.044678 22.255882 Q254.244675 30.335884 250.464676 41.895882 Q246.684677 53.455883 246.684677 69.255882 Q246.684677 81.935883 249.244675 92.17588 Q252.924667 106.735886 262.044678 116.215881 Q262.48468 116.695877 262.48468 116.855881 L262.48468 116.855881 Z" fill="rgba(0,0,0,1)" fill-rule="nonzero" stroke="none"/><path d="M268.209076 52.615879 Q267.649078 52.615879 267.249054 52.31588 Q266.84906 52.015881 266.84906 51.49588 Q266.84906 50.97588 268.36908 44.97588 Q269.889069 38.97588 269.969055 38.455879 Q270.009064 38.255882 270.009064 37.535881 Q270.009064 35.975883 269.049072 35.975883 Q268.129059 35.975883 267.36908 37.455879 Q266.929077 38.295879 266.529083 39.97588 Q266.289062 40.775879 266.289062 40.81588 Q266.209076 41.055882 265.529083 41.055882 L264.969055 41.055882 Q264.729065 40.81588 264.729065 40.695881 Q264.729065 40.535881 264.929077 39.855881 Q266.129059 35.13588 268.60907 34.575882 Q268.929077 34.49588 269.289062 34.49588 Q271.649078 34.49588 272.689056 36.295879 Q273.129059 37.055882 273.129059 37.415882 Q273.129059 37.49588 273.169067 37.49588 L273.60907 37.055882 Q276.089081 34.49588 279.169067 34.49588 Q281.36908 34.49588 282.689056 35.575882 Q284.009064 36.65588 284.009064 38.735882 Q284.009064 39.65588 283.889069 40.255882 Q283.489075 42.535881 281.689056 47.255882 Q280.969055 49.17588 280.969055 50.095879 Q280.969055 51.13588 281.649078 51.13588 Q283.009064 51.13588 283.989075 49.695881 Q284.969055 48.255882 285.489075 46.375881 Q285.569061 46.055882 286.289062 46.055882 Q287.089081 46.055882 287.089081 46.33588 Q287.089081 46.615879 286.929077 46.97588 Q285.889069 50.695881 283.169067 52.215881 Q282.449066 52.575882 281.449066 52.575882 Q279.929077 52.575882 278.84906 51.615879 Q277.889069 50.49588 277.889069 49.255882 Q277.889069 48.49588 278.449066 47.015881 Q280.209076 42.33588 280.689056 39.895882 Q280.809082 39.295879 280.809082 38.375881 Q280.809082 36.015881 278.84906 36.015881 Q278.129059 36.015881 277.809082 36.095879 Q275.009064 36.695881 273.049072 40.055882 L272.769073 40.535881 L271.449066 45.895882 Q270.129059 51.13588 269.929077 51.535881 Q269.409058 52.615879 268.209076 52.615879 L268.209076 52.615879 Z" fill="rgba(0,0,0,1)" fill-rule="nonzero" stroke="none"/><path d="M270.332092 79.375877 Q270.37207 79.375877 273.232086 79.155876 Q276.092072 78.935875 276.13208 78.935875 Q276.612091 78.935875 276.612091 79.255875 Q276.612091 79.615875 274.612091 87.63588 Q272.612091 95.655876 272.612091 95.81588 Q273.692078 95.17588 274.13208 94.81588 Q274.572083 94.455879 275.972076 93.095879 Q278.37207 90.695877 279.332092 90.095879 Q280.932068 89.015877 282.37207 89.015877 Q283.572083 89.015877 284.272095 89.81588 Q284.972076 90.615875 284.972076 91.935875 Q284.972076 93.375877 284.292084 94.275879 Q283.612091 95.17588 282.37207 95.17588 Q281.612091 95.17588 281.112091 94.735878 Q280.612091 94.295876 280.612091 93.575874 Q280.612091 92.575874 281.292084 91.875877 Q281.972076 91.17588 282.89209 91.055878 L283.172089 90.975876 Q282.692078 90.49588 282.212067 90.49588 Q280.852081 90.49588 279.012085 91.855881 Q278.252075 92.455879 276.692078 94.015877 Q274.852081 95.81588 273.972076 96.49588 Q275.89209 96.935875 276.532074 97.17588 Q278.452087 97.935875 279.092072 99.255875 Q279.452087 99.975876 279.452087 100.81588 Q279.452087 101.335876 279.232086 102.535873 Q279.012085 103.735878 279.012085 104.055878 Q279.012085 105.655876 280.092072 105.655876 Q280.812073 105.655876 281.412079 105.055878 Q282.412079 104.055878 283.212067 100.895874 Q283.292084 100.575874 284.012085 100.575874 Q284.572083 100.575874 284.652069 100.655876 Q284.89209 100.81588 284.692078 101.49588 Q283.612091 105.13588 281.932068 106.415878 Q280.932068 107.13588 279.972076 107.13588 Q278.13208 107.13588 277.032074 106.035873 Q275.932068 104.935875 275.932068 103.095879 Q275.932068 102.735878 276.052094 101.975876 Q276.172089 101.215874 276.172089 100.895874 Q276.172089 100.375877 275.932068 99.895874 Q275.412079 98.895874 273.972076 98.335876 Q272.652069 97.895874 272.13208 97.895874 L272.052094 97.895874 L271.572083 99.735878 Q271.13208 101.535873 270.63208 103.535873 Q270.13208 105.535873 270.012085 105.855881 Q269.812073 106.375877 269.292084 106.755875 Q268.772095 107.13588 268.172089 107.13588 Q267.692078 107.13588 267.232086 106.835876 Q266.772095 106.535873 266.772095 106.055878 Q266.772095 105.655876 268.232086 99.655876 Q269.692078 93.655876 271.172089 87.855881 L272.652069 82.055878 Q272.732086 81.49588 272.39209 81.355881 Q272.052094 81.215881 271.252075 81.215881 Q271.13208 81.215881 271.092072 81.215881 Q271.052094 81.215881 270.972076 81.215881 Q270.89209 81.215881 270.812073 81.215881 Q269.972076 81.215881 269.852081 81.095879 Q269.612091 80.895874 269.812073 80.13588 Q269.972076 79.575882 270.092072 79.49588 Q270.212067 79.375877 270.332092 79.375877 L270.332092 79.375877 Z" fill="rgba(0,0,0,1)" fill-rule="nonzero" stroke="none"/><path d="M305.01825 69.215881 Q305.01825 37.495884 289.25824 21.735882 Q289.25824 21.415882 289.418243 21.335884 Q289.578247 21.255882 290.138245 21.255882 L290.738251 21.255882 L290.898254 21.415882 Q292.098267 22.375885 294.378265 24.815884 Q306.778259 38.455883 308.658264 61.295883 Q308.938263 64.575882 308.938263 69.215881 Q308.938263 73.895882 308.658264 77.13588 Q306.778259 100.015884 294.378265 113.655884 Q292.098267 116.095886 290.898254 117.055878 L290.738251 117.215881 L290.138245 117.215881 Q289.538269 117.215881 289.398254 117.13588 Q289.25824 117.055878 289.25824 116.735886 Q291.138245 114.855881 293.49826 111.775879 Q305.01825 96.415878 305.01825 69.215881 L305.01825 69.215881 Z" fill="rgba(0,0,0,1)" fill-rule="nonzero" stroke="none"/><path d="M330.693756 65.375885 Q330.693756 64.855881 331.253754 64.575882 L356.733765 64.575882 Q357.333771 64.855881 357.333771 65.375885 Q357.333771 65.81588 356.773773 66.13588 L344.053772 66.17588 L331.333771 66.17588 Q330.693756 65.975883 330.693756 65.375885 L330.693756 65.375885 Z M330.693756 73.13588 Q330.693756 72.535881 331.333771 72.335884 L356.773773 72.335884 Q356.813751 72.375885 356.953766 72.475883 Q357.09375 72.575882 357.153778 72.63588 Q357.213776 72.695885 357.273773 72.835884 Q357.333771 72.975883 357.333771 73.13588 Q357.333771 73.655884 356.733765 73.935883 L331.253754 73.935883 Q330.693756 73.655884 330.693756 73.13588 L330.693756 73.13588 Z" fill="rgba(0,0,0,1)" fill-rule="nonzero" stroke="none"/><path d="M375.07608 62.095882 Q373.956085 62.095882 373.316101 61.375885 Q372.676086 60.655884 372.676086 59.615883 Q372.676086 56.735886 374.856079 54.67588 Q377.036072 52.615883 380.07608 52.615883 Q383.516083 52.615883 385.776093 54.475883 Q388.036072 56.335884 388.556091 59.335884 Q388.636078 60.055885 388.636078 60.655884 Q388.636078 62.975883 387.236084 65.015884 Q386.116089 66.695885 382.716095 69.615883 Q381.276093 70.855881 378.716095 73.295883 L376.356079 75.535881 L379.396088 75.575882 Q385.676086 75.575882 386.07608 75.375885 Q386.236084 75.335884 386.476074 74.535881 Q386.636078 74.095886 387.036072 71.81588 L387.036072 71.695885 L388.636078 71.695885 L388.636078 71.81588 L387.516083 79.13588 L387.516083 79.255882 L372.676086 79.255882 L372.676086 78.49588 Q372.676086 77.695885 372.756073 77.575882 Q372.796082 77.49588 376.116089 73.775879 Q380.476074 68.935883 381.716095 67.375885 Q384.396088 63.735882 384.396088 60.695885 Q384.396088 58.055885 383.016083 56.275883 Q381.636078 54.49588 379.156097 54.49588 Q376.83609 54.49588 375.396088 56.575882 Q375.316101 56.735886 375.156097 57.015884 Q375.036072 57.215881 375.036072 57.255882 Q375.036072 57.295883 375.236084 57.295883 Q376.236084 57.295883 376.856079 58.015884 Q377.476074 58.735882 377.476074 59.695885 Q377.476074 60.695885 376.816101 61.395882 Q376.156097 62.095882 375.07608 62.095882 L375.07608 62.095882 Z" fill="rgba(0,0,0,1)" fill-rule="nonzero" stroke="none"/><path d="M393.700073 63.04388 Q393.308075 63.04388 393.028076 62.833881 Q392.748077 62.623882 392.748077 62.25988 Q392.748077 61.895882 393.812073 57.695881 Q394.876099 53.49588 394.932098 53.131882 Q394.960083 52.991882 394.960083 52.487881 Q394.960083 51.395882 394.288086 51.395882 Q393.644073 51.395882 393.112091 52.431881 Q392.804077 53.019882 392.524078 54.195881 Q392.356079 54.755882 392.356079 54.783882 Q392.300079 54.951881 391.824097 54.951881 L391.432098 54.951881 Q391.264099 54.783882 391.264099 54.699883 Q391.264099 54.587883 391.404083 54.111881 Q392.24408 50.80788 393.980072 50.415882 Q394.204102 50.359882 394.456085 50.359882 Q396.108093 50.359882 396.83609 51.619881 Q397.144073 52.151882 397.144073 52.403881 Q397.144073 52.459881 397.172089 52.459881 L397.480072 52.151882 Q399.216095 50.359882 401.372101 50.359882 Q402.912079 50.359882 403.83609 51.115883 Q404.760101 51.87188 404.760101 53.327881 Q404.760101 53.971882 404.676086 54.391884 Q404.396088 55.987881 403.136078 59.291882 Q402.63208 60.635883 402.63208 61.279881 Q402.63208 62.007881 403.108093 62.007881 Q404.060089 62.007881 404.746094 60.999882 Q405.432098 59.991882 405.796082 58.67588 Q405.852081 58.451881 406.356079 58.451881 Q406.916077 58.451881 406.916077 58.647881 Q406.916077 58.84388 406.804077 59.095882 Q406.07608 61.699883 404.172089 62.763882 Q403.668091 63.015881 402.968079 63.015881 Q401.904083 63.015881 401.148071 62.343884 Q400.476074 61.559883 400.476074 60.691883 Q400.476074 60.159882 400.868073 59.123882 Q402.100098 55.847881 402.436096 54.139881 Q402.520081 53.719879 402.520081 53.075882 Q402.520081 51.423882 401.148071 51.423882 Q400.644073 51.423882 400.420074 51.479881 Q398.460083 51.899879 397.088074 54.251881 L396.89209 54.587883 L395.968079 58.339882 Q395.044098 62.007881 394.904083 62.28788 Q394.5401 63.04388 393.700073 63.04388 L393.700073 63.04388 Z" fill="rgba(0,0,0,1)" fill-rule="nonzero" stroke="none"/></svg>