<svg xmlns="http://www.w3.org/2000/svg" viewBox="0 0 50 61.3332" width="50" height="61.3332"><path d="M20.200001 51.333199 Q19.48 51.2132 15.6 51.2132 Q12.04 51.2132 11.559999 51.333199 L11.28 51.333199 L11.28 49.493198 L11.88 49.493198 Q14.76 49.373199 15.559999 47.813198 Q15.6 47.693199 17.68 41.513199 Q19.76 35.333199 21.82 29.193199 Q23.880001 23.0532 23.92 23.013199 Q24.040001 22.693199 24.68 22.693199 L25.040001 22.693199 Q25.84 22.7332 26 22.9732 Q26.039999 23.013199 29.879999 34.4132 Q33.720001 45.813198 34.68 48.653198 Q34.799999 48.8932 34.959999 49.0532 Q35.400002 49.453197 37.48 49.493198 L38.68 49.493198 L38.68 51.333199 L38.32 51.333199 Q37.720001 51.2132 33.239998 51.2132 Q28.08 51.2132 27.48 51.333199 L27.08 51.333199 L27.08 49.493198 L27.6 49.493198 Q30.4 49.493198 30.4 48.773197 Q30.4 48.693199 29.439999 45.813198 L28.48 42.973198 L19.16 42.973198 L18.360001 45.333199 Q17.559999 47.693199 17.559999 47.933197 Q17.559999 48.133198 17.68 48.293198 Q17.92 48.813198 18.700001 49.153198 Q19.48 49.493198 20.360001 49.493198 L20.559999 49.493198 L20.559999 51.333199 L20.200001 51.333199 L20.200001 51.333199 Z M26.639999 37.453197 Q25.48 33.973198 24.599998 31.413198 L23.799999 29.0532 L21.799999 35.0532 L19.76 41.093201 Q19.76 41.133198 23.799999 41.133198 L27.879999 41.133198 L26.639999 37.453197 L26.639999 37.453197 Z" fill="rgba(0,0,0,1)" fill-rule="evenodd" stroke="none"/><path d="M20.92 11.8976 Q21.24 10.7376 22.279999 9.9576 Q23.32 9.177601 24.759998 9.177601 Q27.799999 9.177601 28.84 11.3776 Q29.08 11.8976 29.08 12.617599 Q29.08 13.3776 28.84 13.8976 Q27.799999 16.097599 24.959999 16.097599 Q23.4 16.097599 22.32 15.337601 Q21.24 14.5776 20.92 13.3776 Q20.880001 13.2176 20.880001 12.6576 Q20.880001 12.0576 20.92 11.8976 L20.92 11.8976 Z M25 14.617599 Q26.48 14.617599 27 14.2376 Q27.52 13.857599 27.52 12.6576 Q27.52 11.017599 26.279999 10.697599 Q26.08 10.6576 25.119999 10.6576 Q24.92 10.6576 24.66 10.6376 Q24.4 10.617599 24.360001 10.617599 Q23.360001 10.617599 22.92 11.0776 Q22.48 11.5376 22.48 12.617599 Q22.48 13.777599 22.92 14.177599 Q23.4 14.617599 25 14.617599 L25 14.617599 Z" fill="rgba(0,0,0,1)" fill-rule="evenodd" stroke="none"/></svg>