<svg xmlns="http://www.w3.org/2000/svg" viewBox="0 0 104.0092 116.0012" width="104.0092" height="116.0012"><path d="M34.720001 105.720001 L34.48 105.959999 L33.279999 105.959999 L32.720001 105.720001 Q28.879999 104.119995 26.440001 101.619995 Q24 99.119995 23.279999 96.119995 Q23.08 95.279999 23.059999 94.099998 Q23.040001 92.919998 23 82 Q22.959999 69.120003 22.92 68.720001 Q22.439999 65.599998 20.48 63.02 Q18.52 60.439999 15.76 58.959999 Q15.68 58.919998 15.6 58.880001 Q15.24 58.32 15.2 58 Q15.2 57.599998 15.24 57.440002 Q15.28 57.279999 15.36 57.220001 Q15.440001 57.16 15.76 57 Q18.52 55.560001 20.48 53 Q22.439999 50.440002 22.92 47.239998 Q22.959999 46.84 23 33.959999 Q23.040001 23.040001 23.059999 21.84 Q23.08 20.639999 23.279999 19.799999 Q24.759998 13.68 32.639999 10.280003 L33.279999 10 L34.48 10 L34.720001 10.240002 L34.720001 10.84 Q34.720001 11.48 34.639999 11.560001 Q34.639999 11.639999 34.239998 11.800003 Q32.799999 12.52 31.76 13.32 Q27.959999 16.240002 27.16 20 Q27 20.799999 26.98 21.920002 Q26.959999 23.040001 26.92 33.959999 Q26.879999 44.84 26.859999 46.040001 Q26.84 47.239998 26.639999 48.080002 Q26.039999 50.84 24.02 53.240002 Q22 55.639999 18.84 57.32 Q18.720001 57.400002 18.48 57.52 Q18.24 57.639999 18.099998 57.720001 Q17.959999 57.799999 17.879999 57.84 L17.52 57.959999 L18.200001 58.32 Q21.599998 60 23.799999 62.5 Q26 65 26.639999 67.879997 Q26.84 68.720001 26.859999 69.919998 Q26.879999 71.120003 26.92 81.959999 Q26.92 83.879997 26.92 86.879997 Q26.959999 95.080002 27.119999 95.760002 Q27.16 95.879997 27.16 95.959999 Q27.959999 99.720001 31.76 102.639999 Q32.799999 103.440002 34.239998 104.160004 Q34.639999 104.32 34.639999 104.399994 Q34.720001 104.479996 34.720001 105.119995 L34.720001 105.720001 L34.720001 105.720001 Z" fill="rgba(0,0,0,1)" fill-rule="evenodd" stroke="none"/><path d="M44.32 41.359997 Q43.759998 41.359997 43.360001 41.059998 Q42.959999 40.759998 42.959999 40.239998 Q42.959999 39.719997 44.48 33.719997 Q46 27.719997 46.080002 27.199999 Q46.119999 26.999998 46.119999 26.279999 Q46.119999 24.719999 45.16 24.719999 Q44.239998 24.719999 43.48 26.199999 Q43.040001 27.039997 42.639999 28.719997 Q42.400002 29.519999 42.400002 29.559998 Q42.32 29.799999 41.639999 29.799999 L41.080002 29.799999 Q40.84 29.559998 40.84 29.439999 Q40.84 29.279999 41.040001 28.599998 Q42.240002 23.879999 44.720001 23.319998 Q45.040001 23.239998 45.400002 23.239998 Q47.759998 23.239998 48.799999 25.039997 Q49.239998 25.799999 49.239998 26.16 Q49.239998 26.239998 49.279999 26.239998 L49.720001 25.799999 Q52.200001 23.239998 55.279999 23.239998 Q57.48 23.239998 58.799999 24.319998 Q60.119999 25.399998 60.119999 27.48 Q60.119999 28.399998 60 28.999998 Q59.599998 31.279999 57.799999 36 Q57.080002 37.919998 57.080002 38.839996 Q57.080002 39.879997 57.760002 39.879997 Q59.119999 39.879997 60.099998 38.439999 Q61.080002 37 61.599998 35.119999 Q61.68 34.799999 62.400002 34.799999 Q63.199997 34.799999 63.199997 35.079998 Q63.199997 35.359997 63.040001 35.719997 Q62 39.439999 59.279999 40.959999 Q58.559998 41.32 57.559998 41.32 Q56.040001 41.32 54.959999 40.359997 Q54 39.239998 54 38 Q54 37.239998 54.559998 35.759998 Q56.32 31.079998 56.799999 28.639999 Q56.919998 28.039997 56.919998 27.119999 Q56.919998 24.759998 54.959999 24.759998 Q54.239998 24.759998 53.919998 24.839998 Q51.119999 25.439999 49.16 28.799999 L48.880001 29.279999 L47.560001 34.639999 Q46.239998 39.879997 46.040001 40.279999 Q45.52 41.359997 44.32 41.359997 L44.32 41.359997 Z" fill="rgba(0,0,0,1)" fill-rule="evenodd" stroke="none"/><path d="M47.072601 68.120003 Q47.112602 68.120003 49.972603 67.900002 Q52.832603 67.68 52.872601 67.68 Q53.3526 67.68 53.3526 68 Q53.3526 68.360001 51.3526 76.380005 Q49.3526 84.400002 49.3526 84.560005 Q50.432602 83.920006 50.872601 83.560005 Q51.312599 83.200005 52.712601 81.840004 Q55.112602 79.440002 56.072601 78.840004 Q57.6726 77.760002 59.112602 77.760002 Q60.312599 77.760002 61.012604 78.560005 Q61.712601 79.360001 61.712601 80.68 Q61.712601 82.120003 61.0326 83.020004 Q60.3526 83.920006 59.112602 83.920006 Q58.3526 83.920006 57.8526 83.480003 Q57.3526 83.040001 57.3526 82.32 Q57.3526 81.32 58.0326 80.620003 Q58.712601 79.920006 59.632599 79.800003 L59.912601 79.720001 Q59.432602 79.240005 58.952599 79.240005 Q57.592602 79.240005 55.752602 80.600006 Q54.992599 81.200005 53.432602 82.760002 Q51.592602 84.560005 50.712601 85.240005 Q52.632603 85.68 53.272602 85.920006 Q55.1926 86.68 55.832603 88 Q56.1926 88.720001 56.1926 89.560005 Q56.1926 90.080002 55.972603 91.279999 Q55.752602 92.480003 55.752602 92.800003 Q55.752602 94.400002 56.832603 94.400002 Q57.552601 94.400002 58.152603 93.800003 Q59.152603 92.800003 59.952599 89.639999 Q60.0326 89.32 60.752602 89.32 Q61.312599 89.32 61.392601 89.400002 Q61.632599 89.560005 61.432602 90.240005 Q60.3526 93.880005 58.6726 95.160004 Q57.6726 95.880005 56.712601 95.880005 Q54.872601 95.880005 53.772602 94.779999 Q52.6726 93.68 52.6726 91.840004 Q52.6726 91.480003 52.792603 90.720001 Q52.912601 89.959999 52.912601 89.639999 Q52.912601 89.120003 52.6726 88.639999 Q52.152603 87.639999 50.712601 87.080002 Q49.392601 86.639999 48.872601 86.639999 L48.792603 86.639999 L48.312603 88.480003 Q47.872601 90.279999 47.372601 92.279999 Q46.872601 94.279999 46.752602 94.600006 Q46.552601 95.120003 46.0326 95.5 Q45.5126 95.880005 44.912601 95.880005 Q44.432602 95.880005 43.972603 95.580002 Q43.5126 95.279999 43.5126 94.800003 Q43.5126 94.400002 44.972603 88.400002 Q46.432602 82.400002 47.912601 76.600006 L49.392601 70.800003 Q49.472603 70.240005 49.132603 70.100006 Q48.792603 69.960007 47.992599 69.960007 Q47.872601 69.960007 47.832603 69.960007 Q47.792603 69.960007 47.712601 69.960007 Q47.632603 69.960007 47.552601 69.960007 Q46.712601 69.960007 46.592602 69.840004 Q46.3526 69.639999 46.552601 68.880005 Q46.712601 68.320007 46.832603 68.240005 Q46.952602 68.120003 47.072601 68.120003 L47.072601 68.120003 Z" fill="rgba(0,0,0,1)" fill-rule="evenodd" stroke="none"/><path d="M69.249199 10.84 Q69.249199 10.240002 69.349197 10.120003 Q69.449203 10 69.929199 10 L70.129204 10 L70.689201 10 L71.2892 10.240002 Q75.049202 11.84 77.4692 14.300003 Q79.889198 16.760002 80.6092 19.720001 Q80.849197 20.639999 80.869202 21.860001 Q80.889198 23.080002 80.929199 33.959999 L80.9692 46.760002 L81.049202 47.32 Q81.729202 52.040001 85.889198 55.48 Q87.369202 56.599998 88.329201 57.040001 Q88.6092 57.200001 88.669205 57.32 Q88.729202 57.440002 88.729202 57.959999 Q88.729202 58.360001 88.709198 58.5 Q88.689201 58.639999 88.6092 58.720001 Q88.529198 58.799999 88.329201 58.919998 Q86.009201 60.080002 84.329201 61.959999 Q81.6492 64.879997 81.049202 68.599998 L80.9692 69.160004 L80.929199 82 Q80.889198 92.879997 80.869202 94.099998 Q80.849197 95.32 80.6092 96.239998 Q79.889198 99.199997 77.4692 101.660004 Q75.049202 104.119995 71.2892 105.720001 L70.689201 105.959999 L70.129204 105.959999 Q69.489204 105.959999 69.369202 105.879997 Q69.249199 105.800003 69.249199 105.399994 L69.249199 105.119995 L69.249199 104.880005 Q69.249199 104.360001 69.529198 104.239998 Q69.569199 104.239998 69.689201 104.160004 L69.929199 104.080002 Q75.929199 100.800003 76.929199 95.199997 Q76.9692 94.519997 77.009201 81.979996 Q77.049202 69.440002 77.089203 68.760002 Q77.6092 65.599998 79.689201 63 Q80.6092 61.84 82.089203 60.639999 Q83.729202 59.360001 85.6492 58.360001 L86.449203 58 L85.6492 57.599998 Q78.169205 53.720001 77.089203 47.200001 Q77.049202 46.560001 77.009201 34 Q76.9692 21.440002 76.929199 20.760002 Q75.929199 15.16 69.929199 11.880001 Q69.369202 11.639999 69.2892 11.48 Q69.249199 11.440002 69.249199 10.84 L69.249199 10.84 Z" fill="rgba(0,0,0,1)" fill-rule="evenodd" stroke="none"/></svg>