<svg xmlns="http://www.w3.org/2000/svg" viewBox="0 0 171.786978 116.0012" width="171.786978" height="116.0012"><path d="M38.040001 105.599998 Q38.040001 105.720001 37.799999 105.959999 L36.559998 105.959999 L36.400002 105.800003 Q35.199997 104.839996 32.919998 102.399994 Q20.52 88.760002 18.639999 65.879997 Q18.360001 62.68 18.360001 57.959999 Q18.360001 53.32 18.639999 50.040001 Q20.52 27.200001 32.919998 13.560001 Q35.199997 11.120003 36.400002 10.16 L36.559998 10 L37.799999 10 Q38.040001 10.240002 38.040001 10.360001 Q38.040001 10.52 37.599998 11 Q29.799999 19.080002 26.02 30.639999 Q22.24 42.200001 22.24 58 Q22.24 70.68 24.799999 80.919998 Q28.48 95.479996 37.599998 104.959999 Q38.040001 105.440002 38.040001 105.599998 L38.040001 105.599998 Z" fill="rgba(0,0,0,1)" fill-rule="evenodd" stroke="none"/><path d="M43.7644 41.359997 Q43.204399 41.359997 42.804401 41.059998 Q42.4044 40.759998 42.4044 40.239998 Q42.4044 39.719997 43.9244 33.719997 Q45.444401 27.719997 45.524399 27.199999 Q45.5644 26.999998 45.5644 26.279999 Q45.5644 24.719999 44.604401 24.719999 Q43.684402 24.719999 42.9244 26.199999 Q42.484402 27.039997 42.0844 28.719997 Q41.844402 29.519999 41.844402 29.559998 Q41.7644 29.799999 41.0844 29.799999 L40.524399 29.799999 Q40.284401 29.559998 40.284401 29.439999 Q40.284401 29.279999 40.484402 28.599998 Q41.684402 23.879999 44.164402 23.319998 Q44.484402 23.239998 44.844402 23.239998 Q47.204399 23.239998 48.2444 25.039997 Q48.684402 25.799999 48.684402 26.16 Q48.684402 26.239998 48.7244 26.239998 L49.164398 25.799999 Q51.644402 23.239998 54.7244 23.239998 Q56.9244 23.239998 58.2444 24.319998 Q59.5644 25.399998 59.5644 27.48 Q59.5644 28.399998 59.444401 28.999998 Q59.044403 31.279999 57.2444 36 Q56.524399 37.919998 56.524399 38.839996 Q56.524399 39.879997 57.204399 39.879997 Q58.5644 39.879997 59.544403 38.439999 Q60.524399 37 61.044403 35.119999 Q61.124401 34.799999 61.844398 34.799999 Q62.644402 34.799999 62.644402 35.079998 Q62.644402 35.359997 62.484398 35.719997 Q61.444401 39.439999 58.7244 40.959999 Q58.004402 41.32 57.004402 41.32 Q55.484398 41.32 54.4044 40.359997 Q53.444401 39.239998 53.444401 38 Q53.444401 37.239998 54.004402 35.759998 Q55.7644 31.079998 56.2444 28.639999 Q56.364403 28.039997 56.364403 27.119999 Q56.364403 24.759998 54.4044 24.759998 Q53.684402 24.759998 53.364403 24.839998 Q50.5644 25.439999 48.604401 28.799999 L48.324402 29.279999 L47.004402 34.639999 Q45.684402 39.879997 45.484402 40.279999 Q44.964401 41.359997 43.7644 41.359997 L43.7644 41.359997 Z" fill="rgba(0,0,0,1)" fill-rule="evenodd" stroke="none"/><path d="M74.582489 30.919998 Q74.582489 30.399998 75.142494 30.119999 L87.102493 30.119999 L87.102493 24.119999 L87.142487 18.119999 Q87.542488 17.599998 87.902489 17.599998 Q88.422493 17.599998 88.702492 18.199999 L88.702492 30.119999 L100.62249 30.119999 Q101.222488 30.439999 101.222488 30.919998 Q101.222488 31.399998 100.62249 31.719997 L88.702492 31.719997 L88.702492 43.639999 Q88.422493 44.199997 87.902489 44.199997 Q87.382492 44.199997 87.102493 43.639999 L87.102493 31.719997 L75.142494 31.719997 Q74.582489 31.439999 74.582489 30.919998 L74.582489 30.919998 Z" fill="rgba(0,0,0,1)" fill-rule="evenodd" stroke="none"/><path d="M128.982574 40.919998 Q128.302582 40.799999 122.622574 40.799999 Q117.022575 40.799999 116.342575 40.919998 L115.862572 40.919998 L115.862572 39.079998 L116.902573 39.079998 Q119.222572 39.079998 119.902573 38.959999 Q120.222572 38.919998 120.862572 38.48 L120.862572 17.799999 Q120.782578 17.799999 120.542572 17.919998 Q118.702576 18.639999 116.422577 18.679998 L115.662575 18.679998 L115.662575 16.839998 L116.422577 16.839998 Q119.782578 16.719999 122.022575 15.32 Q122.742577 14.919998 123.262573 14.4 Q123.342575 14.279999 123.742577 14.279999 Q124.142578 14.279999 124.422577 14.519999 L124.422577 26.48 L124.462578 38.48 Q125.062576 39.079998 127.062576 39.079998 L128.382568 39.079998 L129.422577 39.079998 L129.422577 40.919998 L128.982574 40.919998 L128.982574 40.919998 Z" fill="rgba(0,0,0,1)" fill-rule="evenodd" stroke="none"/><path d="M46.516998 68.120003 Q46.556999 68.120003 49.417 67.900002 Q52.277 67.68 52.316998 67.68 Q52.796997 67.68 52.796997 68 Q52.796997 68.360001 50.796997 76.380005 Q48.796997 84.400002 48.796997 84.560005 Q49.876999 83.920006 50.316998 83.560005 Q50.756996 83.200005 52.156998 81.840004 Q54.556999 79.440002 55.516998 78.840004 Q57.116997 77.760002 58.556999 77.760002 Q59.756996 77.760002 60.457001 78.560005 Q61.156998 79.360001 61.156998 80.68 Q61.156998 82.120003 60.476997 83.020004 Q59.796997 83.920006 58.556999 83.920006 Q57.796997 83.920006 57.296997 83.480003 Q56.796997 83.040001 56.796997 82.32 Q56.796997 81.32 57.476997 80.620003 Q58.156998 79.920006 59.076996 79.800003 L59.356998 79.720001 Q58.876999 79.240005 58.396996 79.240005 Q57.036999 79.240005 55.196999 80.600006 Q54.436996 81.200005 52.876999 82.760002 Q51.036999 84.560005 50.156998 85.240005 Q52.077 85.68 52.716999 85.920006 Q54.636997 86.68 55.277 88 Q55.636997 88.720001 55.636997 89.560005 Q55.636997 90.080002 55.417 91.279999 Q55.196999 92.480003 55.196999 92.800003 Q55.196999 94.400002 56.277 94.400002 Q56.996998 94.400002 57.597 93.800003 Q58.597 92.800003 59.396996 89.639999 Q59.476997 89.32 60.196999 89.32 Q60.756996 89.32 60.836998 89.400002 Q61.076996 89.560005 60.876999 90.240005 Q59.796997 93.880005 58.116997 95.160004 Q57.116997 95.880005 56.156998 95.880005 Q54.316998 95.880005 53.216999 94.779999 Q52.116997 93.68 52.116997 91.840004 Q52.116997 91.480003 52.237 90.720001 Q52.356998 89.959999 52.356998 89.639999 Q52.356998 89.120003 52.116997 88.639999 Q51.597 87.639999 50.156998 87.080002 Q48.836998 86.639999 48.316998 86.639999 L48.237 86.639999 L47.757 88.480003 Q47.316998 90.279999 46.816998 92.279999 Q46.316998 94.279999 46.196999 94.600006 Q45.996998 95.120003 45.476997 95.5 Q44.956997 95.880005 44.356998 95.880005 Q43.876999 95.880005 43.417 95.580002 Q42.956997 95.279999 42.956997 94.800003 Q42.956997 94.400002 44.417 88.400002 Q45.876999 82.400002 47.356998 76.600006 L48.836998 70.800003 Q48.917 70.240005 48.577 70.100006 Q48.237 69.960007 47.436996 69.960007 Q47.316998 69.960007 47.277 69.960007 Q47.237 69.960007 47.156998 69.960007 Q47.077 69.960007 46.996998 69.960007 Q46.156998 69.960007 46.036999 69.840004 Q45.796997 69.639999 45.996998 68.880005 Q46.156998 68.320007 46.277 68.240005 Q46.396999 68.120003 46.516998 68.120003 L46.516998 68.120003 Z" fill="rgba(0,0,0,1)" fill-rule="evenodd" stroke="none"/><path d="M72.989883 85.440002 Q72.989883 84.920006 73.549889 84.639999 L85.509888 84.639999 L85.509888 78.639999 L85.549881 72.639999 Q85.949883 72.120003 86.309883 72.120003 Q86.829887 72.120003 87.109886 72.720001 L87.109886 84.639999 L99.029884 84.639999 Q99.629883 84.960007 99.629883 85.440002 Q99.629883 85.920006 99.029884 86.240005 L87.109886 86.240005 L87.109886 98.160004 Q86.829887 98.720001 86.309883 98.720001 Q85.789886 98.720001 85.509888 98.160004 L85.509888 86.240005 L73.549889 86.240005 Q72.989883 85.960007 72.989883 85.440002 L72.989883 85.440002 Z" fill="rgba(0,0,0,1)" fill-rule="evenodd" stroke="none"/><path d="M115.149979 78.279999 Q114.029976 78.279999 113.389977 77.560005 Q112.749977 76.840004 112.749977 75.800003 Q112.749977 72.920006 114.929977 70.860001 Q117.109978 68.800003 120.149979 68.800003 Q123.589981 68.800003 125.849976 70.660004 Q128.10997 72.520004 128.629974 75.520004 Q128.709976 76.240005 128.709976 76.840004 Q128.709976 79.160004 127.309975 81.200005 Q126.18998 82.880005 122.789978 85.800003 Q121.349976 87.040001 118.789978 89.480003 L116.429977 91.720001 L119.469978 91.760002 Q125.749977 91.760002 126.149979 91.560005 Q126.309975 91.520004 126.549973 90.720001 Q126.709976 90.279999 127.109978 88 L127.109978 87.880005 L128.709976 87.880005 L128.709976 88 L127.589981 95.32 L127.589981 95.440002 L112.749977 95.440002 L112.749977 94.68 Q112.749977 93.880005 112.829979 93.760002 Q112.86998 93.68 116.18998 89.959999 Q120.54998 85.120003 121.789978 83.560005 Q124.469978 79.920006 124.469978 76.880005 Q124.469978 74.240005 123.089981 72.460007 Q121.709976 70.68 119.22998 70.68 Q116.909973 70.68 115.469978 72.760002 Q115.389977 72.920006 115.22998 73.200005 Q115.109978 73.400002 115.109978 73.440002 Q115.109978 73.480003 115.309975 73.480003 Q116.309975 73.480003 116.929977 74.200005 Q117.54998 74.919998 117.54998 75.880005 Q117.54998 76.880005 116.889977 77.580002 Q116.22998 78.279999 115.149979 78.279999 L115.149979 78.279999 Z" fill="rgba(0,0,0,1)" fill-rule="evenodd" stroke="none"/><path d="M149.46257 57.959999 Q149.46257 26.240002 133.702576 10.48 Q133.702576 10.16 133.862579 10.080002 Q134.022568 10 134.582581 10 L135.182571 10 L135.342575 10.16 Q136.542572 11.120003 138.822571 13.560001 Q151.22258 27.200001 153.10257 50.040001 Q153.382568 53.32 153.382568 57.959999 Q153.382568 62.639999 153.10257 65.879997 Q151.22258 88.760002 138.822571 102.399994 Q136.542572 104.839996 135.342575 105.800003 L135.182571 105.959999 L134.582581 105.959999 Q133.982574 105.959999 133.842575 105.879997 Q133.702576 105.800003 133.702576 105.479996 Q135.582581 103.599998 137.942581 100.520004 Q149.46257 85.160004 149.46257 57.959999 L149.46257 57.959999 Z" fill="rgba(0,0,0,1)" fill-rule="evenodd" stroke="none"/></svg>