<svg xmlns="http://www.w3.org/2000/svg" viewBox="0 0 59.555733 46.6664" width="59.555733" height="46.6664"><path d="M15.559999 20.933199 Q14.52 20.933199 13.82 20.2132 Q13.12 19.493198 13.12 18.533199 Q13.12 17.653198 13.66 17.013199 Q14.2 16.373199 15 16.173199 Q15.52 16.013199 16.08 16.173199 Q16.879999 16.333199 17.42 17.013199 Q17.959999 17.693199 17.959999 18.493198 Q17.959999 19.533199 17.24 20.2332 Q16.52 20.933199 15.559999 20.933199 L15.559999 20.933199 Z M15.559999 33.333199 Q14.52 33.333199 13.82 32.613197 Q13.12 31.893198 13.12 30.933199 Q13.12 30.053198 13.66 29.413198 Q14.2 28.773199 15 28.573198 Q15.52 28.413198 16.08 28.573198 Q16.879999 28.733198 17.42 29.413198 Q17.959999 30.093199 17.959999 30.893198 Q17.959999 31.933199 17.24 32.633198 Q16.52 33.333199 15.559999 33.333199 L15.559999 33.333199 Z" fill="rgba(0,0,0,1)" fill-rule="evenodd" stroke="none"/><path d="M21.804533 23.333199 Q21.804533 22.813198 22.364532 22.533199 L45.60453 22.533199 Q46.204533 22.853199 46.204533 23.333199 Q46.204533 23.813198 45.60453 24.133198 L22.364532 24.133198 Q21.804533 23.853199 21.804533 23.333199 L21.804533 23.333199 Z" fill="rgba(0,0,0,1)" fill-rule="evenodd" stroke="none"/></svg>