<svg xmlns="http://www.w3.org/2000/svg" viewBox="0 0 59.555733 37.2224" width="59.555733" height="37.2224"><path d="M15.559999 14.822401 Q14.52 14.822401 13.82 14.102401 Q13.12 13.382401 13.12 12.422401 Q13.12 11.542401 13.66 10.902401 Q14.2 10.262402 15 10.062401 Q15.52 9.902401 16.08 10.062401 Q16.879999 10.222401 17.42 10.902401 Q17.959999 11.582401 17.959999 12.382401 Q17.959999 13.422401 17.24 14.122401 Q16.52 14.822401 15.559999 14.822401 L15.559999 14.822401 Z M15.559999 27.222401 Q14.52 27.222401 13.82 26.502401 Q13.12 25.7824 13.12 24.822401 Q13.12 23.9424 13.66 23.302401 Q14.2 22.662401 15 22.4624 Q15.52 22.302401 16.08 22.4624 Q16.879999 22.6224 17.42 23.302401 Q17.959999 23.982401 17.959999 24.7824 Q17.959999 25.822401 17.24 26.5224 Q16.52 27.222401 15.559999 27.222401 L15.559999 27.222401 Z" fill="rgba(0,0,0,1)" fill-rule="evenodd" stroke="none"/><path d="M20.684532 13.342401 Q20.684532 12.822401 21.244532 12.542401 L46.724533 12.542401 Q47.324532 12.822401 47.324532 13.342401 Q47.324532 13.782401 46.764534 14.102401 L34.044533 14.142401 L21.324532 14.142401 Q20.684532 13.942401 20.684532 13.342401 L20.684532 13.342401 Z M20.684532 21.102402 Q20.684532 20.502401 21.324532 20.302401 L46.764534 20.302401 Q46.804531 20.342402 46.944534 20.442402 Q47.084534 20.5424 47.144531 20.602402 Q47.204533 20.662401 47.264534 20.802401 Q47.324532 20.942402 47.324532 21.102402 Q47.324532 21.6224 46.724533 21.902401 L21.244532 21.902401 Q20.684532 21.6224 20.684532 21.102402 L20.684532 21.102402 Z" fill="rgba(0,0,0,1)" fill-rule="evenodd" stroke="none"/></svg>