<svg xmlns="http://www.w3.org/2000/svg" viewBox="0 0 67.8104 93.44" width="67.8104" height="93.44"><path d="M31.879999 81.720001 L31.639999 81.959999 L31.119999 81.959999 Q30.6 81.959999 30.119999 81.800003 Q22.959999 79.279999 21.719999 74.639999 Q21.559999 73.959999 21.540001 73.119995 Q21.52 72.279999 21.48 64 L21.439999 54.32 L21.360001 53.880001 Q21.16 52.919998 20.880001 52.32 Q19.52 48.919998 15.32 46.880001 Q14.92 46.760002 14.84 46.619999 Q14.76 46.48 14.76 46 Q14.76 45.52 14.84 45.360001 Q14.92 45.200001 15.32 45.080002 Q19.52 43.040001 20.880001 39.639999 Q21.16 39.040001 21.360001 38.040001 L21.439999 37.599998 L21.48 27.960001 Q21.48 26.52 21.48 24.24 Q21.52 18.040001 21.68 17.48 Q21.719999 17.360001 21.719999 17.32 Q22.559999 14.240002 26.24 11.959999 Q27.959999 10.960003 30.32 10.080002 Q30.639999 10 31.08 10 L31.639999 10 L31.879999 10.240002 L31.879999 10.799999 Q31.879999 11.32 31.82 11.420002 Q31.76 11.52 31.439999 11.639999 Q29.92 12.240002 28.68 13.16 Q25.84 15.16 25.24 18 L25.16 18.400002 L25.119999 28.040001 Q25.119999 29.720001 25.119999 32.239998 Q25.08 37.919998 24.959999 38.48 Q24.92 38.52 24.92 38.559998 Q24 42.080002 19.719999 44.720001 Q17.68 45.720001 17.440001 45.84 L17.040001 45.959999 L17.52 46.200001 Q23.719999 48.68 24.92 53.400002 Q24.92 53.439999 24.959999 53.48 Q25.08 54.040001 25.119999 59.720001 Q25.119999 62.239998 25.119999 63.919998 L25.16 73.520004 L25.24 73.959999 Q25.84 76.800003 28.68 78.800003 Q29.92 79.720001 31.439999 80.32 Q31.76 80.440002 31.82 80.540001 Q31.879999 80.639999 31.879999 81.160004 L31.879999 81.720001 L31.879999 81.720001 Z" fill="rgba(0,0,0,1)" fill-rule="evenodd" stroke="none"/><path d="M54.626801 13.160001 Q54.626801 13.68 53.126801 19.58 Q51.626801 25.48 51.626801 26.200001 Q51.626801 27.880001 52.746803 27.880001 Q53.106804 27.84 53.546799 27.52 Q54.386803 26.719999 55.186802 23.68 Q55.426804 22.880001 55.5868 22.84 Q55.666801 22.799999 55.986801 22.799999 L56.146801 22.799999 Q56.906799 22.799999 56.906799 23.120001 Q56.906799 23.280001 56.7868 23.76 Q55.906799 27.120001 54.626801 28.4 Q53.706802 29.32 52.386803 29.32 Q49.866802 29.32 48.866802 27.360001 Q48.666801 26.84 48.666801 26.880001 Q48.626801 26.84 48.506802 26.92 Q48.4268 27 48.346802 27.08 Q46.426804 28.879999 44.546803 29.280001 Q44.306801 29.32 43.546803 29.32 Q40.906799 29.32 39.186802 27.120001 Q37.986801 25.360001 37.986801 22.639999 Q37.986801 22 38.026802 21.76 Q38.306801 19.200001 39.686802 16.860001 Q41.066803 14.52 42.986801 13.080001 Q45.306801 11.280001 47.866802 11.280001 Q49.866802 11.280001 51.466801 13.240001 Q52.1068 12.040001 53.306801 12.040001 Q53.826801 12.040001 54.226799 12.360001 Q54.626801 12.68 54.626801 13.160001 L54.626801 13.160001 Z M41.386803 24.68 Q41.386803 26.120001 42.006802 27 Q42.626801 27.880001 43.826801 27.880001 Q44.986801 27.880001 46.306801 26.92 Q46.7868 26.6 47.6068 25.720001 Q48.4268 24.84 48.5868 24.52 Q48.666801 24.360001 49.686802 20.240002 Q50.706802 16.120001 50.706802 15.8 Q50.706802 15.320001 50.2668 14.440001 Q49.386803 12.720001 47.746803 12.720001 Q46.146801 12.720001 44.926804 14.080001 Q43.706802 15.440001 43.066803 17.200001 Q41.906799 20.360001 41.4268 23.76 Q41.4268 23.880001 41.406799 24.200001 Q41.386803 24.52 41.386803 24.68 L41.386803 24.68 Z" fill="rgba(0,0,0,1)" fill-rule="evenodd" stroke="none"/><path d="M42.215202 56.120003 Q42.255199 56.120003 45.1152 55.900002 Q47.975201 55.68 48.015202 55.68 Q48.495201 55.68 48.495201 56.040001 Q48.495201 56.360001 47.0952 61.900002 Q45.695202 67.440002 45.695202 67.480003 Q45.695202 67.600006 45.9352 67.360001 Q47.2952 66.240005 48.975201 65.840004 Q49.4552 65.760002 49.975201 65.760002 Q50.495201 65.760002 50.975201 65.840004 Q53.055199 66.320007 54.2952 68 Q55.535202 69.68 55.535202 72.240005 Q55.535202 76.720001 52.395203 80.300003 Q49.255199 83.880005 45.575203 83.880005 Q44.415199 83.880005 43.375202 83.360001 Q40.255199 81.959999 40.255199 77.440002 Q40.255199 76.279999 40.495201 75.160004 Q40.495201 75.120003 42.495201 66.960007 L44.535202 58.800003 Q44.6152 58.240005 44.2752 58.100002 Q43.9352 57.960003 43.135201 57.960003 Q42.855202 57.960003 42.695202 57.960003 Q41.855202 57.960003 41.735199 57.840004 Q41.495201 57.640003 41.695202 56.880005 Q41.855202 56.320004 41.975201 56.240005 Q42.0952 56.120003 42.215202 56.120003 L42.215202 56.120003 Z M52.0952 70.440002 Q52.0952 67.240005 49.655201 67.240005 Q49.575203 67.240005 49.395203 67.260002 Q49.215202 67.279999 49.175201 67.279999 Q47.0952 67.720001 45.255199 70.160004 Q45.175201 70.240005 45.055199 70.400002 L44.9352 70.560005 Q44.9352 70.600006 44.235199 73.420006 Q43.535202 76.240005 43.4552 76.639999 Q43.215202 77.880005 43.215202 78.880005 Q43.215202 80.800003 44.175201 81.760002 Q44.815201 82.400002 45.7752 82.400002 Q47.0952 82.400002 48.4552 81.120003 Q49.4552 80.200005 50.075203 78.860001 Q50.695202 77.520004 51.375198 74.68 Q52.0952 71.800003 52.0952 70.440002 L52.0952 70.440002 Z" fill="rgba(0,0,0,1)" fill-rule="evenodd" stroke="none"/><rect x="36.6668" y="45.2" width="21.1436" height="1.6" fill="rgba(0,0,0,1)"/></svg>