<svg xmlns="http://www.w3.org/2000/svg" viewBox="0 0 176.231956 103.6308" width="176.231956" height="103.6308"><path d="M27.959999 20.017601 Q27.959999 20.5376 26.459999 26.437599 Q24.959999 32.337601 24.959999 33.057598 Q24.959999 34.737598 26.08 34.737598 Q26.440001 34.697601 26.879999 34.377598 Q27.719999 33.577599 28.52 30.5376 Q28.76 29.737598 28.92 29.697599 Q29 29.6576 29.32 29.6576 L29.48 29.6576 Q30.24 29.6576 30.24 29.9776 Q30.24 30.1376 30.119999 30.617599 Q29.24 33.9776 27.959999 35.257599 Q27.039999 36.177601 25.719999 36.177601 Q23.200001 36.177601 22.200001 34.217598 Q22 33.697601 22 33.737598 Q21.959999 33.697601 21.84 33.777599 Q21.759998 33.857601 21.68 33.937599 Q19.76 35.737598 17.879999 36.1376 Q17.639999 36.177601 16.879999 36.177601 Q14.24 36.177601 12.52 33.9776 Q11.32 32.217598 11.32 29.497601 Q11.32 28.857599 11.36 28.617599 Q11.64 26.0576 13.02 23.7176 Q14.4 21.3776 16.32 19.937599 Q18.639999 18.1376 21.200001 18.1376 Q23.200001 18.1376 24.799999 20.097599 Q25.439999 18.8976 26.639999 18.8976 Q27.16 18.8976 27.559999 19.2176 Q27.959999 19.5376 27.959999 20.017601 L27.959999 20.017601 Z M14.719999 31.5376 Q14.719999 32.9776 15.34 33.857601 Q15.96 34.737598 17.16 34.737598 Q18.32 34.737598 19.639999 33.777599 Q20.119999 33.4576 20.939999 32.577599 Q21.759998 31.697599 21.92 31.3776 Q22 31.2176 23.02 27.097599 Q24.040001 22.9776 24.040001 22.6576 Q24.040001 22.177601 23.599998 21.2976 Q22.719999 19.5776 21.08 19.5776 Q19.48 19.5776 18.26 20.937599 Q17.040001 22.2976 16.4 24.0576 Q15.24 27.2176 14.76 30.617599 Q14.76 30.737598 14.74 31.0576 Q14.719999 31.3776 14.719999 31.5376 L14.719999 31.5376 Z" fill="rgba(0,0,0,1)" fill-rule="evenodd" stroke="none"/><path d="M42.272491 25.777599 Q42.272491 25.257599 42.832489 24.9776 L54.792488 24.9776 L54.792488 18.9776 L54.832489 12.9776 Q55.232491 12.4576 55.592491 12.4576 Q56.112488 12.4576 56.392487 13.0576 L56.392487 24.9776 L68.312485 24.9776 Q68.912491 25.2976 68.912491 25.777599 Q68.912491 26.257599 68.312485 26.577599 L56.392487 26.577599 L56.392487 38.497601 Q56.112488 39.057598 55.592491 39.057598 Q55.072491 39.057598 54.792488 38.497601 L54.792488 26.577599 L42.832489 26.577599 Q42.272491 26.2976 42.272491 25.777599 L42.272491 25.777599 Z" fill="rgba(0,0,0,1)" fill-rule="evenodd" stroke="none"/><path d="M96.672577 35.777599 Q95.992577 35.6576 90.312576 35.6576 Q84.712578 35.6576 84.032578 35.777599 L83.552574 35.777599 L83.552574 33.937599 L84.592575 33.937599 Q86.912575 33.937599 87.592575 33.8176 Q87.912575 33.777599 88.552574 33.337601 L88.552574 12.6576 Q88.47258 12.6576 88.232574 12.777599 Q86.392578 13.497601 84.112579 13.5376 L83.352577 13.5376 L83.352577 11.697599 L84.112579 11.697599 Q87.47258 11.5776 89.712578 10.177601 Q90.432579 9.777599 90.952576 9.257601 Q91.032578 9.1376 91.432579 9.1376 Q91.832581 9.1376 92.112579 9.3776 L92.112579 21.337601 L92.15258 33.337601 Q92.752579 33.937599 94.752579 33.937599 L96.072578 33.937599 L97.112579 33.937599 L97.112579 35.777599 L96.672577 35.777599 L96.672577 35.777599 Z" fill="rgba(0,0,0,1)" fill-rule="evenodd" stroke="none"/><path d="M15.548401 62.9776 Q15.5884 62.9776 18.4484 62.757599 Q21.308399 62.537598 21.3484 62.537598 Q21.8284 62.537598 21.8284 62.897598 Q21.8284 63.217598 20.4284 68.757599 Q19.0284 74.2976 19.0284 74.337601 Q19.0284 74.457603 19.2684 74.217598 Q20.628399 73.097603 22.308399 72.697601 Q22.788401 72.617599 23.308399 72.617599 Q23.8284 72.617599 24.308399 72.697601 Q26.388401 73.177597 27.628399 74.857597 Q28.868401 76.537598 28.868401 79.097603 Q28.868401 83.577599 25.728401 87.1576 Q22.5884 90.737602 18.908401 90.737602 Q17.7484 90.737602 16.708401 90.217598 Q13.5884 88.817596 13.5884 84.2976 Q13.5884 83.137604 13.828401 82.017601 Q13.828401 81.9776 15.828401 73.817596 L17.868401 65.6576 Q17.9484 65.097603 17.6084 64.957596 Q17.2684 64.817596 16.468401 64.817596 Q16.1884 64.817596 16.0284 64.817596 Q15.1884 64.817596 15.0684 64.697601 Q14.828401 64.497604 15.0284 63.737602 Q15.1884 63.177601 15.3084 63.097603 Q15.4284 62.9776 15.548401 62.9776 L15.548401 62.9776 Z M25.4284 77.2976 Q25.4284 74.097603 22.9884 74.097603 Q22.908401 74.097603 22.728401 74.117599 Q22.548401 74.137604 22.5084 74.137604 Q20.4284 74.577599 18.5884 77.017601 Q18.5084 77.097603 18.388401 77.257599 L18.2684 77.417603 Q18.2684 77.457596 17.568401 80.277603 Q16.868401 83.097603 16.788401 83.497597 Q16.548401 84.737602 16.548401 85.737602 Q16.548401 87.6576 17.5084 88.617599 Q18.148399 89.257599 19.1084 89.257599 Q20.4284 89.257599 21.788401 87.9776 Q22.788401 87.057602 23.408401 85.717598 Q24.0284 84.377602 24.708401 81.537598 Q25.4284 78.6576 25.4284 77.2976 L25.4284 77.2976 Z" fill="rgba(0,0,0,1)" fill-rule="evenodd" stroke="none"/><path d="M40.284092 80.2976 Q40.284092 79.777603 40.84409 79.497597 L52.804089 79.497597 L52.804089 73.497604 L52.84409 67.497604 Q53.244091 66.9776 53.604088 66.9776 Q54.124092 66.9776 54.404091 67.577599 L54.404091 79.497597 L66.324089 79.497597 Q66.924088 79.817596 66.924088 80.2976 Q66.924088 80.777603 66.324089 81.097603 L54.404091 81.097603 L54.404091 93.017601 Q54.124092 93.577599 53.604088 93.577599 Q53.084091 93.577599 52.804089 93.017601 L52.804089 81.097603 L40.84409 81.097603 Q40.284092 80.817596 40.284092 80.2976 L40.284092 80.2976 Z" fill="rgba(0,0,0,1)" fill-rule="evenodd" stroke="none"/><path d="M82.444176 73.137604 Q81.324173 73.137604 80.684174 72.417603 Q80.044174 71.697601 80.044174 70.6576 Q80.044174 67.777603 82.224174 65.717598 Q84.404175 63.6576 87.444176 63.6576 Q90.884171 63.6576 93.144173 65.517601 Q95.404175 67.377602 95.924171 70.377602 Q96.004173 71.097603 96.004173 71.697601 Q96.004173 74.017601 94.604172 76.057602 Q93.484177 77.737602 90.084175 80.6576 Q88.644173 81.897598 86.084175 84.337601 L83.724174 86.577599 L86.764175 86.617599 Q93.044174 86.617599 93.444176 86.417603 Q93.604172 86.377602 93.844177 85.577599 Q94.004173 85.137604 94.404175 82.857597 L94.404175 82.737602 L96.004173 82.737602 L96.004173 82.857597 L94.884171 90.177597 L94.884171 90.2976 L80.044174 90.2976 L80.044174 89.537598 Q80.044174 88.737602 80.124176 88.617599 Q80.164177 88.537598 83.484177 84.817596 Q87.844177 79.9776 89.084175 78.417603 Q91.764175 74.777603 91.764175 71.737602 Q91.764175 69.097603 90.384171 67.317596 Q89.004173 65.537598 86.52417 65.537598 Q84.204178 65.537598 82.764175 67.617599 Q82.684174 67.777603 82.524178 68.057602 Q82.404175 68.257599 82.404175 68.2976 Q82.404175 68.337601 82.604172 68.337601 Q83.604172 68.337601 84.224174 69.057602 Q84.844177 69.777603 84.844177 70.737602 Q84.844177 71.737602 84.184174 72.437599 Q83.524178 73.137604 82.444176 73.137604 L82.444176 73.137604 Z" fill="rgba(0,0,0,1)" fill-rule="evenodd" stroke="none"/><rect x="10" y="52.0576" width="90.032578" height="1.6" fill="rgba(0,0,0,1)"/><path d="M111.161461 52.857601 Q111.161461 52.337601 111.721466 52.057602 L123.681465 52.057602 L123.681465 46.057602 L123.721466 40.057602 Q124.12146 39.537601 124.481461 39.537601 Q125.001465 39.537601 125.281464 40.137604 L125.281464 52.057602 L137.201462 52.057602 Q137.801468 52.377602 137.801468 52.857601 Q137.801468 53.337601 137.201462 53.6576 L125.281464 53.6576 L125.281464 65.577599 Q125.001465 66.137604 124.481461 66.137604 Q123.961464 66.137604 123.681465 65.577599 L123.681465 53.6576 L111.721466 53.6576 Q111.161461 53.377602 111.161461 52.857601 L111.161461 52.857601 Z" fill="rgba(0,0,0,1)" fill-rule="evenodd" stroke="none"/><path d="M166.001556 48.6576 Q166.001556 49.897602 165.241547 50.677601 Q164.481552 51.457603 163.321548 51.457603 Q162.561554 51.457603 162.121552 51.037601 Q161.681549 50.617599 161.681549 49.857601 Q161.681549 49.177601 162.081558 48.537601 Q162.481552 47.897602 163.121552 47.617599 Q163.441559 47.417603 163.561554 47.417603 Q163.721558 47.417603 163.281555 47.137604 Q162.521561 46.697601 161.16156 46.697601 Q158.961548 46.697601 157.16156 48.497601 Q156.121552 49.537601 155.481552 50.9776 Q154.841553 52.417603 154.201553 55.097603 Q153.761551 56.9776 153.761551 58.097603 Q153.761551 60.9776 156.281555 61.737602 Q156.601547 61.8176 157.281555 61.8176 Q157.881561 61.8176 158.521561 61.737602 Q162.281555 61.177601 164.681549 58.417603 Q165.04155 58.017601 165.16156 58.017601 Q165.321548 58.017601 165.681549 58.377602 Q166.16156 58.857601 166.04155 59.057602 Q165.881561 59.497601 164.841553 60.417603 Q162.361557 62.6576 158.561554 63.217602 Q157.681549 63.2976 157.001556 63.2976 Q152.721558 63.2976 151.04155 59.777603 Q150.281555 58.2976 150.281555 56.497601 Q150.281555 54.6576 151.04155 52.737602 Q152.201553 49.737602 154.821548 47.637604 Q157.441559 45.537601 160.40155 45.217602 Q160.641556 45.177601 161.16156 45.177601 Q162.561554 45.177601 163.761551 45.617599 Q166.001556 46.577602 166.001556 48.6576 L166.001556 48.6576 Z" fill="rgba(0,0,0,1)" fill-rule="evenodd" stroke="none"/></svg>