<svg xmlns="http://www.w3.org/2000/svg" viewBox="0 0 68.666933 37.2224" width="68.666933" height="37.2224"><path d="M38.32 12.542401 Q38.879997 12.542401 38.879997 13.862401 Q38.879997 14.582401 38.720001 15.382401 Q38.400002 17.382401 37.34 18.9624 Q36.279999 20.5424 34.799999 21.262402 Q33.599998 21.8624 32.48 21.8624 L32.16 21.8624 Q31.039999 21.8624 30.16 21.5424 Q28.32 20.902401 25.279999 18.222401 Q23.119999 16.3424 22.16 15.782401 Q20.48 14.782401 18.92 14.782401 Q17.119999 14.782401 15.78 15.822401 Q14.440001 16.8624 13.8 18.382401 Q13.44 19.382401 13.32 20.662401 Q13.24 21.902401 12.76 21.902401 Q12.2 21.902401 12.2 20.582401 Q12.2 20.142401 12.24 19.8624 Q12.559999 16.902401 14.12 14.942401 Q15.68 12.982401 18.040001 12.622401 Q18.439999 12.542401 18.880001 12.542401 Q19.639999 12.542401 20.119999 12.662401 Q21.16 12.902401 22.24 13.502401 Q23.32 14.102401 23.959999 14.622401 Q24.599998 15.142401 25.799999 16.222401 Q27.959999 18.102402 28.92 18.662401 Q30.6 19.662401 32.16 19.662401 Q33.919998 19.662401 35.279999 18.662401 Q36.360001 17.902401 37.059998 16.5224 Q37.760002 15.142401 37.760002 13.702401 Q37.760002 13.222401 37.939999 12.882401 Q38.119999 12.542401 38.32 12.542401 L38.32 12.542401 Z" fill="rgba(0,0,0,1)" fill-rule="evenodd" stroke="none"/><path d="M44.004536 14.822401 Q42.964535 14.822401 42.264534 14.102401 Q41.564533 13.382401 41.564533 12.422401 Q41.564533 11.542401 42.104534 10.902401 Q42.644535 10.262402 43.444534 10.062401 Q43.964535 9.902401 44.524536 10.062401 Q45.324535 10.222401 45.864532 10.902401 Q46.404533 11.582401 46.404533 12.382401 Q46.404533 13.422401 45.684532 14.122401 Q44.964535 14.822401 44.004536 14.822401 L44.004536 14.822401 Z M44.004536 27.222401 Q42.964535 27.222401 42.264534 26.502401 Q41.564533 25.7824 41.564533 24.822401 Q41.564533 23.9424 42.104534 23.302401 Q42.644535 22.662401 43.444534 22.4624 Q43.964535 22.302401 44.524536 22.4624 Q45.324535 22.6224 45.864532 23.302401 Q46.404533 23.982401 46.404533 24.7824 Q46.404533 25.822401 45.684532 26.5224 Q44.964535 27.222401 44.004536 27.222401 L44.004536 27.222401 Z" fill="rgba(0,0,0,1)" fill-rule="evenodd" stroke="none"/><path d="M53.115734 14.822401 Q52.075733 14.822401 51.375732 14.102401 Q50.675732 13.382401 50.675732 12.422401 Q50.675732 11.542401 51.215733 10.902401 Q51.755733 10.262402 52.555733 10.062401 Q53.075733 9.902401 53.635735 10.062401 Q54.435734 10.222401 54.975731 10.902401 Q55.515732 11.582401 55.515732 12.382401 Q55.515732 13.422401 54.795731 14.122401 Q54.075733 14.822401 53.115734 14.822401 L53.115734 14.822401 Z M53.115734 27.222401 Q52.075733 27.222401 51.375732 26.502401 Q50.675732 25.7824 50.675732 24.822401 Q50.675732 23.9424 51.215733 23.302401 Q51.755733 22.662401 52.555733 22.4624 Q53.075733 22.302401 53.635735 22.4624 Q54.435734 22.6224 54.975731 23.302401 Q55.515732 23.982401 55.515732 24.7824 Q55.515732 25.822401 54.795731 26.5224 Q54.075733 27.222401 53.115734 27.222401 L53.115734 27.222401 Z" fill="rgba(0,0,0,1)" fill-rule="evenodd" stroke="none"/></svg>