<svg xmlns="http://www.w3.org/2000/svg" viewBox="0 0 88.1948 61.6" width="88.1948" height="61.6"><path d="M37.34 18.906759 Q36.799999 18.906759 36.489998 18.566761 Q36.18 18.226761 36.18 17.68676 Q36.18 16.546761 37.079998 15.77676 Q37.98 15.00676 39.16 14.86676 L39.459999 14.86676 Q40.720001 14.86676 41.68 15.30676 Q43 15.96676 43.34 17.18676 Q43.399998 17.386761 43.399998 17.726761 Q43.399998 18.906759 42.669998 19.83676 Q41.939999 20.76676 40.84 21.166759 Q40.739998 21.20676 40.84 21.226759 Q40.879997 21.246759 41.040001 21.28676 Q42.259998 21.626759 43.099998 22.556759 Q43.939999 23.486759 43.939999 24.666759 Q43.939999 25.70676 43.41 26.566759 Q42.879997 27.42676 42.059998 27.906759 Q40.939999 28.60676 39.559998 28.60676 Q38.239998 28.60676 37.219997 28.046759 Q36.200001 27.486759 35.84 26.546759 Q35.639999 26.126759 35.639999 25.566759 Q35.639999 25.00676 36.009998 24.656759 Q36.379997 24.306759 36.899998 24.306759 Q37.459999 24.306759 37.82 24.666759 Q38.18 25.02676 38.18 25.566759 Q38.18 26.02676 37.919998 26.36676 Q37.66 26.70676 37.219997 26.806759 L37.079998 26.84676 Q38.16 27.746759 39.559998 27.746759 Q40.66 27.746759 41.220001 26.68676 Q41.559998 26.02676 41.559998 24.666759 L41.559998 24.26676 Q41.559998 22.36676 40.279999 21.726759 Q39.98 21.60676 39.059998 21.58676 L38.219997 21.566759 L38.16 21.52676 Q38.119999 21.466759 38.119999 21.20676 Q38.119999 20.966759 38.18 20.906759 Q38.239998 20.84676 38.279999 20.84676 Q38.84 20.84676 39.439999 20.746759 Q40.32 20.626759 40.779999 19.75676 Q41.239998 18.886761 41.239998 17.666759 Q41.239998 16.36676 40.540001 15.92676 Q40.119999 15.64676 39.599998 15.64676 Q38.599998 15.64676 37.84 16.18676 Q37.759998 16.226761 37.66 16.316761 Q37.559998 16.406761 37.5 16.486759 L37.439999 16.566761 Q37.5 16.58676 37.579998 16.60676 Q37.98 16.646759 38.25 16.986759 Q38.52 17.326759 38.52 17.76676 Q38.52 18.246759 38.189999 18.576759 Q37.860001 18.906759 37.34 18.906759 L37.34 18.906759 Z" fill="rgba(0,0,0,1)" fill-rule="evenodd" stroke="none"/><path d="M55.360001 11.599998 Q55.68 11.599998 55.880001 11.82 Q56.079998 12.039999 56.119999 12.32 L56.119999 12.559999 L46.799999 31.879999 L37.400002 51.32 Q37.239998 51.599998 36.639999 51.599998 Q36.279999 51.599998 36.16 51.48 L28.4 34.599998 L25.799999 36.48 Q25.6 36.48 25.24 36.139999 Q24.879999 35.799999 24.879999 35.559998 Q24.879999 35.399998 26.18 34.360001 Q27.48 33.32 28.860001 32.299999 Q30.24 31.279999 30.279999 31.239998 Q30.360001 31.16 30.48 31.16 Q30.76 31.16 30.959999 31.559998 L37.880001 46.68 Q37.919998 46.68 42.040001 38.16 Q46.16 29.639999 50.299999 20.999998 Q54.439999 12.359999 54.559998 12.16 Q54.84 11.599998 55.360001 11.599998 L55.360001 11.599998 Z" fill="rgba(0,0,0,1)" fill-rule="evenodd" stroke="none"/><rect x="55.3336" y="11.6" width="22.8612" height="1.6" fill="rgba(0,0,0,1)"/><path d="M57.653599 32.846203 Q57.413597 32.606201 57.413597 32.406204 Q57.573601 31.326202 58.653599 29.646202 Q60.5336 26.806202 63.3736 26.366201 Q63.933598 26.286201 64.2136 26.286201 Q65.613602 26.286201 66.793602 27.006203 Q67.973602 27.726202 68.493599 28.806202 Q69.013596 28.126202 69.133598 27.966202 Q70.613602 26.286201 72.5336 26.286201 Q74.173599 26.286201 75.193596 27.226202 Q76.2136 28.166203 76.2136 29.526203 Q76.2136 30.766201 75.513596 31.606201 Q74.813599 32.446201 73.653595 32.446201 Q72.8936 32.446201 72.413597 32.006203 Q71.933601 31.566202 71.933601 30.846203 Q71.933601 29.006203 73.933601 28.326202 Q73.933601 28.286201 73.493599 28.046202 Q73.093597 27.806202 72.333603 27.806202 Q71.813599 27.806202 71.573601 27.886202 Q70.053596 28.526203 69.333603 30.526203 Q69.2136 30.846203 68.173599 34.986202 Q67.133598 39.126202 67.053596 39.646202 Q66.933601 40.246201 66.933601 40.846203 Q66.933601 41.806202 67.493599 42.366203 Q68.053596 42.926201 68.973602 42.926201 Q70.653595 42.926201 72.013596 41.506203 Q73.373596 40.086201 73.8536 38.366203 Q73.973602 37.966202 74.093597 37.9062 Q74.2136 37.846203 74.733597 37.846203 Q75.493599 37.846203 75.493599 38.166203 Q75.493599 38.206203 75.413597 38.606201 Q74.733597 41.086201 72.613602 42.926201 Q70.733597 44.4062 68.653595 44.4062 Q65.8536 44.4062 64.413597 41.8862 Q63.253597 43.686203 61.453598 44.286201 Q61.093597 44.366203 60.413597 44.366203 Q58.093597 44.366203 57.133598 42.7262 Q56.733601 42.046204 56.733601 41.126202 Q56.733601 39.926201 57.453598 39.086201 Q58.173599 38.246201 59.293598 38.246201 Q61.013599 38.246201 61.013599 39.926201 Q61.013599 41.4062 59.613598 42.086201 Q59.5336 42.126202 59.413597 42.186203 Q59.293598 42.246201 59.2136 42.286201 Q59.133598 42.326202 59.093597 42.326202 L58.973598 42.366203 Q58.973598 42.486202 59.573601 42.7262 Q60.0536 42.926201 60.613598 42.926201 Q62.0536 42.926201 63.093597 41.126202 Q63.5336 40.4062 64.653595 35.926201 Q64.8936 35.006203 65.173599 33.8862 Q65.453598 32.766201 65.593597 32.166203 Q65.733597 31.566202 65.773598 31.446201 Q65.973602 30.366203 65.973602 29.886202 Q65.973602 28.926201 65.453598 28.366203 Q64.933601 27.806202 64.013596 27.806202 Q62.2136 27.806202 60.8936 29.186203 Q59.573601 30.566202 59.0536 32.366203 Q58.973598 32.726204 58.8736 32.786201 Q58.773598 32.846203 58.2136 32.846203 L57.653599 32.846203 L57.653599 32.846203 Z" fill="rgba(0,0,0,1)" fill-rule="evenodd" stroke="none"/></svg>