<svg xmlns="http://www.w3.org/2000/svg" viewBox="0 0 197.336547 92.0008" width="197.336547" height="92.0008"><path d="M26.6 46.200001 Q26.6 46.48 26.32 46.760002 L15.04 46.760002 L15.04 47.360001 Q15.04 50.32 15.84 51.84 Q17.279999 54.799999 20.799999 54.799999 Q22.52 54.799999 23.68 53.52 Q24.48 52.720001 24.92 51.439999 Q25.040001 51 25.16 50.880001 Q25.279999 50.760002 25.799999 50.760002 Q26.6 50.760002 26.6 51.16 Q26.6 51.32 26.48 51.68 Q25.719999 53.759998 24.059999 55.099998 Q22.4 56.439999 20 56.439999 Q19.24 56.439999 18.24 56.240002 Q15.96 55.799999 14.16 54.16 Q12.36 52.52 11.6 50.200001 Q11.12 48.760002 11.12 47.279999 Q11.12 43.599998 13.28 41.060001 Q15.440001 38.52 18.599998 38.120003 Q18.76 38.080002 19.16 38.080002 Q22.799999 38.080002 24.700001 40.220001 Q26.6 42.360001 26.6 46.200001 L26.6 46.200001 Z M23.32 45 Q22.959999 40.639999 20.360001 39.720001 Q20.08 39.599998 19.52 39.559998 Q17.440001 39.559998 16.119999 41.48 Q15.32 42.760002 15.08 45.040001 L15.08 45.32 L23.32 45.32 L23.32 45 L23.32 45 Z" fill="rgba(0,0,0,1)" fill-rule="evenodd" stroke="none"/><path d="M35.818001 56 Q35.217999 55.880001 31.858 55.880001 Q28.898001 55.880001 28.458 56 L28.218 56 L28.218 54.16 L28.778 54.16 Q31.618 53.959999 32.938 52.639999 Q33.098 52.48 34.978001 50 L36.818001 47.599998 L34.498001 44.48 Q32.138 41.240002 32.057999 41.16 Q31.698 40.799999 30.978001 40.68 Q30.737999 40.68 29.538 40.599998 L28.417999 40.599998 L28.417999 38.760002 L28.698 38.760002 Q30.138 38.84 32.818001 38.84 L34.577999 38.84 Q36.697998 38.84 36.938 38.760002 L37.257999 38.760002 L37.257999 40.599998 Q35.818001 40.799999 35.818001 41.240002 Q35.818001 41.360001 37.077999 43.119999 Q38.337997 44.880001 38.658001 45.200001 L39.658001 43.84 Q40.737999 42.48 40.778 42.32 Q40.938 42.040001 40.938 41.68 Q40.938 41.040001 40.458 40.760002 Q40.377998 40.720001 40.217999 40.639999 L40.057999 40.599998 L39.858002 40.599998 L39.858002 38.760002 L40.138 38.760002 Q40.658001 38.880001 44.098 38.880001 Q47.138 38.880001 47.498001 38.760002 L47.737999 38.760002 L47.737999 40.599998 L47.458 40.599998 Q45.498001 40.599998 44.218002 41.279999 Q43.618 41.560001 43.178001 42 Q42.737999 42.440002 41.778 43.68 Q41.498001 44.080002 40.917999 44.84 Q40.337997 45.599998 40.257999 45.720001 L39.618 46.560001 L42.098 49.959999 Q44.697998 53.48 44.778 53.560001 Q45.377998 54.16 47.737999 54.16 L48.417999 54.16 L48.417999 56 L48.178001 56 Q47.778 55.880001 44.337997 55.880001 Q40.658001 55.880001 39.938 56 L39.577999 56 L39.577999 54.16 L39.697998 54.16 Q40.138 54.16 40.577999 53.939999 Q41.017998 53.720001 41.017998 53.48 Q41.017998 53.439999 37.778 49 Q37.737999 49.040001 36.517998 50.68 Q35.298 52.32 35.178001 52.48 Q35.017998 52.759998 35.017998 53.080002 Q35.017998 53.52 35.318001 53.84 Q35.618 54.16 36.017998 54.16 Q36.098 54.16 36.098 55.080002 L36.098 56 L35.818001 56 L35.818001 56 Z" fill="rgba(0,0,0,1)" fill-rule="evenodd" stroke="none"/><path d="M49.769199 38.760002 Q49.929199 38.760002 52.889198 38.540001 Q55.849197 38.32 55.929199 38.32 L56.049198 38.32 L56.049198 39.360001 L56.089199 40.400002 L56.409199 40.119999 Q58.849197 38.360001 61.929199 38.360001 Q62.809196 38.360001 63.209198 38.440002 Q66.009201 39 67.889198 41.440002 Q69.769196 43.880001 69.769196 47.360001 Q69.769196 48.119999 69.689194 48.760002 Q69.2892 51.360001 67.749199 53.240002 Q66.209198 55.119999 63.769199 56.040001 Q62.569199 56.439999 61.2892 56.439999 Q58.569199 56.439999 56.489197 54.68 L56.169197 54.400002 L56.169197 57.799999 Q56.169197 61.279999 56.209198 61.360001 Q56.529198 61.919998 58.209198 61.919998 L58.6492 61.919998 L59.2892 61.919998 L59.2892 63.759998 L58.9692 63.759998 Q58.449196 63.639999 54.489197 63.639999 Q50.529198 63.639999 50.009197 63.759998 L49.689198 63.759998 L49.689198 61.919998 L50.329197 61.919998 L50.769199 61.919998 Q52.4492 61.919998 52.769199 61.360001 L52.769199 61.040001 Q52.769199 60.759998 52.769199 60.259998 Q52.769199 59.759998 52.7892 59.080002 Q52.809196 58.400002 52.809196 57.52 Q52.809196 56.639999 52.809196 55.740002 Q52.809196 54.84 52.809196 53.779999 Q52.809196 52.720001 52.809196 51.760002 Q52.809196 50.400002 52.809196 48.919998 Q52.809196 47.440002 52.809196 46.279999 Q52.809196 45.119999 52.7892 44.139999 Q52.769199 43.16 52.769199 42.580002 Q52.769199 42 52.769199 41.959999 Q52.649197 41.200001 52.189198 40.940002 Q51.729198 40.68 50.409199 40.599998 L49.689198 40.599998 L49.689198 39.68 Q49.689198 38.760002 49.769199 38.760002 L49.769199 38.760002 Z M61.089199 39.919998 Q58.249199 39.919998 56.169197 42.52 L56.169197 52.080002 Q57.809196 54.959999 60.649197 54.959999 Q62.329197 54.959999 63.689198 53.48 Q65.849197 51.240002 65.849197 47.279999 Q65.849197 44.52 64.6092 42.400002 Q63.369198 40.279999 61.649197 39.959999 Q61.489197 39.919998 61.089199 39.919998 L61.089199 39.919998 Z" fill="rgba(0,0,0,1)" fill-rule="evenodd" stroke="none"/><path d="M100.218262 81.599998 Q100.218262 81.720001 99.978264 81.959999 L98.858269 81.959999 Q94.778267 78.479996 91.738266 73.459999 Q88.698265 68.440002 87.058266 62.439999 Q84.978264 54.959999 84.978264 46 Q84.978264 37.080002 87.058266 29.52 Q90.418266 17.240002 98.858269 10 L99.978264 10 Q100.218262 10.240002 100.218262 10.360001 Q100.218262 10.52 99.698265 11.080002 Q98.498268 12.400002 97.218262 14 Q88.658264 25.52 88.658264 45.959999 Q88.658264 69 99.698265 80.879997 Q100.218262 81.440002 100.218262 81.599998 L100.218262 81.599998 Z" fill="rgba(0,0,0,1)" fill-rule="evenodd" stroke="none"/><path d="M108.427147 30.371681 Q108.259148 30.203682 108.259148 30.063683 Q108.371147 29.307682 109.127144 28.131681 Q110.443146 26.143681 112.431145 25.835682 Q112.823143 25.779682 113.01915 25.779682 Q113.999146 25.779682 114.82515 26.28368 Q115.651146 26.787682 116.015144 27.543682 Q116.37915 27.06768 116.46315 26.955681 Q117.499146 25.779682 118.843147 25.779682 Q119.99115 25.779682 120.705147 26.437681 Q121.419144 27.09568 121.419144 28.04768 Q121.419144 28.91568 120.929146 29.503681 Q120.439148 30.091682 119.627144 30.091682 Q119.095146 30.091682 118.759148 29.78368 Q118.423149 29.475681 118.423149 28.971682 Q118.423149 27.683681 119.823151 27.207682 Q119.823151 27.17968 119.515144 27.011681 Q119.235146 26.843681 118.703148 26.843681 Q118.339149 26.843681 118.171143 26.899681 Q117.107147 27.347681 116.603149 28.747681 Q116.51915 28.971682 115.791145 31.869682 Q115.063148 34.767681 115.007149 35.131683 Q114.923149 35.551682 114.923149 35.97168 Q114.923149 36.643681 115.315147 37.035683 Q115.707146 37.427681 116.351151 37.427681 Q117.527145 37.427681 118.479149 36.433681 Q119.431145 35.439682 119.767151 34.23568 Q119.851151 33.955681 119.93515 33.913681 Q120.01915 33.871681 120.383148 33.871681 Q120.915146 33.871681 120.915146 34.09568 Q120.915146 34.12368 120.859146 34.403683 Q120.383148 36.139683 118.899147 37.427681 Q117.583145 38.46368 116.127144 38.46368 Q114.167145 38.46368 113.159149 36.69968 Q112.347145 37.959682 111.087143 38.379681 Q110.835144 38.43568 110.359146 38.43568 Q108.735146 38.43568 108.063148 37.287682 Q107.78315 36.81168 107.78315 36.167683 Q107.78315 35.327682 108.287148 34.739681 Q108.791145 34.15168 109.57515 34.15168 Q110.779144 34.15168 110.779144 35.327682 Q110.779144 36.363682 109.799149 36.839684 Q109.743149 36.867683 109.659149 36.909683 Q109.57515 36.951683 109.51915 36.979683 Q109.46315 37.007683 109.43515 37.007683 L109.351143 37.035683 Q109.351143 37.119682 109.771149 37.287682 Q110.107147 37.427681 110.499146 37.427681 Q111.507149 37.427681 112.235146 36.167683 Q112.543144 35.663681 113.327148 32.527679 Q113.495148 31.883682 113.691147 31.099682 Q113.887146 30.315681 113.985146 29.895681 Q114.083145 29.475681 114.111145 29.391682 Q114.251144 28.635681 114.251144 28.299683 Q114.251144 27.627682 113.887146 27.235682 Q113.523148 26.843681 112.87915 26.843681 Q111.619148 26.843681 110.695145 27.809681 Q109.771149 28.775681 109.40715 30.035683 Q109.351143 30.287682 109.281143 30.329681 Q109.211143 30.371681 108.819145 30.371681 L108.427147 30.371681 L108.427147 30.371681 Z" fill="rgba(0,0,0,1)" fill-rule="evenodd" stroke="none"/><path d="M124.373985 31.155682 Q124.373985 30.791681 124.765984 30.59568 L133.137985 30.59568 L133.137985 26.395681 L133.165985 22.195683 Q133.445984 21.83168 133.697983 21.83168 Q134.061981 21.83168 134.25798 22.251682 L134.25798 30.59568 L142.60199 30.59568 Q143.021988 30.819681 143.021988 31.155682 Q143.021988 31.491682 142.60199 31.715681 L134.25798 31.715681 L134.25798 40.059681 Q134.061981 40.451683 133.697983 40.451683 Q133.333984 40.451683 133.137985 40.059681 L133.137985 31.715681 L124.765984 31.715681 Q124.373985 31.519682 124.373985 31.155682 L124.373985 31.155682 Z" fill="rgba(0,0,0,1)" fill-rule="evenodd" stroke="none"/><path d="M157.519836 26.087681 Q157.911835 26.087681 158.191833 26.29768 Q158.471832 26.507681 158.471832 26.871681 Q158.471832 27.235682 157.099838 32.751682 Q155.727829 38.267681 155.53183 38.799683 Q155.083832 40.17168 154.089828 41.333683 Q153.095825 42.495682 151.779831 43.167683 Q150.267838 43.895683 148.951828 43.895683 Q146.823837 43.895683 146.067825 42.551682 Q145.787827 42.159683 145.787827 41.431683 Q145.787827 40.479683 146.319824 39.947681 Q146.907837 39.41568 147.551834 39.41568 Q148.783829 39.41568 148.783829 40.591682 Q148.783829 41.627682 147.803833 42.103683 Q147.747833 42.131683 147.663834 42.173683 Q147.579834 42.215683 147.523834 42.243683 Q147.467834 42.271683 147.439835 42.271683 L147.355835 42.299683 Q147.439835 42.467682 147.943832 42.663681 Q148.39183 42.83168 148.839828 42.83168 L149.063828 42.83168 Q149.539825 42.83168 149.79184 42.775681 Q150.855835 42.467682 151.807831 41.347683 Q152.759827 40.22768 153.263824 38.659683 Q153.571838 37.735683 153.571838 37.56768 Q153.571838 37.53968 153.515839 37.58168 Q153.459839 37.62368 153.347839 37.70768 Q152.311829 38.46368 151.051834 38.46368 Q149.623825 38.46368 148.699829 37.791683 Q147.775833 37.119682 147.495834 35.85968 Q147.467834 35.663681 147.467834 34.99168 Q147.467834 34.319683 147.523834 33.955681 Q147.719833 32.751682 148.811829 29.839682 Q149.427826 28.187681 149.427826 27.543682 Q149.427826 27.15168 149.357834 26.997681 Q149.287827 26.843681 149.035828 26.843681 L148.895828 26.843681 Q148.251831 26.843681 147.663834 27.431683 Q146.767838 28.327682 146.291824 30.119682 Q146.291824 30.147682 146.263824 30.217682 Q146.235825 30.287682 146.221832 30.301682 Q146.207825 30.315681 146.179825 30.343681 Q146.151825 30.371681 146.081833 30.371681 Q146.011826 30.371681 145.955826 30.371681 Q145.899826 30.371681 145.731827 30.371681 L145.339828 30.371681 Q145.115829 30.147682 145.255829 29.72768 Q145.843826 27.767681 147.019836 26.675682 Q147.971832 25.779682 149.007828 25.779682 Q150.183838 25.779682 150.883835 26.423681 Q151.583832 27.06768 151.583832 28.215681 Q151.527832 28.747681 151.499832 28.80368 Q151.499832 28.971682 151.079834 30.007681 Q149.931839 33.115681 149.707825 34.571682 Q149.679825 34.795681 149.679825 35.215683 Q149.679825 36.279682 150.015839 36.839684 Q150.351837 37.399681 151.247833 37.399681 Q151.89183 37.399681 152.465836 37.063683 Q153.039825 36.72768 153.333832 36.405682 Q153.627838 36.083683 154.075836 35.523682 Q154.075836 35.495682 154.593826 33.409683 Q155.111832 31.323681 155.671829 29.167683 Q156.231827 27.011681 156.315826 26.843681 Q156.67984 26.087681 157.519836 26.087681 L157.519836 26.087681 Z" fill="rgba(0,0,0,1)" fill-rule="evenodd" stroke="none"/><path d="M113.315071 69.800003 Q112.839066 69.716003 108.863068 69.716003 Q104.943069 69.716003 104.467072 69.800003 L104.131065 69.800003 L104.131065 68.512001 L104.85907 68.512001 Q106.48307 68.512001 106.959068 68.428001 Q107.183067 68.400002 107.631065 68.092003 L107.631065 53.616005 Q107.575066 53.616005 107.407066 53.700005 Q106.119072 54.204002 104.523071 54.232002 L103.991066 54.232002 L103.991066 52.944 L104.523071 52.944 Q106.875069 52.860001 108.443069 51.880005 Q108.947067 51.600002 109.311066 51.236 Q109.367065 51.152 109.647072 51.152 Q109.927071 51.152 110.12307 51.32 L110.12307 59.692001 L110.15107 68.092003 Q110.571068 68.512001 111.971069 68.512001 L112.895065 68.512001 L113.62307 68.512001 L113.62307 69.800003 L113.315071 69.800003 L113.315071 69.800003 Z" fill="rgba(0,0,0,1)" fill-rule="evenodd" stroke="none"/><path d="M117.235069 62.800003 Q117.235069 62.436005 117.627068 62.240002 L125.999069 62.240002 L125.999069 58.040001 L126.027069 53.840004 Q126.307068 53.476002 126.559067 53.476002 Q126.923065 53.476002 127.119072 53.896004 L127.119072 62.240002 L135.463074 62.240002 Q135.883072 62.464005 135.883072 62.800003 Q135.883072 63.136002 135.463074 63.360004 L127.119072 63.360004 L127.119072 71.704002 Q126.923065 72.096001 126.559067 72.096001 Q126.195068 72.096001 125.999069 71.704002 L125.999069 63.360004 L117.627068 63.360004 Q117.235069 63.164001 117.235069 62.800003 L117.235069 62.800003 Z" fill="rgba(0,0,0,1)" fill-rule="evenodd" stroke="none"/><path d="M139.068893 62.016003 Q138.900894 61.848003 138.900894 61.708004 Q139.012894 60.952003 139.768906 59.776001 Q141.0849 57.788002 143.072906 57.480003 Q143.464905 57.424004 143.660904 57.424004 Q144.6409 57.424004 145.466904 57.928001 Q146.292908 58.432003 146.656906 59.188004 Q147.020905 58.712002 147.104904 58.600002 Q148.1409 57.424004 149.484894 57.424004 Q150.632904 57.424004 151.346893 58.082001 Q152.060898 58.740002 152.060898 59.692001 Q152.060898 60.560001 151.570908 61.148003 Q151.080902 61.736004 150.268906 61.736004 Q149.736908 61.736004 149.400894 61.428001 Q149.064896 61.120003 149.064896 60.616005 Q149.064896 59.328003 150.464905 58.852005 Q150.464905 58.824001 150.156906 58.656002 Q149.876907 58.488003 149.344894 58.488003 Q148.980896 58.488003 148.812897 58.544003 Q147.748901 58.992004 147.244904 60.392002 Q147.160904 60.616005 146.432907 63.514004 Q145.704895 66.412003 145.648895 66.776001 Q145.564896 67.195999 145.564896 67.616005 Q145.564896 68.288002 145.956894 68.68 Q146.348907 69.072006 146.992905 69.072006 Q148.1689 69.072006 149.120895 68.078003 Q150.072906 67.084 150.408905 65.880005 Q150.492905 65.600006 150.576904 65.558006 Q150.660904 65.516006 151.024902 65.516006 Q151.5569 65.516006 151.5569 65.740005 Q151.5569 65.768005 151.5009 66.048004 Q151.024902 67.784004 149.540894 69.072006 Q148.224899 70.108002 146.768906 70.108002 Q144.808899 70.108002 143.800903 68.344002 Q142.988907 69.604004 141.728897 70.024002 Q141.476898 70.080002 141.0009 70.080002 Q139.376907 70.080002 138.704895 68.932007 Q138.424896 68.456001 138.424896 67.812004 Q138.424896 66.972 138.928894 66.384003 Q139.432907 65.796005 140.216904 65.796005 Q141.420898 65.796005 141.420898 66.972 Q141.420898 68.008003 140.440903 68.484001 Q140.384903 68.512001 140.300903 68.554001 Q140.216904 68.596001 140.160904 68.624001 Q140.104904 68.652 140.076904 68.652 L139.992905 68.68 Q139.992905 68.764 140.412903 68.932007 Q140.748901 69.072006 141.1409 69.072006 Q142.148895 69.072006 142.876907 67.812004 Q143.184906 67.308006 143.968903 64.172005 Q144.136902 63.528004 144.332901 62.744003 Q144.5289 61.960003 144.626907 61.540001 Q144.724899 61.120003 144.752899 61.036003 Q144.892899 60.280003 144.892899 59.944004 Q144.892899 59.272003 144.5289 58.880005 Q144.164902 58.488003 143.520905 58.488003 Q142.260895 58.488003 141.336899 59.454002 Q140.412903 60.420002 140.048904 61.680004 Q139.992905 61.932003 139.922897 61.974003 Q139.852905 62.016003 139.460907 62.016003 L139.068893 62.016003 L139.068893 62.016003 Z" fill="rgba(0,0,0,1)" fill-rule="evenodd" stroke="none"/><path d="M155.647751 53.211998 Q155.087753 53.211998 154.767761 52.852001 Q154.447754 52.492001 154.447754 51.972 Q154.447754 50.532001 155.53775 49.501999 Q156.627747 48.472 158.147751 48.472 Q159.867752 48.472 160.997757 49.402 Q162.127747 50.332001 162.387756 51.832001 Q162.42775 52.192001 162.42775 52.492001 Q162.42775 53.652 161.727753 54.672001 Q161.167755 55.512001 159.467758 56.972 Q158.747757 57.591999 157.467758 58.812 L156.28775 59.931999 L157.807755 59.952 Q160.947754 59.952 161.147751 59.852001 Q161.227753 59.832001 161.347748 59.431999 Q161.42775 59.211998 161.627747 58.071999 L161.627747 58.012001 L162.42775 58.012001 L162.42775 58.071999 L161.867752 61.731998 L161.867752 61.792 L154.447754 61.792 L154.447754 61.411999 Q154.447754 61.012001 154.487747 60.952 Q154.507751 60.911999 156.167755 59.051998 Q158.347748 56.632 158.967758 55.852001 Q160.307755 54.032001 160.307755 52.512001 Q160.307755 51.192001 159.617752 50.302002 Q158.92775 49.411999 157.687759 49.411999 Q156.527756 49.411999 155.807755 50.452 Q155.767761 50.532001 155.687759 50.672001 Q155.627747 50.771999 155.627747 50.792 Q155.627747 50.812 155.727753 50.812 Q156.227753 50.812 156.53775 51.172001 Q156.847748 51.531998 156.847748 52.012001 Q156.847748 52.512001 156.517761 52.862 Q156.187759 53.211998 155.647751 53.211998 L155.647751 53.211998 Z" fill="rgba(0,0,0,1)" fill-rule="evenodd" stroke="none"/><rect x="101.667067" y="45.2" width="61.78068" height="1.6" fill="rgba(0,0,0,1)"/><path d="M164.847748 10.48 Q164.847748 10.16 165.007751 10.080002 Q165.167755 10 165.687759 10 L166.207748 10 Q170.28775 13.48 173.327759 18.5 Q176.367752 23.52 178.007751 29.52 Q180.087753 37 180.087753 46 Q180.087753 54.880001 178.007751 62.439999 Q174.647751 74.720001 166.207748 81.959999 L165.687759 81.959999 Q165.127747 81.959999 164.987747 81.879997 Q164.847748 81.800003 164.847748 81.479996 Q164.887756 81.440002 165.367752 80.879997 Q176.407761 69.080002 176.407761 45.959999 Q176.407761 25.6 167.847748 14 Q166.567749 12.360001 165.367752 11.080002 Q164.887756 10.52 164.847748 10.48 L164.847748 10.48 Z" fill="rgba(0,0,0,1)" fill-rule="evenodd" stroke="none"/></svg>