<svg xmlns="http://www.w3.org/2000/svg" viewBox="0 0 48.8888 61.5556" width="48.8888" height="61.5556"><path d="M38.119999 50.875599 Q38.119999 51.2756 37.559998 51.555599 L31.559999 51.555599 Q25.52 51.555599 25.439999 51.515598 Q24.84 51.315598 25.040001 50.555599 Q25.32 50.195599 25.52 50.195599 Q25.559999 50.195599 25.639999 50.175598 Q25.719999 50.155598 25.82 50.135601 Q25.92 50.115601 26 50.115601 Q27.08 50.0756 28.199999 49.0756 L28.199999 48.875599 Q28.199999 47.875599 26.959999 44.355598 L26.719999 43.675598 L17.92 43.675598 L17.92 43.795601 Q17.879999 43.835598 17.719999 44.675598 Q17.4 46.2756 17.4 47.515598 Q17.4 48.835598 17.700001 49.4356 Q18 50.035599 18.959999 50.155598 Q19.48 50.195599 19.639999 50.4356 Q19.84 50.715599 19.76 51.035599 Q19.68 51.355598 19.4 51.475597 Q19.24 51.555599 15.24 51.555599 Q11.24 51.555599 11.08 51.475597 Q10.8 51.355598 10.72 51.055599 Q10.64 50.7556 10.8 50.475601 Q11 50.195599 11.52 50.155598 Q12.440001 50.035599 13.16 49.395599 Q13.68 48.795601 14.2 47.395599 Q23.200001 23.795599 23.32 23.6756 Q23.880001 23.115601 24.360001 23.635599 Q24.439999 23.6756 26.940001 29.3556 Q29.439999 35.035599 32.119999 41.195599 Q34.799999 47.355598 35.199997 48.155598 Q35.84 49.395599 36.519997 49.875599 Q36.879997 50.155598 37.360001 50.155598 Q37.720001 50.155598 37.919998 50.375599 Q38.119999 50.5956 38.119999 50.875599 L38.119999 50.875599 Z M29.6 48.875599 Q29.6 49.635601 29.08 50.155598 L31.92 50.155598 Q34.720001 50.155598 34.720001 50.115601 Q34.720001 50.035599 34.439999 49.675598 Q34.16 49.2356 33.82 48.515598 Q33.48 47.795601 32.939999 46.615601 Q32.400002 45.4356 31.9 44.2756 Q31.4 43.115601 30.5 41.035599 Q29.6 38.955601 28.799999 37.115601 L23.92 25.9956 Q22.439999 29.715599 22.439999 29.795599 Q22.439999 29.8356 23.08 31.315599 Q27.359999 41.0756 28.76 45.2356 Q29.6 47.995598 29.6 48.875599 L29.6 48.875599 Z M26.16 42.2756 Q23.16 31.9956 21.880001 31.9956 Q21.719999 31.9956 19.439999 38.555599 Q18.32 41.995598 18.32 42.2356 Q18.32 42.2756 22.24 42.2756 L26.16 42.2756 L26.16 42.2756 Z M16.52 50.155598 Q16 49.115601 16 47.515598 Q16 46.675598 15.96 46.675598 Q15.84 46.9156 15.62 47.555599 Q15.4 48.195599 15.26 48.5956 Q15.12 48.995598 14.86 49.455601 Q14.6 49.9156 14.360001 50.155598 L16.52 50.155598 L16.52 50.155598 Z" fill="rgba(0,0,0,1)" fill-rule="evenodd" stroke="none"/><path d="M28.4044 9.8176 Q29.044399 9.8176 29.604401 10.337601 Q30.164398 10.857599 30.164398 11.5376 Q30.164398 12.177601 29.604401 12.7376 Q29.5644 12.777599 26.5644 15.257601 L23.7244 17.5776 L23.124399 17.017599 Q22.5644 16.4576 22.604401 16.4576 Q22.604401 16.417601 23.624399 15.0776 Q24.6444 13.7376 25.7244 12.3176 Q26.804399 10.8976 26.964399 10.6576 Q27.684399 9.8176 28.4044 9.8176 L28.4044 9.8176 Z" fill="rgba(0,0,0,1)" fill-rule="evenodd" stroke="none"/></svg>